M48
;Layer_Color=9474304
;FILE_FORMAT=2:4
INCH,TZ
;TYPE=PLATED
T1F00S00C0.0079
T2F00S00C0.0354
T3F00S00C0.0362
T4F00S00C0.0531
T5F00S00C0.0630
;TYPE=NON_PLATED
T6F00S00C0.0197
T7F00S00C0.0354
T8F00S00C0.0591
%
T01
X984Y6102
X1575Y5807
X2628Y5384
X2953Y6102
X3445Y6004
X3925Y6123
X3740Y5512
X5512Y5709
X6693Y6004
X7087Y5807
X5838Y7610
X5678Y7449
X5413Y7283
X5118Y7382
X4823Y7283
X4724Y7972
X4980Y8031
X4754Y9970
X4232Y10039
X3711Y9970
X3543Y9479
Y9252
X2657Y9814
X2628Y10039
X2461Y10654
X2230Y10594
X1969Y10631
X1815Y10827
X1339
X1026
Y11142
X1339
X1654
X709
Y10827
X689Y10532
X492Y10257
X207Y10039
X243Y9769
X591Y9252
X847Y10039
X1257Y10003
X1395Y9823
X1870Y9843
X1938Y9051
X1673Y8957
X2067Y8465
X1377Y7807
X1378Y7579
X1575Y7283
X984Y7087
X3445Y10630
X3937Y10580
X4626Y10630
X4913Y10421
X5315Y10457
X5433Y10827
Y11142
X6063
Y10827
X6594Y10630
X6890Y10752
X7480Y10532
X6693Y10138
X6299Y9449
X6398Y9154
X7677Y9350
X7571Y12031
X7087Y12500
X7185Y12894
X6988
X6594Y12894
X6299Y12575
X6063Y12088
X5433Y12089
Y11772
X5118
Y12087
X4803
Y12402
X4488
Y12087
X4173
Y12402
X3858Y12402
Y12087
Y12717
X4488
X4528Y13091
X5118Y13346
X5433
X5748Y13661
Y13976
X5433
Y14291
Y14606
Y14921
X5118
Y14606
X4803
Y14921
X4488
Y14606
Y14291
X4803Y13976
X5118
X6063Y13958
X6338Y14092
X6329Y13780
X6996Y13866
X7087Y14075
X7125Y14349
X6791Y14665
X6443Y14780
X6201Y14665
X5958Y14575
X6102Y14961
X6693Y15059
X7480Y14961
X7579Y15551
X6398Y15748
Y16339
X6201Y16535
X6063Y16181
X5748
X5433
Y15866
X5748
X5433Y15551
X5118
Y15236
X4488
Y15551
X4173
Y15236
X3858
X3856Y15551
X3228
Y15236
X2913
X2598
Y14921
Y14606
X2283
Y14921
X1969
Y14606
Y14291
X1654
X2283
X2913Y13976
X3228
Y13661
X2913
Y13032
X3228Y13346
X3543
X3858Y13346
Y13661
X3543Y14272
Y14567
X4171Y14606
X4173Y14921
X4193Y15866
Y16181
X3642Y16212
X3651Y16550
X3849Y16437
X3931Y16828
X4134Y16929
X4564Y16924
X4646Y16712
X4921Y16831
X5255Y16732
Y16960
X4921Y17618
X4829Y17896
X4755Y18110
X4528
X4134
X4331Y18307
X3937Y18406
X3742Y18139
X3432Y18027
X3113Y18123
X2873Y18473
X2646Y18466
X2067Y18504
X1969Y18209
X1772Y17815
X1182Y18012
X1211Y18406
X1575Y18483
X886Y18898
X683Y18796
X1280Y19390
X1575Y19783
X2165Y19587
X2264Y20079
X2459Y20370
X2274Y21364
X2073Y21257
X1870Y21358
X1575
X1289Y21364
X1089Y21257
X886Y21358
X591Y21752
X787Y22047
X492Y22736
X1007Y23425
X1234
X1461
X2052
X2279
X2506
X3346Y23622
X3839Y23544
X3740Y22539
X4331Y22343
Y22047
X4626
X4370Y21654
X4529Y21240
X4755Y21263
X5236Y21654
X5669
X5906Y22077
X5512Y22441
X6693
X6919Y21526
X6102Y21161
X5807Y19882
X5765Y19549
X5217Y19193
X4921
X5158Y19851
X3839Y20079
X3448Y19210
X3244Y19111
X3258Y16932
X3051Y16839
X2953Y16634
X3248
X3231Y16142
Y15866
X2913
X2598
Y15551
X2913
Y16181
X2598
X1990Y16102
X1969Y15866
Y15551
Y15236
X2283
Y15551
X1654Y15547
Y15235
Y15864
Y16181
X1476Y16437
X1809Y16597
X2067Y16413
X2231Y16690
X2028Y16929
X1260Y16948
X1026Y16929
Y15866
X1297
X1339Y15551
X709Y15846
Y16181
X559Y15394
X295Y15256
X492Y14961
Y13976
X689Y12999
X715Y12682
X1024Y12717
X1339
X1654
Y13032
X1654Y13346
X1969Y12719
X2283
Y12402
X2598
Y12087
Y11772
X2283
Y12087
X1969
Y11772
X1654
Y11457
X1969
X2283
X2598
X3228
X4173
X4803Y11772
X5118Y11457
X5433
X5748
X6063
X5433Y12717
X5116Y12717
X3248Y12500
X1969Y12402
X1673
X1339
X1024Y13032
X674Y12083
X207Y12106
X709Y11457
X1026
X1339
Y14606
X432Y17618
X2924Y17224
X4626Y17717
X5512
X5413Y18012
X5148Y18140
X5507Y18411
X5709Y18307
X6004
X6102Y17913
X6299Y18110
X6693Y17717
X6896Y17615
X7087Y17792
X7145Y18012
X7677Y18110
X7579Y18406
X7776Y18701
X7382Y18917
X7971Y19291
X7914Y19743
X6423Y18827
X6467Y17421
X6791Y17126
X7579Y17618
X5906
X7971Y14468
X7382Y13224
X7914Y12657
X6427Y23819
X6594Y24902
X6791Y26181
X1181
X1673Y22638
X2854Y22539
X3071Y21654
X2638
X3504
X3839Y21555
X1575Y20768
X3051Y24016
T02
X7677Y20850
Y21850
Y22850
Y23850
T03
X2264Y2264
Y3051
Y3839
Y4626
X6201
Y3839
Y3051
Y2264
T04
X1193Y1976
X3335
X5130
X7272
Y4732
X5130
X3335
X1193
T05
X10335Y3445
X-2264Y2559
Y26280
X10532Y25197
T06
X0Y2165
Y2461
Y2756
Y3051
X8268
Y2756
Y2461
Y2165
Y25689
Y25984
Y26280
Y26575
X0
Y26280
Y25984
Y25689
T07
X2874Y25728
X4606
T08
X856Y3593
X7161Y7961
X7469Y26511
X746Y24710
M30
