G04*
G04 #@! TF.GenerationSoftware,Altium Limited,Altium Designer,21.8.1 (53)*
G04*
G04 Layer_Color=8388736*
%FSLAX25Y25*%
%MOIN*%
G70*
G04*
G04 #@! TF.SameCoordinates,8CF8EC62-83D0-4302-AE6A-B584A4672486*
G04*
G04*
G04 #@! TF.FilePolarity,Negative*
G04*
G01*
G75*
%ADD40R,0.02480X0.01496*%
%ADD41R,0.01496X0.02480*%
%ADD42R,0.03543X0.06102*%
%ADD43R,0.06496X0.06890*%
G04:AMPARAMS|DCode=44|XSize=64.96mil|YSize=68.9mil|CornerRadius=17.72mil|HoleSize=0mil|Usage=FLASHONLY|Rotation=180.000|XOffset=0mil|YOffset=0mil|HoleType=Round|Shape=RoundedRectangle|*
%AMROUNDEDRECTD44*
21,1,0.06496,0.03347,0,0,180.0*
21,1,0.02953,0.06890,0,0,180.0*
1,1,0.03543,-0.01476,0.01673*
1,1,0.03543,0.01476,0.01673*
1,1,0.03543,0.01476,-0.01673*
1,1,0.03543,-0.01476,-0.01673*
%
%ADD44ROUNDEDRECTD44*%
%ADD45R,0.01575X0.03740*%
%ADD46R,0.13189X0.01890*%
%ADD47R,0.05315X0.08071*%
%ADD48R,0.04528X0.01968*%
%ADD49C,0.01732*%
%ADD50C,0.04528*%
%ADD51R,0.02953X0.03543*%
%ADD52R,0.03543X0.02953*%
%ADD53R,0.02953X0.07677*%
G04:AMPARAMS|DCode=54|XSize=84.65mil|YSize=104.33mil|CornerRadius=22.64mil|HoleSize=0mil|Usage=FLASHONLY|Rotation=0.000|XOffset=0mil|YOffset=0mil|HoleType=Round|Shape=RoundedRectangle|*
%AMROUNDEDRECTD54*
21,1,0.08465,0.05906,0,0,0.0*
21,1,0.03937,0.10433,0,0,0.0*
1,1,0.04528,0.01968,-0.02953*
1,1,0.04528,-0.01968,-0.02953*
1,1,0.04528,-0.01968,0.02953*
1,1,0.04528,0.01968,0.02953*
%
%ADD54ROUNDEDRECTD54*%
%ADD55R,0.02559X0.09449*%
%ADD56R,0.04528X0.04134*%
%ADD57R,0.03110X0.02953*%
%ADD58R,0.06102X0.05709*%
%ADD59R,0.11221X0.05709*%
%ADD60R,0.02953X0.03110*%
%ADD61R,0.05709X0.06102*%
%ADD62C,0.06496*%
%ADD63C,0.02559*%
%ADD64C,0.06299*%
%ADD65R,0.06496X0.06496*%
%ADD66C,0.07284*%
%ADD67C,0.08465*%
%ADD68C,0.04134*%
D40*
X39764Y192913D02*
D03*
Y190945D02*
D03*
Y188976D02*
D03*
Y187008D02*
D03*
X29134D02*
D03*
Y188976D02*
D03*
Y190945D02*
D03*
Y192913D02*
D03*
D41*
X37402Y184646D02*
D03*
X35433D02*
D03*
X33465D02*
D03*
X31496D02*
D03*
Y195276D02*
D03*
X33465D02*
D03*
X35433D02*
D03*
X37402D02*
D03*
D42*
X21752Y94488D02*
D03*
X27461D02*
D03*
D43*
X49803Y94567D02*
D03*
Y84567D02*
D03*
X58465Y94567D02*
D03*
D44*
Y84567D02*
D03*
D45*
X22638Y223484D02*
D03*
X20669D02*
D03*
X18701D02*
D03*
X16732D02*
D03*
X14764D02*
D03*
X12795D02*
D03*
X10827D02*
D03*
X8858D02*
D03*
X22638Y217461D02*
D03*
X20669D02*
D03*
X18701D02*
D03*
X16732D02*
D03*
X14764D02*
D03*
X12795D02*
D03*
X10827D02*
D03*
X8858D02*
D03*
D46*
X15748Y220472D02*
D03*
D47*
X29055Y65945D02*
D03*
X37402Y230315D02*
D03*
X66929Y65945D02*
D03*
D48*
X23661Y69685D02*
D03*
Y65945D02*
D03*
Y62205D02*
D03*
X34449Y69685D02*
D03*
Y65945D02*
D03*
Y62205D02*
D03*
X32008Y234055D02*
D03*
Y230315D02*
D03*
Y226575D02*
D03*
X42795Y234055D02*
D03*
Y230315D02*
D03*
Y226575D02*
D03*
X61535Y69685D02*
D03*
Y65945D02*
D03*
Y62205D02*
D03*
X72323Y69685D02*
D03*
Y65945D02*
D03*
Y62205D02*
D03*
D49*
X8661Y109843D02*
D03*
Y112992D02*
D03*
Y116142D02*
D03*
Y119291D02*
D03*
Y122441D02*
D03*
Y128740D02*
D03*
Y131890D02*
D03*
Y135039D02*
D03*
Y138189D02*
D03*
Y141339D02*
D03*
Y147638D02*
D03*
Y150787D02*
D03*
Y153937D02*
D03*
Y157087D02*
D03*
Y160236D02*
D03*
X11811Y109843D02*
D03*
Y112992D02*
D03*
Y116142D02*
D03*
Y119291D02*
D03*
Y122441D02*
D03*
Y128740D02*
D03*
Y131890D02*
D03*
Y135039D02*
D03*
Y138189D02*
D03*
Y141339D02*
D03*
Y147638D02*
D03*
Y150787D02*
D03*
Y153937D02*
D03*
Y157087D02*
D03*
Y160236D02*
D03*
X14961Y109843D02*
D03*
Y112992D02*
D03*
Y116142D02*
D03*
Y119291D02*
D03*
Y122441D02*
D03*
Y125591D02*
D03*
Y128740D02*
D03*
Y131890D02*
D03*
Y135039D02*
D03*
Y138189D02*
D03*
Y141339D02*
D03*
Y144488D02*
D03*
Y147638D02*
D03*
Y150787D02*
D03*
Y153937D02*
D03*
Y157087D02*
D03*
Y160236D02*
D03*
X18110Y109843D02*
D03*
Y112992D02*
D03*
Y116142D02*
D03*
Y119291D02*
D03*
Y122441D02*
D03*
Y125591D02*
D03*
Y128740D02*
D03*
Y131890D02*
D03*
Y135039D02*
D03*
Y138189D02*
D03*
Y141339D02*
D03*
Y144488D02*
D03*
Y147638D02*
D03*
Y150787D02*
D03*
Y153937D02*
D03*
Y157087D02*
D03*
Y160236D02*
D03*
X21260Y109843D02*
D03*
Y112992D02*
D03*
Y116142D02*
D03*
Y119291D02*
D03*
Y122441D02*
D03*
Y125591D02*
D03*
Y128740D02*
D03*
Y141339D02*
D03*
Y144488D02*
D03*
Y147638D02*
D03*
Y150787D02*
D03*
Y153937D02*
D03*
Y157087D02*
D03*
Y160236D02*
D03*
X24409Y116142D02*
D03*
Y119291D02*
D03*
Y122441D02*
D03*
Y125591D02*
D03*
Y128740D02*
D03*
Y141339D02*
D03*
Y144488D02*
D03*
Y147638D02*
D03*
Y150787D02*
D03*
Y153937D02*
D03*
X27559Y109843D02*
D03*
Y112992D02*
D03*
Y116142D02*
D03*
Y119291D02*
D03*
Y122441D02*
D03*
Y125591D02*
D03*
Y144488D02*
D03*
Y147638D02*
D03*
Y150787D02*
D03*
Y153937D02*
D03*
Y157087D02*
D03*
Y160236D02*
D03*
X30709Y109843D02*
D03*
Y112992D02*
D03*
Y116142D02*
D03*
Y119291D02*
D03*
Y131890D02*
D03*
Y135039D02*
D03*
Y138189D02*
D03*
Y150787D02*
D03*
Y153937D02*
D03*
Y157087D02*
D03*
Y160236D02*
D03*
X33858Y109843D02*
D03*
Y112992D02*
D03*
Y116142D02*
D03*
Y119291D02*
D03*
Y131890D02*
D03*
Y135039D02*
D03*
Y138189D02*
D03*
Y150787D02*
D03*
Y153937D02*
D03*
Y157087D02*
D03*
Y160236D02*
D03*
X37008Y109843D02*
D03*
Y112992D02*
D03*
Y116142D02*
D03*
Y119291D02*
D03*
Y131890D02*
D03*
Y135039D02*
D03*
Y138189D02*
D03*
Y150787D02*
D03*
Y153937D02*
D03*
Y157087D02*
D03*
Y160236D02*
D03*
X40157Y109843D02*
D03*
Y112992D02*
D03*
Y116142D02*
D03*
Y119291D02*
D03*
Y122441D02*
D03*
Y125591D02*
D03*
Y144488D02*
D03*
Y147638D02*
D03*
Y150787D02*
D03*
Y153937D02*
D03*
Y157087D02*
D03*
Y160236D02*
D03*
X43307Y116142D02*
D03*
Y119291D02*
D03*
Y122441D02*
D03*
Y125591D02*
D03*
Y128740D02*
D03*
Y141339D02*
D03*
Y144488D02*
D03*
Y147638D02*
D03*
Y150787D02*
D03*
Y153937D02*
D03*
X46457Y109843D02*
D03*
Y112992D02*
D03*
Y116142D02*
D03*
Y119291D02*
D03*
Y122441D02*
D03*
Y125591D02*
D03*
Y128740D02*
D03*
Y141339D02*
D03*
Y144488D02*
D03*
Y147638D02*
D03*
Y150787D02*
D03*
Y153937D02*
D03*
Y157087D02*
D03*
Y160236D02*
D03*
X49606Y109843D02*
D03*
Y112992D02*
D03*
Y116142D02*
D03*
Y119291D02*
D03*
Y122441D02*
D03*
Y125591D02*
D03*
Y128740D02*
D03*
Y131890D02*
D03*
Y135039D02*
D03*
Y138189D02*
D03*
Y141339D02*
D03*
Y144488D02*
D03*
Y147638D02*
D03*
Y150787D02*
D03*
Y153937D02*
D03*
Y157087D02*
D03*
Y160236D02*
D03*
X52756Y109843D02*
D03*
Y112992D02*
D03*
Y116142D02*
D03*
Y119291D02*
D03*
Y122441D02*
D03*
Y125591D02*
D03*
Y128740D02*
D03*
Y131890D02*
D03*
Y135039D02*
D03*
Y138189D02*
D03*
Y141339D02*
D03*
Y144488D02*
D03*
Y147638D02*
D03*
Y150787D02*
D03*
Y153937D02*
D03*
Y157087D02*
D03*
Y160236D02*
D03*
X55905Y109843D02*
D03*
Y112992D02*
D03*
Y116142D02*
D03*
Y119291D02*
D03*
Y122441D02*
D03*
Y128740D02*
D03*
Y131890D02*
D03*
Y135039D02*
D03*
Y138189D02*
D03*
Y141339D02*
D03*
Y147638D02*
D03*
Y150787D02*
D03*
Y153937D02*
D03*
Y157087D02*
D03*
Y160236D02*
D03*
X59055Y109843D02*
D03*
Y112992D02*
D03*
Y116142D02*
D03*
Y119291D02*
D03*
Y122441D02*
D03*
Y128740D02*
D03*
Y131890D02*
D03*
Y135039D02*
D03*
Y138189D02*
D03*
Y141339D02*
D03*
Y147638D02*
D03*
Y150787D02*
D03*
Y153937D02*
D03*
Y157087D02*
D03*
Y160236D02*
D03*
D50*
X7874Y173228D02*
D03*
D51*
X59055Y168012D02*
D03*
Y172539D02*
D03*
X55118Y166043D02*
D03*
Y170571D02*
D03*
X66929Y215256D02*
D03*
Y219783D02*
D03*
Y235531D02*
D03*
Y231004D02*
D03*
X61024Y218799D02*
D03*
Y214272D02*
D03*
X17717Y169980D02*
D03*
Y174508D02*
D03*
X22638Y171949D02*
D03*
Y176476D02*
D03*
X5906Y95177D02*
D03*
Y99705D02*
D03*
X66929Y95768D02*
D03*
Y91240D02*
D03*
X42323Y97441D02*
D03*
Y92913D02*
D03*
X65945Y113484D02*
D03*
Y108957D02*
D03*
Y124311D02*
D03*
Y119783D02*
D03*
Y140453D02*
D03*
Y144980D02*
D03*
X36417Y173228D02*
D03*
Y177756D02*
D03*
X41339Y172933D02*
D03*
Y177461D02*
D03*
D52*
X69193Y168307D02*
D03*
X64665D02*
D03*
X19696Y103746D02*
D03*
X15169D02*
D03*
X29823Y103347D02*
D03*
X25295D02*
D03*
X26870Y87598D02*
D03*
X22343D02*
D03*
X51476Y184055D02*
D03*
X46949D02*
D03*
D53*
X49016Y199803D02*
D03*
X55315D02*
D03*
D54*
X19882Y247122D02*
D03*
Y268579D02*
D03*
X54921D02*
D03*
Y247122D02*
D03*
D55*
X31102Y246748D02*
D03*
X34252D02*
D03*
X43701D02*
D03*
X40551D02*
D03*
X37402D02*
D03*
D56*
X55118Y69587D02*
D03*
Y64272D02*
D03*
X63976Y258563D02*
D03*
Y253248D02*
D03*
D57*
X70866Y122795D02*
D03*
Y119331D02*
D03*
X75787Y114409D02*
D03*
Y117874D02*
D03*
X70866Y112953D02*
D03*
Y109488D02*
D03*
X9843Y67677D02*
D03*
Y64213D02*
D03*
X66929Y163898D02*
D03*
Y160433D02*
D03*
X16732Y95236D02*
D03*
Y91772D02*
D03*
X32480Y96969D02*
D03*
Y93504D02*
D03*
X42323Y81929D02*
D03*
Y85394D02*
D03*
X65945Y134606D02*
D03*
Y131142D02*
D03*
X31496Y176929D02*
D03*
Y173465D02*
D03*
X26575Y176929D02*
D03*
Y173465D02*
D03*
D58*
X15748Y62795D02*
D03*
Y69095D02*
D03*
X29528Y205512D02*
D03*
Y211811D02*
D03*
X38386Y205512D02*
D03*
Y211811D02*
D03*
D59*
X45276Y57480D02*
D03*
Y68504D02*
D03*
D60*
X49449Y224410D02*
D03*
X52913D02*
D03*
X61772Y104331D02*
D03*
X58307D02*
D03*
X46496Y188976D02*
D03*
X49961D02*
D03*
X28307Y181102D02*
D03*
X24843D02*
D03*
D61*
X19882Y188976D02*
D03*
X13583D02*
D03*
X63779Y192913D02*
D03*
X70079D02*
D03*
X63779Y200787D02*
D03*
X70079D02*
D03*
D62*
X71612Y79605D02*
D03*
X8563Y35925D02*
D03*
X7465Y247100D02*
D03*
X76772Y208504D02*
D03*
Y218504D02*
D03*
Y228504D02*
D03*
D63*
X0Y21654D02*
D03*
Y24606D02*
D03*
Y27559D02*
D03*
Y30512D02*
D03*
X82677Y21654D02*
D03*
Y24606D02*
D03*
Y27559D02*
D03*
Y30512D02*
D03*
Y265748D02*
D03*
Y262795D02*
D03*
Y259842D02*
D03*
Y256890D02*
D03*
X0D02*
D03*
Y259842D02*
D03*
Y262795D02*
D03*
Y265748D02*
D03*
D64*
X-22638Y25591D02*
D03*
X105315Y251969D02*
D03*
X103347Y34449D02*
D03*
X-22638Y262795D02*
D03*
D65*
X76772Y238504D02*
D03*
D66*
X22638Y22638D02*
D03*
Y38386D02*
D03*
Y30512D02*
D03*
Y46260D02*
D03*
X62008Y22638D02*
D03*
Y38386D02*
D03*
Y30512D02*
D03*
Y46260D02*
D03*
D67*
X33346Y19764D02*
D03*
X11929D02*
D03*
Y47323D02*
D03*
X33346D02*
D03*
X72716Y19764D02*
D03*
X51299D02*
D03*
Y47323D02*
D03*
X72716D02*
D03*
D68*
X28740Y257279D02*
D03*
X46063D02*
D03*
M02*
