G04*
G04 #@! TF.GenerationSoftware,Altium Limited,Altium Designer,21.8.1 (53)*
G04*
G04 Layer_Physical_Order=4*
G04 Layer_Color=36540*
%FSLAX25Y25*%
%MOIN*%
G70*
G04*
G04 #@! TF.SameCoordinates,EB042402-48BD-493C-904A-A6360FF8A717*
G04*
G04*
G04 #@! TF.FilePolarity,Positive*
G04*
G01*
G75*
%ADD69C,0.00350*%
%ADD70C,0.00400*%
%ADD71C,0.00402*%
%ADD74C,0.05906*%
%ADD80C,0.01772*%
D69*
X27559Y175251D02*
Y175604D01*
X28521Y174289D02*
X47320D01*
X27559Y175251D02*
X28521Y174289D01*
X47320D02*
X49213Y176181D01*
X4320D02*
X26983D01*
X27559Y175604D01*
X40692Y167122D02*
X46457D01*
X39538Y168275D02*
X40692Y167122D01*
X35351Y163185D02*
X36417Y162119D01*
X31655Y163185D02*
X35351D01*
X25792Y169291D02*
X26447Y169947D01*
X30436Y168462D02*
X30512Y168386D01*
X31571Y169947D02*
X32198Y169320D01*
X21660Y168462D02*
X30436D01*
X26447Y169947D02*
X31571D01*
X17717Y178150D02*
X45249D01*
X30353Y163372D02*
X32305Y161419D01*
X22458Y180118D02*
X22992Y179584D01*
X11819Y180118D02*
X22458D01*
X33838Y190536D02*
X41282D01*
X78685Y193883D02*
X79654Y192913D01*
X79710D01*
X41282Y190536D02*
X44629Y193883D01*
X78685D01*
X72263Y144685D02*
X79710D01*
X16929Y149606D02*
X19685Y152362D01*
X2953Y152559D02*
X3136Y152376D01*
X14342D01*
X64769Y136614D02*
X67913D01*
X62261D02*
X62641Y136234D01*
X64390D02*
X64769Y136614D01*
X67913D02*
X69962Y138664D01*
X62126Y136614D02*
X62261D01*
X62641Y136234D02*
X64390D01*
X58099Y138203D02*
X58507Y137795D01*
X55892Y138203D02*
X58099D01*
X58507Y137795D02*
X63287D01*
X54331Y139764D02*
X55892Y138203D01*
X60630Y139582D02*
X62506D01*
X61612Y141143D02*
X61841Y141372D01*
Y141623D01*
X62506Y139582D02*
X62731Y139356D01*
X64848D01*
X66240Y140748D01*
X58859Y141143D02*
X61612D01*
X66240Y140748D02*
X70866D01*
X12795Y193898D02*
X32684D01*
X34485Y192097D01*
X10258Y169291D02*
X13368Y166182D01*
X15159D02*
X17969Y163372D01*
X19224D01*
X13368Y166182D02*
X15159D01*
X61085Y145052D02*
X71896D01*
X55609Y144192D02*
X60225D01*
X54331Y142913D02*
X55609Y144192D01*
X60225D02*
X61085Y145052D01*
X53333Y131313D02*
X72753D01*
X73683Y132243D01*
X51181Y133465D02*
X53333Y131313D01*
X73683Y132243D02*
X73819D01*
X71896Y145052D02*
X72263Y144685D01*
X69855Y179134D02*
X70866Y178123D01*
Y177922D02*
Y178123D01*
X74272Y183363D02*
X76533Y181102D01*
X76772D01*
X75787Y176181D02*
Y179373D01*
X72497Y182663D02*
X75787Y179373D01*
X62346Y182663D02*
X72497D01*
X68576Y176149D02*
X68961D01*
X65489Y175604D02*
X68031D01*
X61024Y179134D02*
X69855D01*
X68031Y175604D02*
X68576Y176149D01*
X60785Y177165D02*
X66929D01*
X54331Y149213D02*
X56285Y151167D01*
X61670D01*
X62247Y150591D02*
X66929D01*
X61670Y151167D02*
X62247Y150591D01*
X22517Y164494D02*
X30347D01*
X21316Y165695D02*
X22517Y164494D01*
X25338Y163372D02*
X30353D01*
X20285Y169291D02*
X25792D01*
X24539Y162573D02*
X25338Y163372D01*
X20283Y169293D02*
X20285Y169291D01*
X19224Y163372D02*
X20023Y162573D01*
X20930Y167732D02*
X21660Y168462D01*
X21033Y165967D02*
X21305Y165695D01*
X14354Y167732D02*
X20930D01*
X12603Y169484D02*
X14354Y167732D01*
X18088Y165967D02*
X21033D01*
X20023Y162573D02*
X24539D01*
X21305Y165695D02*
X21316D01*
X30347Y164494D02*
X31655Y163185D01*
X22638Y200787D02*
X38386D01*
X56440Y181510D02*
X61193D01*
X56271Y181679D02*
X56440Y181510D01*
X53487Y181679D02*
X56271D01*
X53206Y181398D02*
X53487Y181679D01*
X51476Y181398D02*
X53206D01*
X60039Y183071D02*
X61763D01*
X61193Y181510D02*
X62346Y182663D01*
X62056Y183363D02*
X74272D01*
X61763Y183071D02*
X62056Y183363D01*
X58144Y177742D02*
X60208D01*
X59055Y176181D02*
X64912D01*
X60208Y177742D02*
X60785Y177165D01*
X57567D02*
X58144Y177742D01*
X55118Y177165D02*
X57567D01*
X53388Y174213D02*
X64673D01*
X48645Y178956D02*
X53388Y174213D01*
X59055Y163386D02*
X63976D01*
X57480Y161811D02*
X59055Y163386D01*
X57480Y139764D02*
X58859Y141143D01*
X33538Y190836D02*
X33838Y190536D01*
X32711Y190836D02*
X33538D01*
X32440Y191108D02*
X32711Y190836D01*
X5591Y153937D02*
X14913D01*
X16444Y155468D01*
X14342Y152376D02*
X15873Y153907D01*
X4921Y149606D02*
X16929D01*
X15873Y153907D02*
X18565D01*
X21274Y153923D02*
X22835Y152362D01*
X18581Y153923D02*
X21274D01*
X16444Y155468D02*
X16535D01*
X18565Y153907D02*
X18581Y153923D01*
X4921Y227362D02*
X6063Y228504D01*
X76772D01*
X48290Y178956D02*
X48645D01*
X45249Y178150D02*
X46233Y177165D01*
X46260D01*
X64912Y176181D02*
X65489Y175604D01*
X32198Y169320D02*
X32583D01*
X22992Y179584D02*
X33247D01*
X33931Y180268D01*
X34315D01*
X41339Y169291D02*
X42851Y170803D01*
X39307Y168275D02*
X39538D01*
X42851Y170803D02*
X46716D01*
X49213Y168307D01*
D70*
X31956Y163910D02*
X37657D01*
X38114Y164367D01*
X15748Y184835D02*
X17599Y186686D01*
X54331Y127165D02*
X59222D01*
X59391Y127334D01*
X76406D01*
X77175Y126565D01*
X79144D01*
X41099Y101617D02*
X42323Y100394D01*
X19838Y101979D02*
X30287D01*
X30650Y101617D01*
X41099D01*
X19675Y101817D02*
X19838Y101979D01*
X9896Y101817D02*
X19675D01*
X57480Y136614D02*
X62126D01*
X63709Y143491D02*
X71249D01*
X61841Y141623D02*
X63709Y143491D01*
X65205Y187008D02*
X77756D01*
X64883Y186686D02*
X65205Y187008D01*
X17599Y186686D02*
X64883D01*
X17845Y187992D02*
X48228D01*
X52165Y191929D01*
X17243Y187391D02*
X17845Y187992D01*
X6890Y105315D02*
X12676D01*
X15629Y108268D01*
X18152D01*
X2067Y100394D02*
X5816Y96645D01*
X4921Y102567D02*
X19365D01*
X42715D02*
X65740D01*
X19365D02*
X19527Y102729D01*
X8472Y100394D02*
X9896Y101817D01*
X42552Y102729D02*
X42715Y102567D01*
X19527Y102729D02*
X42552D01*
X65740Y102567D02*
X66929Y101378D01*
X19685Y106313D02*
X21783Y104215D01*
X49132D01*
X17976Y100011D02*
X24419D01*
X26289Y98141D01*
X26575D01*
X14609Y96645D02*
X17976Y100011D01*
X18121Y160225D02*
X19685Y158661D01*
X70051Y149005D02*
X70653Y149606D01*
X66045Y149005D02*
X70051D01*
X65444Y149606D02*
X66045Y149005D01*
X61024Y149606D02*
X65444D01*
X62992Y181102D02*
X70332D01*
X71316Y180118D01*
X71449D01*
X70653Y149606D02*
X74803D01*
X75416Y184055D02*
X75787D01*
X74815Y184657D02*
X75416Y184055D01*
X56430Y184657D02*
X74815D01*
X15879Y160225D02*
X18121D01*
X6826Y187961D02*
X7198D01*
X7767Y187391D01*
X17243D01*
X55065Y184108D02*
X55328Y184370D01*
X56143D01*
X56430Y184657D01*
X25098Y89075D02*
X72342D01*
X76772Y93504D01*
X20669Y84646D02*
X25098Y89075D01*
X2428Y97691D02*
X4225Y95894D01*
X5816Y96645D02*
X14609D01*
X21382Y92520D02*
X35433D01*
X19376Y90514D02*
X21382Y92520D01*
X32109Y125000D02*
X32480D01*
X16732Y124016D02*
X18318Y125602D01*
X31508D01*
X32109Y125000D01*
X7023Y218504D02*
X76772D01*
X6038Y217520D02*
X7023Y218504D01*
X5906Y217520D02*
X6038D01*
X4225Y95894D02*
X16170D01*
X18701Y98425D01*
X15856Y160247D02*
X15879Y160225D01*
X12972Y158661D02*
X14580Y157053D01*
X18143D01*
X19685Y155512D01*
X7087Y158465D02*
X8869Y160247D01*
X15856D01*
X38114Y164367D02*
X38486D01*
X29528Y166339D02*
X31956Y163910D01*
D71*
X50763Y165535D02*
X52551Y167323D01*
X39803Y165535D02*
X50763D01*
X38256Y167083D02*
X39803Y165535D01*
X35383Y167083D02*
X38256D01*
X34639Y166339D02*
X35383Y167083D01*
X32480Y166339D02*
X34639D01*
X33725Y197835D02*
X34634Y196925D01*
X56177D02*
X58071Y198819D01*
X15748Y197835D02*
X33725D01*
X34634Y196925D02*
X56177D01*
D74*
X76772Y218504D02*
D03*
Y228504D02*
D03*
D80*
X52551Y167323D02*
D03*
X32480Y166339D02*
D03*
X30512Y168386D02*
D03*
X58071Y198819D02*
D03*
X15748Y197835D02*
D03*
X17717Y178150D02*
D03*
X32305Y161419D02*
D03*
X15748Y184835D02*
D03*
X79710Y192913D02*
D03*
Y144685D02*
D03*
X79144Y126565D02*
D03*
X4921Y149606D02*
D03*
X2953Y152559D02*
D03*
X63287Y137795D02*
D03*
X6890Y105315D02*
D03*
X2067Y100394D02*
D03*
X4921Y102567D02*
D03*
X18152Y108268D02*
D03*
X26575Y98141D02*
D03*
X19685Y158661D02*
D03*
X60630Y139582D02*
D03*
X71449Y180118D02*
D03*
X71249Y143491D02*
D03*
X70866Y177922D02*
D03*
X73819Y132243D02*
D03*
X69962Y138664D02*
D03*
X74803Y149606D02*
D03*
X76772Y181102D02*
D03*
X75787Y184055D02*
D03*
X66929Y177165D02*
D03*
X68961Y176149D02*
D03*
X75787Y176181D02*
D03*
X61024Y149606D02*
D03*
X66929Y150591D02*
D03*
X70866Y140748D02*
D03*
X20283Y169293D02*
D03*
X18088Y165967D02*
D03*
X6826Y187961D02*
D03*
X61024Y179134D02*
D03*
X59055Y176181D02*
D03*
X62992Y181102D02*
D03*
X55118Y177165D02*
D03*
X64673Y174213D02*
D03*
X51476Y181398D02*
D03*
X63976Y163386D02*
D03*
X54331Y127165D02*
D03*
X38386Y200787D02*
D03*
X55065Y184108D02*
D03*
X32440Y191108D02*
D03*
X34485Y192097D02*
D03*
X77756Y187008D02*
D03*
X76772Y93504D02*
D03*
X2428Y97691D02*
D03*
X20669Y84646D02*
D03*
X19376Y90514D02*
D03*
X35433Y92520D02*
D03*
X19685Y106313D02*
D03*
X49132Y104215D02*
D03*
X32480Y125000D02*
D03*
X16732Y124016D02*
D03*
X18701Y98425D02*
D03*
X8472Y100394D02*
D03*
X42323D02*
D03*
X66929Y101378D02*
D03*
X5591Y153937D02*
D03*
X16535Y155468D02*
D03*
X7087Y158465D02*
D03*
X4320Y176181D02*
D03*
X5906Y217520D02*
D03*
X4921Y227362D02*
D03*
X22638Y200787D02*
D03*
X36417Y162119D02*
D03*
X38486Y164367D02*
D03*
X48290Y178956D02*
D03*
X29528Y166339D02*
D03*
X32583Y169320D02*
D03*
X12795Y193898D02*
D03*
X34315Y180268D02*
D03*
X11819Y180118D02*
D03*
X10258Y169291D02*
D03*
X60039Y183071D02*
D03*
X52165Y191929D02*
D03*
X46260Y177165D02*
D03*
X41339Y169291D02*
D03*
X46457Y167122D02*
D03*
X12972Y158661D02*
D03*
X12603Y169484D02*
D03*
X39307Y168275D02*
D03*
X49213Y168307D02*
D03*
Y176181D02*
D03*
X51181Y133465D02*
D03*
X22835Y152362D02*
D03*
X54331Y139764D02*
D03*
Y142913D02*
D03*
X19685Y152362D02*
D03*
X57480Y136614D02*
D03*
Y139764D02*
D03*
X54331Y149213D02*
D03*
X19685Y155512D02*
D03*
X57480Y161811D02*
D03*
M02*
