G04*
G04 #@! TF.GenerationSoftware,Altium Limited,Altium Designer,21.8.1 (53)*
G04*
G04 Layer_Color=255*
%FSLAX25Y25*%
%MOIN*%
G70*
G04*
G04 #@! TF.SameCoordinates,EB042402-48BD-493C-904A-A6360FF8A717*
G04*
G04*
G04 #@! TF.FilePolarity,Positive*
G04*
G01*
G75*
%ADD13C,0.01000*%
D13*
X-13780Y35433D02*
X-13645Y34414D01*
X-13252Y33465D01*
X-12626Y32649D01*
X-11811Y32024D01*
X-10862Y31630D01*
X-9843Y31496D01*
X-3937Y31496D02*
X-2918Y31630D01*
X-1969Y32024D01*
X-1153Y32649D01*
X-527Y33465D01*
X-134Y34414D01*
X0Y35433D01*
X0Y19685D02*
X67Y18657D01*
X268Y17647D01*
X599Y16672D01*
X1055Y15748D01*
X1627Y14892D01*
X2306Y14117D01*
X3081Y13438D01*
X3937Y12866D01*
X4861Y12410D01*
X5836Y12079D01*
X6846Y11878D01*
X7874Y11811D01*
X-9843Y255906D02*
X-10862Y255771D01*
X-11811Y255378D01*
X-12626Y254752D01*
X-13252Y253937D01*
X-13645Y252988D01*
X-13780Y251969D01*
X7874Y275590D02*
X6846Y275523D01*
X5836Y275322D01*
X4861Y274991D01*
X3937Y274536D01*
X3081Y273963D01*
X2306Y273284D01*
X1627Y272510D01*
X1055Y271654D01*
X599Y270730D01*
X268Y269755D01*
X67Y268744D01*
X0Y267717D01*
X86614Y255906D02*
X85595Y255771D01*
X84646Y255378D01*
X83830Y254752D01*
X83205Y253937D01*
X82811Y252988D01*
X82677Y251969D01*
X96457Y251969D02*
X96323Y252988D01*
X95929Y253937D01*
X95304Y254752D01*
X94488Y255378D01*
X93539Y255771D01*
X92520Y255906D01*
X0Y251969D02*
X-134Y252988D01*
X-527Y253937D01*
X-1153Y254752D01*
X-1969Y255378D01*
X-2918Y255771D01*
X-3937Y255906D01*
X82677Y267717D02*
X82610Y268744D01*
X82409Y269755D01*
X82078Y270730D01*
X81622Y271654D01*
X81050Y272510D01*
X80371Y273284D01*
X79597Y273963D01*
X78740Y274536D01*
X77816Y274991D01*
X76841Y275322D01*
X75831Y275523D01*
X74803Y275590D01*
X74803Y11811D02*
X75831Y11878D01*
X76841Y12079D01*
X77816Y12410D01*
X78740Y12866D01*
X79597Y13438D01*
X80371Y14117D01*
X81050Y14892D01*
X81622Y15748D01*
X82078Y16672D01*
X82409Y17647D01*
X82610Y18657D01*
X82677Y19685D01*
X82677Y35433D02*
X82811Y34414D01*
X83205Y33465D01*
X83830Y32649D01*
X84646Y32024D01*
X85595Y31630D01*
X86614Y31496D01*
X92520Y31496D02*
X93539Y31630D01*
X94488Y32024D01*
X95304Y32649D01*
X95929Y33465D01*
X96323Y34414D01*
X96457Y35433D01*
X-30512Y11811D02*
Y275590D01*
X-13780Y11811D02*
Y19685D01*
X-30512Y11811D02*
X-13780D01*
Y19685D02*
X-13780Y19685D01*
X-0Y251969D02*
X0Y35433D01*
X-9843Y31496D02*
X-3937D01*
X-13780Y251969D02*
X-13780Y35433D01*
X-30512Y275590D02*
X-13780D01*
X7874Y11811D02*
X74803D01*
X-13780Y19685D02*
X0D01*
X82677Y267717D02*
X96457D01*
X-9843Y255906D02*
X-3937D01*
X0Y267717D02*
X0Y267717D01*
X0Y267717D02*
X0D01*
X-13780D02*
Y275590D01*
Y267717D02*
X0D01*
X86614Y255906D02*
X92520D01*
X7874Y275590D02*
X74803D01*
X96457Y267717D02*
Y275590D01*
Y11811D02*
Y19685D01*
X86614Y31496D02*
X92520D01*
X82677Y19685D02*
X96457D01*
Y11811D02*
X113189D01*
Y275590D01*
X96457Y251969D02*
X96457Y35433D01*
X82677Y251969D02*
X82677Y35433D01*
X96457Y275590D02*
X113189D01*
X-8951Y151652D02*
X-9951Y150653D01*
Y148653D01*
X-8951Y147653D01*
X-4953D01*
X-3953Y148653D01*
Y150653D01*
X-4953Y151652D01*
X-9951Y153652D02*
X-4953D01*
X-3953Y154651D01*
Y156651D01*
X-4953Y157650D01*
X-9951D01*
Y159650D02*
Y163648D01*
Y161649D01*
X-3953D01*
X-9951Y168647D02*
Y166647D01*
X-8951Y165648D01*
X-4953D01*
X-3953Y166647D01*
Y168647D01*
X-4953Y169646D01*
X-8951D01*
X-9951Y168647D01*
Y171646D02*
X-4953D01*
X-3953Y172645D01*
Y174645D01*
X-4953Y175645D01*
X-9951D01*
Y177644D02*
Y181642D01*
Y179643D01*
X-3953D01*
X87742Y153983D02*
X86743Y152983D01*
Y150984D01*
X87742Y149984D01*
X91741D01*
X92741Y150984D01*
Y152983D01*
X91741Y153983D01*
X86743Y155982D02*
X91741D01*
X92741Y156982D01*
Y158981D01*
X91741Y159981D01*
X86743D01*
Y161980D02*
Y165979D01*
Y163979D01*
X92741D01*
X86743Y170977D02*
Y168978D01*
X87742Y167978D01*
X91741D01*
X92741Y168978D01*
Y170977D01*
X91741Y171977D01*
X87742D01*
X86743Y170977D01*
Y173976D02*
X91741D01*
X92741Y174976D01*
Y176975D01*
X91741Y177975D01*
X86743D01*
Y179974D02*
Y183973D01*
Y181974D01*
X92741D01*
M02*
