G04*
G04 #@! TF.GenerationSoftware,Altium Limited,Altium Designer,21.8.1 (53)*
G04*
G04 Layer_Physical_Order=3*
G04 Layer_Color=16440176*
%FSLAX25Y25*%
%MOIN*%
G70*
G04*
G04 #@! TF.SameCoordinates,EB042402-48BD-493C-904A-A6360FF8A717*
G04*
G04*
G04 #@! TF.FilePolarity,Positive*
G04*
G01*
G75*
%ADD69C,0.00350*%
%ADD70C,0.00400*%
%ADD80C,0.01772*%
D69*
X27573Y177507D02*
X31127Y181061D01*
X27573Y160270D02*
X29134Y158709D01*
X27573Y160270D02*
Y177507D01*
X66929Y173985D02*
Y177165D01*
X66353Y173409D02*
X66929Y173985D01*
X66353Y151552D02*
X66929Y150975D01*
Y150591D02*
Y150975D01*
X66353Y151552D02*
Y173409D01*
X34066Y166370D02*
X34143Y166447D01*
X34066Y166195D02*
Y166370D01*
X14164Y168837D02*
Y174597D01*
X17717Y178150D01*
X18124Y180695D02*
X19277Y179542D01*
X18124Y180695D02*
Y195062D01*
X18088Y176314D02*
X19277Y177503D01*
Y179542D01*
X18088Y165967D02*
Y176314D01*
X18124Y195062D02*
X18701Y195639D01*
Y213583D01*
X79710Y144685D02*
Y192913D01*
X2953Y152559D02*
Y164925D01*
X20733Y204021D02*
Y212567D01*
X20093Y203381D02*
X20733Y204021D01*
X20093Y190784D02*
X22306Y188571D01*
X20093Y190784D02*
Y203381D01*
X8858Y192137D02*
X10419Y190576D01*
X11119Y186827D02*
Y193367D01*
X10890Y193596D02*
X11119Y193367D01*
X10546Y186254D02*
X11119Y186827D01*
X10546Y183374D02*
X11819Y182101D01*
X10258Y169291D02*
Y182672D01*
X11819Y180118D02*
Y182101D01*
X10419Y187117D02*
Y190576D01*
X9845Y186544D02*
X10419Y187117D01*
X9845Y183084D02*
Y186544D01*
X10546Y183374D02*
Y186254D01*
X9845Y183084D02*
X10258Y182672D01*
X13203Y162016D02*
X16535Y158684D01*
X13203Y167877D02*
X14164Y168837D01*
X13203Y162016D02*
Y167877D01*
X64427Y147801D02*
X64673Y148047D01*
Y155970D01*
X10069Y234252D02*
X13899Y230422D01*
X14896D01*
X26375Y218943D01*
Y216539D02*
Y218943D01*
X69688Y141926D02*
Y145231D01*
X70866Y146409D01*
X69474Y146007D02*
Y175251D01*
X68989Y139685D02*
X69962Y138712D01*
X69688Y141926D02*
X70866Y140748D01*
X69962Y138664D02*
Y138712D01*
X68989Y139685D02*
Y145521D01*
X70866Y146409D02*
Y177922D01*
X68989Y145521D02*
X69474Y146007D01*
X73819Y132243D02*
X77348Y135772D01*
X76772Y177404D02*
Y181102D01*
X68961Y175765D02*
X69474Y175251D01*
X77348Y135772D02*
Y176828D01*
X68961Y175765D02*
Y176149D01*
X76772Y177404D02*
X77348Y176828D01*
X64673Y155970D02*
X65537Y156834D01*
X23723Y160875D02*
X25937Y158661D01*
X24423Y161164D02*
X25352Y160236D01*
X19905Y161017D02*
Y161401D01*
X19108Y162197D02*
Y164780D01*
X23867Y166255D02*
Y182069D01*
X24567Y165965D02*
Y180562D01*
X23867Y182069D02*
X26460Y184662D01*
X24423Y161164D02*
Y165821D01*
X23723Y166111D02*
X23867Y166255D01*
X23723Y160875D02*
Y166111D01*
X19108Y164780D02*
X20283Y165955D01*
X19108Y162197D02*
X19905Y161401D01*
X24567Y180562D02*
X28730Y184725D01*
X22306Y166901D02*
Y188571D01*
X20283Y165955D02*
Y169293D01*
X24423Y165821D02*
X24567Y165965D01*
X50990Y163498D02*
Y176975D01*
X54134Y180118D01*
X64673Y173945D02*
Y174213D01*
X65537Y156834D02*
Y173081D01*
X64673Y173945D02*
X65537Y173081D01*
X50990Y163498D02*
X51181Y163307D01*
X22095Y105937D02*
X22304D01*
X21260Y106772D02*
X22095Y105937D01*
X38386Y200787D02*
X41339Y197835D01*
Y181102D02*
Y197835D01*
X31127Y181061D02*
Y181230D01*
X34485Y182645D02*
Y192097D01*
X32755Y180915D02*
X34485Y182645D01*
X16694Y109369D02*
X18096Y110771D01*
X16591Y109266D02*
X16694Y109369D01*
X21330Y106842D02*
Y112064D01*
X21260Y106772D02*
X21330Y106842D01*
X21274Y112120D02*
X21330Y112064D01*
X26375Y216539D02*
X26378Y216535D01*
X18096Y112978D02*
X19685Y114567D01*
X18096Y110771D02*
Y112978D01*
X19685Y117717D02*
X21274Y116128D01*
Y112120D02*
Y116128D01*
X2759Y165119D02*
Y188783D01*
X4320Y155208D02*
X5591Y153937D01*
X2759Y165119D02*
X2953Y164925D01*
X2759Y188783D02*
X4345Y190368D01*
X16535Y158639D02*
Y158684D01*
X4320Y155208D02*
Y176181D01*
X4921Y218743D02*
Y227362D01*
X4345Y190368D02*
Y218166D01*
X4921Y218743D01*
X34143Y166447D02*
Y174100D01*
X22638Y200787D02*
X22687Y200837D01*
Y213586D02*
X22737Y213636D01*
X22687Y200837D02*
Y213586D01*
X36417Y154528D02*
Y162119D01*
X34315Y179883D02*
X34844Y179355D01*
X32755Y175488D02*
Y180915D01*
X10890Y193596D02*
Y212567D01*
X32283Y152362D02*
X34844Y154922D01*
X32755Y175488D02*
X34143Y174100D01*
X34844Y154922D02*
Y179355D01*
X40369Y162947D02*
X40433Y163011D01*
X40369Y156971D02*
X41732Y155608D01*
X29134Y158661D02*
Y158709D01*
X27545Y157073D02*
Y159308D01*
X25937Y158661D02*
X25984D01*
Y155512D02*
X27545Y157073D01*
X12845Y213586D02*
X12895Y213636D01*
X12845Y193947D02*
Y213586D01*
X12795Y193898D02*
X12845Y193947D01*
X8858Y192137D02*
Y213583D01*
X34315Y179883D02*
Y180268D01*
X40369Y156971D02*
Y162947D01*
X46457Y153937D02*
Y167122D01*
X45643Y168969D02*
Y169243D01*
X41930Y158661D02*
X44782Y161513D01*
Y168108D01*
X45643Y168969D01*
X41732Y155512D02*
Y155608D01*
X36417Y154528D02*
X38583Y152362D01*
X49213Y159744D02*
X49592Y159364D01*
X49213Y159744D02*
Y168307D01*
X26617Y160236D02*
X27545Y159308D01*
X25352Y160236D02*
X26617D01*
X28730Y184725D02*
Y184733D01*
X49592Y150801D02*
X51181Y149213D01*
X49592Y150801D02*
Y159364D01*
X44882Y152362D02*
X46457Y153937D01*
D70*
X32305Y158661D02*
X34066Y160422D01*
Y166195D01*
X79144Y197431D02*
X81296Y195279D01*
Y144028D02*
Y195279D01*
X79144Y141876D02*
X81296Y144028D01*
X79144Y126565D02*
Y141876D01*
Y126565D02*
X79144Y126565D01*
X77756Y182361D02*
X78357Y181759D01*
X78124Y135523D02*
Y158525D01*
X77297Y134695D02*
X78124Y135523D01*
X78357Y158758D02*
Y181759D01*
X78124Y158525D02*
X78357Y158758D01*
X79144Y126565D02*
X79144D01*
X77297Y114548D02*
Y134695D01*
X76772Y114023D02*
X77297Y114548D01*
X5782Y151885D02*
X8672Y154776D01*
Y186209D01*
X2067Y121063D02*
Y148995D01*
X4958Y151885D01*
X5782D01*
X2067Y100394D02*
Y118820D01*
X3335Y101910D02*
Y119028D01*
Y101910D02*
X3653Y101593D01*
Y98915D02*
Y101593D01*
X3335Y119028D02*
X4403Y120096D01*
X4921Y102567D02*
X5153Y102798D01*
X16566Y93323D02*
Y109241D01*
Y93323D02*
X19376Y90514D01*
X8672Y100594D02*
Y125602D01*
X8472Y100394D02*
X8672Y100594D01*
X16566Y109241D02*
X16591Y109266D01*
X12972Y158661D02*
Y159033D01*
X12478Y169359D02*
X12603Y169484D01*
X12478Y159527D02*
X12972Y159033D01*
X12478Y159527D02*
Y169359D01*
X71249Y143491D02*
X72452Y144694D01*
Y179020D01*
X71449Y180023D02*
X72452Y179020D01*
X71449Y180023D02*
Y180118D01*
X74803Y149606D02*
Y152772D01*
X77756Y182361D02*
Y187008D01*
X75787Y183922D02*
Y184055D01*
X74803Y182938D02*
X75787Y183922D01*
X74202Y153374D02*
Y176838D01*
X74803Y177440D01*
Y182938D01*
X74202Y153374D02*
X74803Y152772D01*
X5241Y181614D02*
X5906Y180949D01*
X5241Y199564D02*
X5906Y200229D01*
X6826Y187961D02*
X6921D01*
X8672Y186209D01*
X5241Y181614D02*
Y199564D01*
X62008Y165354D02*
Y170986D01*
X57087Y175907D02*
X62008Y170986D01*
X57087Y175907D02*
Y183071D01*
X76772Y93504D02*
Y114023D01*
X25061Y234252D02*
X36888D01*
X54605Y216535D01*
X29312Y227730D02*
X41245D01*
X47939Y221036D01*
Y220959D02*
X52362Y216535D01*
X47939Y220959D02*
Y221036D01*
X36514Y180176D02*
X37419Y181081D01*
Y181390D01*
X51181Y155512D02*
Y163307D01*
X2067Y118820D02*
X3653Y120406D01*
Y126756D01*
X5153Y102798D02*
Y124823D01*
X2428Y97691D02*
X3653Y98915D01*
X4403Y120096D02*
Y126316D01*
X3653Y126756D02*
X6890Y129993D01*
X5153Y124823D02*
X7152Y126822D01*
X4403Y126316D02*
X6495Y128408D01*
X32480Y125000D02*
X34449Y123031D01*
Y106299D02*
Y123031D01*
X54605Y216535D02*
X56693D01*
X22789Y234252D02*
X29312Y227730D01*
X27790Y226979D02*
X33257D01*
X43701Y216535D01*
X20518Y234252D02*
X27790Y226979D01*
X23471Y225394D02*
X26181D01*
X35039Y216535D01*
X14612Y234252D02*
X23471Y225394D01*
X29795Y216798D02*
X30446D01*
X30709Y216535D01*
X12341Y234252D02*
X29795Y216798D01*
X6495Y128408D02*
X8329D01*
X10236Y130315D01*
X8672Y125602D02*
X10236Y127165D01*
X5906Y171254D02*
Y180949D01*
Y200229D02*
Y217520D01*
X5501Y170849D02*
X5906Y171254D01*
X5501Y160050D02*
Y170849D01*
Y160050D02*
X7087Y158465D01*
X39370Y176025D02*
Y184055D01*
X30720Y157098D02*
Y165147D01*
X38386Y166053D02*
X38486Y164367D01*
X36514Y165496D02*
Y180176D01*
X29528Y166339D02*
X30720Y165147D01*
X40071Y163710D02*
X42924Y166666D01*
X43307Y167049D02*
Y183071D01*
X42924Y166666D02*
X43307Y167049D01*
X40821Y163400D02*
X44057Y166738D01*
X40433Y163011D02*
X40821Y163400D01*
X44057Y179884D02*
X45276Y181102D01*
X39644Y156671D02*
X40146Y156169D01*
X44057Y166738D02*
Y179884D01*
X39644Y163283D02*
X40071Y163710D01*
X29134Y155512D02*
X30720Y157098D01*
X37721Y166718D02*
X38386Y166053D01*
X39644Y156671D02*
Y163283D01*
X40146Y153948D02*
Y156169D01*
Y153948D02*
X41732Y152362D01*
X37721Y166718D02*
Y174376D01*
X39370Y176025D01*
D80*
X17717Y178150D02*
D03*
X79144Y197431D02*
D03*
X79710Y192913D02*
D03*
Y144685D02*
D03*
X79144Y126565D02*
D03*
X2953Y152559D02*
D03*
X2067Y100394D02*
D03*
X4921Y102567D02*
D03*
X64427Y147801D02*
D03*
X71449Y180118D02*
D03*
X71249Y143491D02*
D03*
X70866Y177922D02*
D03*
X73819Y132243D02*
D03*
X69962Y138664D02*
D03*
X74803Y149606D02*
D03*
X76772Y181102D02*
D03*
X75787Y184055D02*
D03*
X66929Y177165D02*
D03*
X68961Y176149D02*
D03*
X66929Y150591D02*
D03*
X70866Y140748D02*
D03*
X20283Y169293D02*
D03*
X22306Y166901D02*
D03*
X19905Y161017D02*
D03*
X18088Y165967D02*
D03*
X6826Y187961D02*
D03*
X54134Y180118D02*
D03*
X64673Y174213D02*
D03*
X22304Y105937D02*
D03*
X38386Y200787D02*
D03*
X37419Y181390D02*
D03*
X31127Y181230D02*
D03*
X57087Y183071D02*
D03*
X62008Y165354D02*
D03*
X34485Y192097D02*
D03*
X77756Y187008D02*
D03*
X76772Y93504D02*
D03*
X2428Y97691D02*
D03*
X19376Y90514D02*
D03*
X34449Y106299D02*
D03*
X32480Y125000D02*
D03*
X56693Y216535D02*
D03*
X52362D02*
D03*
X43701D02*
D03*
X26378D02*
D03*
X30709D02*
D03*
X35039D02*
D03*
X25061Y234252D02*
D03*
X22789D02*
D03*
X20518D02*
D03*
X10069D02*
D03*
X12341D02*
D03*
X14612D02*
D03*
X6890Y129993D02*
D03*
X2067Y121063D02*
D03*
X8472Y100394D02*
D03*
X7152Y126822D02*
D03*
X10236Y130315D02*
D03*
X5591Y153937D02*
D03*
X16535Y158639D02*
D03*
X7087Y158465D02*
D03*
X4320Y176181D02*
D03*
X5906Y217520D02*
D03*
X4921Y227362D02*
D03*
X41339Y181102D02*
D03*
X22638Y200787D02*
D03*
X22737Y213636D02*
D03*
X20733Y212567D02*
D03*
X36417Y162119D02*
D03*
X38486Y164367D02*
D03*
X36514Y165496D02*
D03*
X18701Y213583D02*
D03*
X29528Y166339D02*
D03*
X25984Y158661D02*
D03*
X32305D02*
D03*
X29134D02*
D03*
X12795Y193898D02*
D03*
X12895Y213636D02*
D03*
X34315Y180268D02*
D03*
X11819Y180118D02*
D03*
X10890Y212567D02*
D03*
X10258Y169291D02*
D03*
X8858Y213583D02*
D03*
X45276Y181102D02*
D03*
X46457Y167122D02*
D03*
X45643Y169243D02*
D03*
X41930Y158661D02*
D03*
X43307Y183071D02*
D03*
X39370Y184055D02*
D03*
X12972Y158661D02*
D03*
X12603Y169484D02*
D03*
X49213Y168307D02*
D03*
X28730Y184733D02*
D03*
X26460Y184662D02*
D03*
X32283Y152362D02*
D03*
X38583D02*
D03*
X41732D02*
D03*
X44882D02*
D03*
X29134Y155512D02*
D03*
X25984D02*
D03*
X41732D02*
D03*
X19685Y117717D02*
D03*
X51181Y149213D02*
D03*
X19685Y114567D02*
D03*
X10236Y127165D02*
D03*
X51181Y155512D02*
D03*
M02*
