G04*
G04 #@! TF.GenerationSoftware,Altium Limited,Altium Designer,21.8.1 (53)*
G04*
G04 Layer_Physical_Order=1*
G04 Layer_Color=255*
%FSLAX25Y25*%
%MOIN*%
G70*
G04*
G04 #@! TF.SameCoordinates,EB042402-48BD-493C-904A-A6360FF8A717*
G04*
G04*
G04 #@! TF.FilePolarity,Positive*
G04*
G01*
G75*
%ADD18R,0.01890X0.00906*%
%ADD19R,0.00906X0.01890*%
%ADD20R,0.02953X0.05512*%
%ADD21R,0.05906X0.06299*%
G04:AMPARAMS|DCode=22|XSize=59.06mil|YSize=62.99mil|CornerRadius=14.76mil|HoleSize=0mil|Usage=FLASHONLY|Rotation=180.000|XOffset=0mil|YOffset=0mil|HoleType=Round|Shape=RoundedRectangle|*
%AMROUNDEDRECTD22*
21,1,0.05906,0.03347,0,0,180.0*
21,1,0.02953,0.06299,0,0,180.0*
1,1,0.02953,-0.01476,0.01673*
1,1,0.02953,0.01476,0.01673*
1,1,0.02953,0.01476,-0.01673*
1,1,0.02953,-0.01476,-0.01673*
%
%ADD22ROUNDEDRECTD22*%
%ADD23R,0.00984X0.03150*%
%ADD24R,0.12598X0.01299*%
%ADD25R,0.04724X0.07480*%
%ADD26R,0.03937X0.01378*%
%ADD27C,0.01142*%
%ADD28C,0.03937*%
%ADD29R,0.02362X0.02953*%
%ADD30R,0.02953X0.02362*%
%ADD31R,0.02362X0.07087*%
G04:AMPARAMS|DCode=32|XSize=78.74mil|YSize=98.43mil|CornerRadius=19.68mil|HoleSize=0mil|Usage=FLASHONLY|Rotation=0.000|XOffset=0mil|YOffset=0mil|HoleType=Round|Shape=RoundedRectangle|*
%AMROUNDEDRECTD32*
21,1,0.07874,0.05906,0,0,0.0*
21,1,0.03937,0.09843,0,0,0.0*
1,1,0.03937,0.01968,-0.02953*
1,1,0.03937,-0.01968,-0.02953*
1,1,0.03937,-0.01968,0.02953*
1,1,0.03937,0.01968,0.02953*
%
%ADD32ROUNDEDRECTD32*%
%ADD33R,0.01968X0.08858*%
%ADD34R,0.03937X0.03543*%
%ADD35R,0.02520X0.02362*%
%ADD36R,0.05512X0.05118*%
%ADD37R,0.10630X0.05118*%
%ADD38R,0.02362X0.02520*%
%ADD39R,0.05118X0.05512*%
%ADD64C,0.06299*%
%ADD69C,0.00350*%
%ADD70C,0.00400*%
%ADD71C,0.00402*%
%ADD72C,0.01968*%
%ADD73C,0.00462*%
%ADD74C,0.05906*%
%ADD75C,0.01968*%
%ADD76R,0.05906X0.05906*%
%ADD77C,0.06693*%
%ADD78C,0.07874*%
%ADD79C,0.03543*%
%ADD80C,0.01772*%
G36*
X27559Y189961D02*
X30512D01*
Y187992D01*
X27559D01*
X27143Y187576D01*
X26580D01*
X26179Y187410D01*
X22735Y183966D01*
X22568Y183564D01*
Y183001D01*
X21531Y181964D01*
X21283Y182027D01*
X21045Y182186D01*
Y183492D01*
X21631Y184077D01*
X21926Y184519D01*
X22030Y185039D01*
X21926Y185560D01*
X21631Y186001D01*
X21242Y186390D01*
Y188976D01*
X21139Y189497D01*
X20844Y189938D01*
X20403Y190233D01*
X19882Y190337D01*
X19361Y190233D01*
X18920Y189938D01*
X18625Y189497D01*
X18521Y188976D01*
Y185827D01*
X18625Y185306D01*
X18780Y185074D01*
X18723Y185017D01*
X18428Y184576D01*
X18325Y184055D01*
Y182087D01*
X18428Y181566D01*
X18723Y181125D01*
X19164Y180830D01*
X19602Y180743D01*
X19746Y180487D01*
X19808Y180241D01*
X18701Y179134D01*
X18681D01*
X18497Y179318D01*
X17991Y179528D01*
X17717D01*
Y191715D01*
X19500D01*
X19922Y191890D01*
X19961Y191929D01*
X25591D01*
X27559Y189961D01*
D02*
G37*
G36*
X50197Y194882D02*
X37795D01*
X37402Y195276D01*
Y196850D01*
X44291Y203740D01*
X50197D01*
Y194882D01*
D02*
G37*
G36*
X65945Y193128D02*
X65483Y192937D01*
X65049Y193371D01*
X65036Y193434D01*
X64741Y193875D01*
X64300Y194170D01*
X63779Y194274D01*
X63259Y194170D01*
X62818Y193875D01*
X62523Y193434D01*
X62419Y192913D01*
Y192717D01*
X62523Y192196D01*
X62818Y191755D01*
X64150Y190423D01*
X63958Y189961D01*
X58071D01*
X54134Y193898D01*
Y203740D01*
X65945D01*
Y193128D01*
D02*
G37*
%LPC*%
G36*
X57923Y196869D02*
X57375D01*
X56869Y196659D01*
X56481Y196272D01*
X56271Y195765D01*
Y195217D01*
X56481Y194711D01*
X56869Y194323D01*
X57375Y194113D01*
X57923D01*
X58430Y194323D01*
X58817Y194711D01*
X59027Y195217D01*
Y195765D01*
X58817Y196272D01*
X58430Y196659D01*
X57923Y196869D01*
D02*
G37*
%LPD*%
D18*
X39764Y192913D02*
D03*
Y190945D02*
D03*
Y188976D02*
D03*
Y187008D02*
D03*
X29134D02*
D03*
Y188976D02*
D03*
Y190945D02*
D03*
Y192913D02*
D03*
D19*
X37402Y184646D02*
D03*
X35433D02*
D03*
X33465D02*
D03*
X31496D02*
D03*
Y195276D02*
D03*
X33465D02*
D03*
X35433D02*
D03*
X37402D02*
D03*
D20*
X21752Y94488D02*
D03*
X27461D02*
D03*
D21*
X49803Y94567D02*
D03*
Y84567D02*
D03*
X58465Y94567D02*
D03*
D22*
Y84567D02*
D03*
D23*
X22638Y223484D02*
D03*
X20669D02*
D03*
X18701D02*
D03*
X16732D02*
D03*
X14764D02*
D03*
X12795D02*
D03*
X10827D02*
D03*
X8858D02*
D03*
X22638Y217461D02*
D03*
X20669D02*
D03*
X18701D02*
D03*
X16732D02*
D03*
X14764D02*
D03*
X12795D02*
D03*
X10827D02*
D03*
X8858D02*
D03*
D24*
X15748Y220472D02*
D03*
D25*
X29055Y65945D02*
D03*
X37402Y230315D02*
D03*
X66929Y65945D02*
D03*
D26*
X23661Y69685D02*
D03*
Y65945D02*
D03*
Y62205D02*
D03*
X34449Y69685D02*
D03*
Y65945D02*
D03*
Y62205D02*
D03*
X32008Y234055D02*
D03*
Y230315D02*
D03*
Y226575D02*
D03*
X42795Y234055D02*
D03*
Y230315D02*
D03*
Y226575D02*
D03*
X61535Y69685D02*
D03*
Y65945D02*
D03*
Y62205D02*
D03*
X72323Y69685D02*
D03*
Y65945D02*
D03*
Y62205D02*
D03*
D27*
X8661Y109843D02*
D03*
Y112992D02*
D03*
Y116142D02*
D03*
Y119291D02*
D03*
Y122441D02*
D03*
Y128740D02*
D03*
Y131890D02*
D03*
Y135039D02*
D03*
Y138189D02*
D03*
Y141339D02*
D03*
Y147638D02*
D03*
Y150787D02*
D03*
Y153937D02*
D03*
Y157087D02*
D03*
Y160236D02*
D03*
X11811Y109843D02*
D03*
Y112992D02*
D03*
Y116142D02*
D03*
Y119291D02*
D03*
Y122441D02*
D03*
Y128740D02*
D03*
Y131890D02*
D03*
Y135039D02*
D03*
Y138189D02*
D03*
Y141339D02*
D03*
Y147638D02*
D03*
Y150787D02*
D03*
Y153937D02*
D03*
Y157087D02*
D03*
Y160236D02*
D03*
X14961Y109843D02*
D03*
Y112992D02*
D03*
Y116142D02*
D03*
Y119291D02*
D03*
Y122441D02*
D03*
Y125591D02*
D03*
Y128740D02*
D03*
Y131890D02*
D03*
Y135039D02*
D03*
Y138189D02*
D03*
Y141339D02*
D03*
Y144488D02*
D03*
Y147638D02*
D03*
Y150787D02*
D03*
Y153937D02*
D03*
Y157087D02*
D03*
Y160236D02*
D03*
X18110Y109843D02*
D03*
Y112992D02*
D03*
Y116142D02*
D03*
Y119291D02*
D03*
Y122441D02*
D03*
Y125591D02*
D03*
Y128740D02*
D03*
Y131890D02*
D03*
Y135039D02*
D03*
Y138189D02*
D03*
Y141339D02*
D03*
Y144488D02*
D03*
Y147638D02*
D03*
Y150787D02*
D03*
Y153937D02*
D03*
Y157087D02*
D03*
Y160236D02*
D03*
X21260Y109843D02*
D03*
Y112992D02*
D03*
Y116142D02*
D03*
Y119291D02*
D03*
Y122441D02*
D03*
Y125591D02*
D03*
Y128740D02*
D03*
Y141339D02*
D03*
Y144488D02*
D03*
Y147638D02*
D03*
Y150787D02*
D03*
Y153937D02*
D03*
Y157087D02*
D03*
Y160236D02*
D03*
X24409Y116142D02*
D03*
Y119291D02*
D03*
Y122441D02*
D03*
Y125591D02*
D03*
Y128740D02*
D03*
Y141339D02*
D03*
Y144488D02*
D03*
Y147638D02*
D03*
Y150787D02*
D03*
Y153937D02*
D03*
X27559Y109843D02*
D03*
Y112992D02*
D03*
Y116142D02*
D03*
Y119291D02*
D03*
Y122441D02*
D03*
Y125591D02*
D03*
Y144488D02*
D03*
Y147638D02*
D03*
Y150787D02*
D03*
Y153937D02*
D03*
Y157087D02*
D03*
Y160236D02*
D03*
X30709Y109843D02*
D03*
Y112992D02*
D03*
Y116142D02*
D03*
Y119291D02*
D03*
Y131890D02*
D03*
Y135039D02*
D03*
Y138189D02*
D03*
Y150787D02*
D03*
Y153937D02*
D03*
Y157087D02*
D03*
Y160236D02*
D03*
X33858Y109843D02*
D03*
Y112992D02*
D03*
Y116142D02*
D03*
Y119291D02*
D03*
Y131890D02*
D03*
Y135039D02*
D03*
Y138189D02*
D03*
Y150787D02*
D03*
Y153937D02*
D03*
Y157087D02*
D03*
Y160236D02*
D03*
X37008Y109843D02*
D03*
Y112992D02*
D03*
Y116142D02*
D03*
Y119291D02*
D03*
Y131890D02*
D03*
Y135039D02*
D03*
Y138189D02*
D03*
Y150787D02*
D03*
Y153937D02*
D03*
Y157087D02*
D03*
Y160236D02*
D03*
X40157Y109843D02*
D03*
Y112992D02*
D03*
Y116142D02*
D03*
Y119291D02*
D03*
Y122441D02*
D03*
Y125591D02*
D03*
Y144488D02*
D03*
Y147638D02*
D03*
Y150787D02*
D03*
Y153937D02*
D03*
Y157087D02*
D03*
Y160236D02*
D03*
X43307Y116142D02*
D03*
Y119291D02*
D03*
Y122441D02*
D03*
Y125591D02*
D03*
Y128740D02*
D03*
Y141339D02*
D03*
Y144488D02*
D03*
Y147638D02*
D03*
Y150787D02*
D03*
Y153937D02*
D03*
X46457Y109843D02*
D03*
Y112992D02*
D03*
Y116142D02*
D03*
Y119291D02*
D03*
Y122441D02*
D03*
Y125591D02*
D03*
Y128740D02*
D03*
Y141339D02*
D03*
Y144488D02*
D03*
Y147638D02*
D03*
Y150787D02*
D03*
Y153937D02*
D03*
Y157087D02*
D03*
Y160236D02*
D03*
X49606Y109843D02*
D03*
Y112992D02*
D03*
Y116142D02*
D03*
Y119291D02*
D03*
Y122441D02*
D03*
Y125591D02*
D03*
Y128740D02*
D03*
Y131890D02*
D03*
Y135039D02*
D03*
Y138189D02*
D03*
Y141339D02*
D03*
Y144488D02*
D03*
Y147638D02*
D03*
Y150787D02*
D03*
Y153937D02*
D03*
Y157087D02*
D03*
Y160236D02*
D03*
X52756Y109843D02*
D03*
Y112992D02*
D03*
Y116142D02*
D03*
Y119291D02*
D03*
Y122441D02*
D03*
Y125591D02*
D03*
Y128740D02*
D03*
Y131890D02*
D03*
Y135039D02*
D03*
Y138189D02*
D03*
Y141339D02*
D03*
Y144488D02*
D03*
Y147638D02*
D03*
Y150787D02*
D03*
Y153937D02*
D03*
Y157087D02*
D03*
Y160236D02*
D03*
X55905Y109843D02*
D03*
Y112992D02*
D03*
Y116142D02*
D03*
Y119291D02*
D03*
Y122441D02*
D03*
Y128740D02*
D03*
Y131890D02*
D03*
Y135039D02*
D03*
Y138189D02*
D03*
Y141339D02*
D03*
Y147638D02*
D03*
Y150787D02*
D03*
Y153937D02*
D03*
Y157087D02*
D03*
Y160236D02*
D03*
X59055Y109843D02*
D03*
Y112992D02*
D03*
Y116142D02*
D03*
Y119291D02*
D03*
Y122441D02*
D03*
Y128740D02*
D03*
Y131890D02*
D03*
Y135039D02*
D03*
Y138189D02*
D03*
Y141339D02*
D03*
Y147638D02*
D03*
Y150787D02*
D03*
Y153937D02*
D03*
Y157087D02*
D03*
Y160236D02*
D03*
D28*
X7874Y173228D02*
D03*
D29*
X59055Y168012D02*
D03*
Y172539D02*
D03*
X55118Y166043D02*
D03*
Y170571D02*
D03*
X66929Y215256D02*
D03*
Y219783D02*
D03*
Y235531D02*
D03*
Y231004D02*
D03*
X61024Y218799D02*
D03*
Y214272D02*
D03*
X17717Y169980D02*
D03*
Y174508D02*
D03*
X22638Y171949D02*
D03*
Y176476D02*
D03*
X5906Y95177D02*
D03*
Y99705D02*
D03*
X66929Y95768D02*
D03*
Y91240D02*
D03*
X42323Y97441D02*
D03*
Y92913D02*
D03*
X65945Y113484D02*
D03*
Y108957D02*
D03*
Y124311D02*
D03*
Y119783D02*
D03*
Y140453D02*
D03*
Y144980D02*
D03*
X36417Y173228D02*
D03*
Y177756D02*
D03*
X41339Y172933D02*
D03*
Y177461D02*
D03*
D30*
X69193Y168307D02*
D03*
X64665D02*
D03*
X19696Y103746D02*
D03*
X15169D02*
D03*
X29823Y103347D02*
D03*
X25295D02*
D03*
X26870Y87598D02*
D03*
X22343D02*
D03*
X51476Y184055D02*
D03*
X46949D02*
D03*
D31*
X49016Y199803D02*
D03*
X55315D02*
D03*
D32*
X19882Y247122D02*
D03*
Y268579D02*
D03*
X54921D02*
D03*
Y247122D02*
D03*
D33*
X31102Y246748D02*
D03*
X34252D02*
D03*
X43701D02*
D03*
X40551D02*
D03*
X37402D02*
D03*
D34*
X55118Y69587D02*
D03*
Y64272D02*
D03*
X63976Y258563D02*
D03*
Y253248D02*
D03*
D35*
X70866Y122795D02*
D03*
Y119331D02*
D03*
X75787Y114409D02*
D03*
Y117874D02*
D03*
X70866Y112953D02*
D03*
Y109488D02*
D03*
X9843Y67677D02*
D03*
Y64213D02*
D03*
X66929Y163898D02*
D03*
Y160433D02*
D03*
X16732Y95236D02*
D03*
Y91772D02*
D03*
X32480Y96969D02*
D03*
Y93504D02*
D03*
X42323Y81929D02*
D03*
Y85394D02*
D03*
X65945Y134606D02*
D03*
Y131142D02*
D03*
X31496Y176929D02*
D03*
Y173465D02*
D03*
X26575Y176929D02*
D03*
Y173465D02*
D03*
D36*
X15748Y62795D02*
D03*
Y69095D02*
D03*
X29528Y205512D02*
D03*
Y211811D02*
D03*
X38386Y205512D02*
D03*
Y211811D02*
D03*
D37*
X45276Y57480D02*
D03*
Y68504D02*
D03*
D38*
X49449Y224410D02*
D03*
X52913D02*
D03*
X61772Y104331D02*
D03*
X58307D02*
D03*
X46496Y188976D02*
D03*
X49961D02*
D03*
X28307Y181102D02*
D03*
X24843D02*
D03*
D39*
X19882Y188976D02*
D03*
X13583D02*
D03*
X63779Y192913D02*
D03*
X70079D02*
D03*
X63779Y200787D02*
D03*
X70079D02*
D03*
D64*
X-22638Y25591D02*
D03*
X105315Y251969D02*
D03*
X103347Y34449D02*
D03*
X-22638Y262795D02*
D03*
D69*
X24790Y175531D02*
X25098Y175223D01*
X25879D01*
X26137Y174471D02*
Y174966D01*
X26159Y174449D02*
X26654D01*
X26137Y174471D02*
X26159Y174449D01*
X25879Y175223D02*
X26137Y174966D01*
X24790Y175531D02*
Y179312D01*
X28858Y172244D02*
X29291D01*
X29506Y172459D02*
X30411D01*
X31496Y173543D02*
Y174449D01*
X30411Y172459D02*
X31496Y173543D01*
X29291Y172244D02*
X29506Y172459D01*
X26654Y174449D02*
X28858Y172244D01*
X59055D02*
Y172539D01*
X58049Y171238D02*
X59055Y172244D01*
X57754Y171238D02*
X58049D01*
X56824Y168877D02*
Y170308D01*
X57754Y171238D01*
X56517Y168570D02*
X56824Y168877D01*
X43307Y125591D02*
Y128740D01*
X52551Y169598D02*
X53579Y168570D01*
X56517D01*
X22638Y177461D02*
X23136Y177959D01*
Y183564D01*
X26580Y187008D01*
X29134D01*
X39764Y190945D02*
Y192913D01*
X43979Y190761D02*
X48018D01*
X39764Y190945D02*
X43795D01*
X43979Y190761D01*
X48018D02*
X49186Y191929D01*
X63287Y137795D02*
X63559Y137523D01*
X65866Y134606D02*
X65945D01*
X63559Y136913D02*
X65866Y134606D01*
X63559Y136913D02*
Y137523D01*
X63287Y137795D02*
X63583D01*
X65945Y140157D01*
Y140453D01*
X49213Y191544D02*
Y191929D01*
X49961Y188976D02*
Y190796D01*
X49213Y191544D02*
X49961Y190796D01*
X70079Y192913D02*
Y200787D01*
X73622Y189173D02*
X73819D01*
X70079Y192717D02*
X73622Y189173D01*
X70079Y192717D02*
Y192913D01*
X38386Y215551D02*
X38386Y215551D01*
X38386Y211811D02*
Y215551D01*
X29528Y211811D02*
X38386D01*
X49186Y191929D02*
X49213D01*
X66951Y146282D02*
X67157D01*
X67529Y146653D02*
X67913D01*
X67157Y146282D02*
X67529Y146653D01*
X65945Y144980D02*
Y145276D01*
X66951Y146282D01*
X8858Y188976D02*
X13583D01*
X24843Y179365D02*
Y182087D01*
X24790Y179312D02*
X24843Y179365D01*
X14764Y173228D02*
X17717Y170276D01*
Y169980D02*
Y170276D01*
X7874Y173228D02*
X14764D01*
X61024Y211614D02*
Y214272D01*
X45287Y212402D02*
Y212587D01*
Y212216D02*
Y212402D01*
X38583Y205512D02*
X45287Y212216D01*
X38386Y205512D02*
X38583D01*
X7874Y220472D02*
X15748D01*
X51476Y178263D02*
Y181398D01*
Y178263D02*
X55118Y174622D01*
Y170571D02*
Y174622D01*
X51476Y181398D02*
Y184055D01*
X63976Y163386D02*
Y167301D01*
X66417Y163386D02*
X66929Y163898D01*
X63976Y163386D02*
X66417D01*
X63976Y157559D02*
X66850Y160433D01*
X63976Y157480D02*
Y157559D01*
X66850Y160433D02*
X66929D01*
X65945Y128937D02*
Y131142D01*
X75711Y120155D02*
Y120308D01*
Y117950D02*
Y120155D01*
X75787Y120079D01*
X75711Y117950D02*
X75787Y117874D01*
X70866Y122795D02*
Y125000D01*
X19696Y103746D02*
X19992D01*
X22183Y105937D01*
X22304D01*
X10069Y226445D02*
Y234252D01*
X8858Y225234D02*
X10069Y226445D01*
X8858Y223484D02*
Y225234D01*
X74272Y231004D02*
X76772Y228504D01*
X66929Y231004D02*
X74272D01*
X22638Y217461D02*
X22687Y217411D01*
Y213685D02*
Y217411D01*
Y213685D02*
X22737Y213636D01*
X20669Y217461D02*
X20701Y217429D01*
Y212598D02*
Y217429D01*
Y212598D02*
X20733Y212567D01*
X18701Y213583D02*
Y217461D01*
X18701Y217461D02*
X18701Y217461D01*
X12795Y217461D02*
X12845Y217411D01*
Y213685D02*
Y217411D01*
Y213685D02*
X12895Y213636D01*
X10827Y217461D02*
X10858Y217429D01*
Y212598D02*
Y217429D01*
Y212598D02*
X10890Y212567D01*
X8858Y217461D02*
X8858Y217461D01*
Y213583D02*
Y217461D01*
D70*
X26575Y177913D02*
X28844D01*
X30575Y179645D01*
X31784D01*
X58074Y166047D02*
Y167031D01*
X59055Y168012D01*
X58071Y166043D02*
X58074Y166047D01*
X67913Y168996D02*
Y171260D01*
X43070Y166709D02*
Y179371D01*
X41732Y161811D02*
X41930D01*
X44057Y177612D02*
X47547Y181102D01*
X38561Y162199D02*
X43070Y166709D01*
X38561Y155534D02*
X38583Y155512D01*
X44057Y163938D02*
Y177612D01*
X38561Y155534D02*
Y162199D01*
X41831Y161811D02*
X41930D01*
X24592Y203557D02*
Y203695D01*
X31496Y195276D02*
Y196653D01*
X24592Y203557D02*
X31496Y196653D01*
X15748Y177875D02*
Y184835D01*
Y177875D02*
X16735Y176888D01*
Y175489D02*
Y176888D01*
Y175489D02*
X17717Y174508D01*
X29134Y161811D02*
X30709Y160236D01*
X32490Y161419D02*
X33674Y160236D01*
X32305Y161419D02*
X32490Y161604D01*
X32283Y161811D02*
X32490Y161604D01*
Y161419D02*
Y161604D01*
X33674Y160236D02*
X33858D01*
X48976Y85394D02*
X49803Y84567D01*
X42323Y85394D02*
X48976D01*
X49803Y80315D02*
Y84567D01*
X2067Y121063D02*
X3445Y122441D01*
X8661D01*
X24592Y203695D02*
X27711D01*
X29528Y205512D01*
X6887Y100686D02*
Y102830D01*
X6890Y102833D01*
Y105315D01*
X5906Y99705D02*
X6887Y100686D01*
X18131Y108289D02*
Y109821D01*
X18110Y109843D02*
X18131Y109821D01*
Y108289D02*
X18152Y108268D01*
X15464Y103746D02*
X18816Y100394D01*
X26280D01*
X15169Y103746D02*
X15464D01*
X19738Y107611D02*
Y111470D01*
X21260Y112992D01*
X19692Y107564D02*
X19738Y107611D01*
X26575Y100394D02*
X29528Y103347D01*
X26280Y100394D02*
X26575D01*
X29528Y103347D02*
X29823D01*
X26575Y95374D02*
Y98141D01*
X19685Y158661D02*
X21260Y157087D01*
X64170Y147544D02*
X64427Y147801D01*
X64170Y146315D02*
Y147544D01*
X59193Y141339D02*
X64170Y146315D01*
X16732Y223484D02*
Y226378D01*
X14764Y224567D02*
X16575Y226378D01*
X14764Y223484D02*
Y224567D01*
X16314Y214281D02*
X16732Y214700D01*
X14764Y214567D02*
X15748Y213583D01*
Y214515D02*
X15982Y214281D01*
X16314D01*
X16732Y214700D02*
Y217461D01*
X14764Y214567D02*
Y217461D01*
X59055Y220768D02*
X59350D01*
X61024Y219094D01*
Y218799D02*
Y219094D01*
X66929Y215256D02*
X69193D01*
X64272Y238189D02*
X64567D01*
X66929Y235827D01*
Y235531D02*
Y235827D01*
X52744Y125591D02*
X52756D01*
X51157Y127165D02*
X51169D01*
X52744Y125591D01*
X59055Y138189D02*
X59146D01*
X60539Y139582D02*
X60630D01*
X59146Y138189D02*
X60539Y139582D01*
X41710Y146052D02*
Y146063D01*
X40157Y144499D02*
X41710Y146052D01*
X40157Y144488D02*
Y144499D01*
X59055Y147638D02*
X61024Y149606D01*
X16502Y164551D02*
Y166624D01*
X16735Y166857D01*
X16502Y164551D02*
X16535Y164518D01*
X20541Y160754D02*
X21059Y160236D01*
X19905Y161017D02*
X20167Y160754D01*
X21059Y160236D02*
X21260D01*
X20167Y160754D02*
X20541D01*
X16535Y161811D02*
Y164518D01*
X16735Y166857D02*
Y168999D01*
X62216Y160247D02*
Y165147D01*
X62008Y165354D02*
X62216Y165147D01*
X59055Y157087D02*
X62216Y160247D01*
X59055Y160236D02*
X60630Y161811D01*
X59055Y141339D02*
X59193D01*
X26192Y111625D02*
X27559Y112992D01*
X25295Y103347D02*
X26192Y104243D01*
Y111625D01*
X42402Y81929D02*
X44606Y79724D01*
X42323Y81929D02*
X42402D01*
X44606Y79724D02*
X47244D01*
X35433Y94762D02*
Y94791D01*
X34175Y93504D02*
X35433Y94762D01*
X32480Y93504D02*
X34175D01*
X16732Y89567D02*
Y91772D01*
X5906Y92520D02*
Y95177D01*
X65945Y106299D02*
Y108957D01*
X65945Y108957D01*
X60630Y106593D02*
X60791Y106432D01*
Y105312D02*
X61772Y104331D01*
X60791Y105312D02*
Y106432D01*
X60630Y106593D02*
Y108268D01*
X58465Y94567D02*
X58543Y94488D01*
X62992D01*
X66634Y91535D02*
X66929Y91240D01*
X63976Y91535D02*
X66634D01*
X9843Y67677D02*
Y70866D01*
X15748Y69095D02*
Y72835D01*
X29528Y61024D02*
Y65472D01*
X29055Y65945D02*
X29528Y65472D01*
X26893Y69196D02*
X29055Y67034D01*
X24150Y69196D02*
X26893D01*
X23661Y69685D02*
X24150Y69196D01*
X29055Y65945D02*
Y67034D01*
X45869Y68504D02*
X48228Y70863D01*
Y72835D01*
X45276Y68504D02*
X45869D01*
X54134Y72835D02*
X55118Y71850D01*
Y69587D02*
Y71850D01*
X62024Y69196D02*
X64767D01*
X61535Y69685D02*
X62024Y69196D01*
X64767D02*
X66929Y67034D01*
Y65945D02*
Y67034D01*
Y60039D02*
Y65945D01*
X64173Y258563D02*
X67159Y261549D01*
X67651D02*
X67913Y261811D01*
X63976Y258563D02*
X64173D01*
X67159Y261549D02*
X67651D01*
X30512Y240529D02*
X31102Y241119D01*
X30512Y240158D02*
Y240529D01*
X31102Y241119D02*
Y246748D01*
X32414Y234461D02*
Y235170D01*
X33465Y236221D01*
X32008Y234055D02*
X32414Y234461D01*
X37402Y225394D02*
Y230315D01*
X52913Y224410D02*
X55118D01*
X54331Y120888D02*
X54342D01*
X55895Y122441D01*
X55905D01*
X59055D02*
X59061D01*
X60624Y120877D01*
X60630D01*
X24398Y128740D02*
X24409D01*
X22846Y127187D02*
X24398Y128740D01*
X22835Y127187D02*
X22846D01*
X10258Y111417D02*
Y111428D01*
X11811Y112981D02*
Y112992D01*
X10258Y111428D02*
X11811Y112981D01*
X7087Y108268D02*
X8661Y109843D01*
X13386Y111417D02*
X14961Y112992D01*
X52756Y160236D02*
X54331Y161811D01*
X55905Y157087D02*
X57480Y158661D01*
X52756Y153937D02*
X54331Y155512D01*
X43307Y153937D02*
X44882Y155512D01*
X49606Y150787D02*
X51181Y152362D01*
X46457Y147638D02*
X48031Y149213D01*
X46457Y141339D02*
X48031Y139764D01*
X46457Y144488D02*
X48031Y146063D01*
X43307Y144488D02*
X44882Y146063D01*
X43307Y141339D02*
X44882Y142913D01*
X59055Y116142D02*
X60630Y114567D01*
X54331Y117717D02*
X55905Y119291D01*
X59055Y109843D02*
X60630Y108268D01*
X54331Y111417D02*
X55905Y112992D01*
X52756Y135039D02*
X54331Y133465D01*
X51181Y120866D02*
X52756Y122441D01*
X38583Y127165D02*
X40157Y125591D01*
X44882Y124016D02*
X46457Y122441D01*
X41732Y124016D02*
X43307Y125591D01*
X48031Y120866D02*
X49606Y119291D01*
X52756Y116142D02*
X54331Y114567D01*
X41732D02*
X43307Y116142D01*
X32283Y155512D02*
X33858Y153937D01*
X32283Y139764D02*
X33858Y138189D01*
X37008D02*
X38583Y136614D01*
X32283Y136614D02*
X33858Y135039D01*
X25984Y149213D02*
X27559Y147638D01*
X29134Y139764D02*
X30709Y138189D01*
X11811Y157087D02*
Y157098D01*
X16535Y152346D02*
X16544D01*
X13386Y155512D02*
X14961Y153937D01*
X10258Y158650D02*
Y158661D01*
Y158650D02*
X11811Y157098D01*
X7087Y161811D02*
X8661Y160236D01*
X22835Y149213D02*
X24409Y147638D01*
X19685Y149213D02*
X21260Y147638D01*
X22835Y146063D02*
X24409Y144488D01*
X19685Y146063D02*
X21260Y144488D01*
X19685Y142913D02*
X21260Y141339D01*
X18102Y150787D02*
X18110D01*
X16544Y152346D02*
X18102Y150787D01*
X16535Y142913D02*
X18110Y141339D01*
X37008Y135039D02*
X38583Y133465D01*
X32283Y133465D02*
X33858Y131890D01*
X35433Y133465D02*
X37008Y131890D01*
X29134Y130315D02*
X30709Y131890D01*
X29134Y136614D02*
X30709Y135039D01*
X25984Y124016D02*
X27559Y125591D01*
X22835Y124016D02*
X24409Y125591D01*
X25984Y120866D02*
X27559Y122441D01*
X25984Y117717D02*
X27559Y119291D01*
X32283Y114567D02*
X33858Y116142D01*
X22835Y120866D02*
X24409Y122441D01*
X22835Y117717D02*
X24409Y119291D01*
X19685Y124016D02*
X21260Y125591D01*
X19685Y120866D02*
X21260Y122441D01*
X16535Y130315D02*
X18110Y131890D01*
X14961Y135039D02*
X16535Y133465D01*
X16535Y117717D02*
X18110Y119291D01*
X13386Y127165D02*
X14961Y128740D01*
X13386Y114567D02*
X14961Y116142D01*
X7087Y114567D02*
X8661Y116142D01*
X39764Y187008D02*
X43701D01*
X46654Y184055D01*
X46949D01*
X41339Y177165D02*
Y177461D01*
X40358Y176184D02*
X41339Y177165D01*
X39078Y176184D02*
X40358D01*
X36417Y173524D02*
X39078Y176184D01*
X36417Y173228D02*
Y173524D01*
X39217Y179878D02*
X41339Y177756D01*
X39217Y179878D02*
Y181835D01*
X41339Y177461D02*
Y177756D01*
X38076Y182976D02*
X39217Y181835D01*
X37694Y182976D02*
X38076D01*
X37402Y183268D02*
X37694Y182976D01*
X37402Y183268D02*
Y184646D01*
X31784Y179645D02*
X32713Y180573D01*
Y180909D02*
X33465Y181660D01*
Y184646D01*
X32713Y180573D02*
Y180909D01*
X31204Y183068D02*
X31496Y183360D01*
X29288Y183068D02*
X31204D01*
X31496Y183360D02*
Y184646D01*
X28307Y182087D02*
X29288Y183068D01*
X55118Y166043D02*
X58071D01*
X54429Y165354D02*
X55118Y166043D01*
X48031Y163307D02*
X50079Y165354D01*
X54429D01*
X49606Y153937D02*
X51181Y155512D01*
X70335Y113484D02*
X70866Y112953D01*
X65945Y113484D02*
X70335D01*
X65945D02*
Y119783D01*
X70413D02*
X70866Y119331D01*
X65945Y119783D02*
X70413D01*
X61935Y119291D02*
X62427Y119783D01*
X65945D01*
X59055Y119291D02*
X61935D01*
X48150Y92913D02*
X49803Y94567D01*
X42323Y92913D02*
X48150D01*
X27461Y95692D02*
X28737Y96969D01*
X27461Y94488D02*
Y95692D01*
X28737Y96969D02*
X32480D01*
X26870Y87598D02*
Y93898D01*
X27461Y94488D01*
X21004Y95236D02*
X21752Y94488D01*
X16732Y95236D02*
X21004D01*
X21752Y94488D02*
X22343Y93898D01*
Y87598D02*
Y93898D01*
X19685Y106313D02*
X19692Y106320D01*
Y107564D01*
X19696Y127187D02*
X21249Y128740D01*
X19685Y127187D02*
X19696D01*
X21249Y128740D02*
X21260D01*
X18110Y125492D02*
Y125591D01*
X16732Y124114D02*
X18110Y125492D01*
X16732Y124016D02*
Y124114D01*
X22638Y231829D02*
X25061Y234252D01*
X22638Y223484D02*
Y231829D01*
X20669Y232132D02*
X22789Y234252D01*
X20669Y223484D02*
Y232132D01*
X18701Y232435D02*
X20518Y234252D01*
X18701Y223484D02*
Y232435D01*
X12341Y226773D02*
Y234252D01*
X10827Y225259D02*
X12341Y226773D01*
X10827Y223484D02*
Y225259D01*
X14612Y227076D02*
Y234252D01*
X12795Y225259D02*
X14612Y227076D01*
X12795Y223484D02*
Y225259D01*
X26575Y95374D02*
X27461Y94488D01*
X8661Y131827D02*
Y131890D01*
X6890Y129993D02*
Y130056D01*
X8661Y131827D01*
X19357Y98163D02*
X21752Y95768D01*
X18701Y98425D02*
X18963Y98163D01*
X21752Y94488D02*
Y95768D01*
X18963Y98163D02*
X19357D01*
X42323Y97441D02*
Y100394D01*
X66929Y95768D02*
Y101378D01*
X7152Y126822D02*
Y127030D01*
X8661Y128540D01*
Y128740D01*
X10236Y130315D02*
X11811Y131890D01*
X18088Y153937D02*
X18110D01*
X18099Y157087D02*
X18110D01*
X16535Y155468D02*
X16557D01*
X18088Y153937D01*
X16546Y158639D02*
X18099Y157087D01*
X16535Y158639D02*
X16546D01*
X66929Y219488D02*
X67910Y218507D01*
X76768D01*
X76772Y218504D01*
X66929Y219488D02*
Y219783D01*
X41339Y181102D02*
X43070Y179371D01*
X28230Y164057D02*
X35075D01*
X25984Y161811D02*
X28230Y164057D01*
X32305Y158650D02*
X33858Y157098D01*
X25984Y158661D02*
X27559Y157087D01*
X29134Y158661D02*
X30709Y157087D01*
X33858Y157087D02*
Y157098D01*
X32305Y158650D02*
Y158661D01*
X41930Y161811D02*
X44057Y163938D01*
X37008Y153948D02*
X38561Y155501D01*
X40157Y160236D02*
X40256D01*
X38561Y155501D02*
Y155512D01*
X37008Y153937D02*
Y153948D01*
X40256Y157087D02*
X41831Y158661D01*
X40157Y157087D02*
X40256D01*
X41831Y158661D02*
X41930D01*
X40256Y160236D02*
X41831Y161811D01*
X17717Y170276D02*
X18698Y171257D01*
X21257D01*
X22638Y172638D02*
Y172933D01*
X21257Y171257D02*
X22638Y172638D01*
X16735Y168999D02*
X17717Y169980D01*
X45276Y130905D02*
X47441D01*
X49606Y128740D01*
X48031Y158661D02*
Y163307D01*
X35075Y164057D02*
X36514Y165496D01*
X22835Y142913D02*
X24409Y141339D01*
X25984Y146063D02*
X27559Y144488D01*
X38583Y124016D02*
X40157Y122441D01*
Y147638D02*
X41732Y149213D01*
X44882Y127165D02*
X46457Y125591D01*
X41732Y120866D02*
X43307Y122441D01*
X49606Y135039D02*
X51181Y133465D01*
X43307Y147638D02*
X44882Y149213D01*
X32283Y152362D02*
X33858Y150787D01*
X49606Y138189D02*
X51181Y139764D01*
X29134Y152362D02*
X30709Y150787D01*
X37008D02*
X38583Y152362D01*
Y120866D02*
X40157Y119291D01*
X16535Y127165D02*
X18110Y128740D01*
X25984Y152362D02*
X27559Y150787D01*
X40157D02*
X41732Y152362D01*
X49606Y144488D02*
X51181Y146063D01*
X22835Y152362D02*
X24409Y150787D01*
X43307D02*
X44882Y152362D01*
X52756Y138189D02*
X54331Y139764D01*
X29134Y155512D02*
X30709Y153937D01*
X25984Y114567D02*
X27559Y116142D01*
X52756Y128740D02*
X54331Y127165D01*
X52756Y141339D02*
X54331Y142913D01*
X25984Y155512D02*
X27559Y153937D01*
X40157D02*
X41732Y155512D01*
X19685Y117717D02*
X21260Y119291D01*
X44882Y120866D02*
X46457Y119291D01*
X48031Y124016D02*
X49606Y122441D01*
Y147638D02*
X51181Y149213D01*
X19685Y152362D02*
X21260Y150787D01*
X22835Y114567D02*
X24409Y116142D01*
X13386Y124016D02*
X14961Y125591D01*
X13386Y146063D02*
X14961Y144488D01*
X52756D02*
X54331Y146063D01*
X22835Y155512D02*
X24409Y153937D01*
X55905Y135039D02*
X57480Y136614D01*
X55905Y138189D02*
X57480Y139764D01*
X19685Y114567D02*
X21260Y116142D01*
X52756Y147638D02*
X54331Y149213D01*
X19685Y155512D02*
X21260Y153937D01*
X10236Y127165D02*
X11811Y128740D01*
X48031Y117717D02*
X49606Y116142D01*
X51181Y117717D02*
X52756Y119291D01*
X46457Y157087D02*
X48031Y158661D01*
X25984Y161811D02*
X27559Y160236D01*
X51181Y114567D02*
X52756Y112992D01*
X55905Y116142D02*
X57480Y114567D01*
X52756Y157087D02*
X54331Y158661D01*
X16535Y161811D02*
X18110Y160236D01*
X54331Y108268D02*
X55905Y109843D01*
X59055Y112992D02*
X60630Y111417D01*
X55905Y160236D02*
X57480Y161811D01*
D71*
X29134Y190945D02*
Y192913D01*
X46457Y125591D02*
Y128740D01*
X50965Y168909D02*
X52551Y167323D01*
X50965Y168909D02*
Y170255D01*
X51894Y171184D01*
X54505D01*
X55118Y170571D01*
X32480Y166339D02*
X32743Y166601D01*
X33226D02*
X38691Y172065D01*
Y172069D01*
X39555Y172933D01*
X32743Y166601D02*
X33226D01*
X39555Y172933D02*
X41339D01*
X10009Y194064D02*
X13780Y197835D01*
X10009Y193731D02*
Y194064D01*
Y193731D02*
X11429Y192311D01*
X13780Y197835D02*
X15748D01*
X19500Y192311D02*
X20102Y192913D01*
X29134D01*
X11429Y192311D02*
X19500D01*
X69620Y128281D02*
Y128675D01*
X69882Y128937D01*
X65945Y124311D02*
Y124606D01*
X69620Y128281D01*
X55905Y106811D02*
Y109843D01*
X58307Y104331D02*
Y104409D01*
X55905Y106811D02*
X58307Y104409D01*
X68898Y107520D02*
Y107598D01*
X70787Y109488D01*
X70866D01*
X71925Y110626D02*
X75709Y114409D01*
X71925Y110468D02*
Y110626D01*
X70945Y109488D02*
X71925Y110468D01*
X70866Y109488D02*
X70945D01*
X75709Y114409D02*
X75787D01*
X39764Y188976D02*
X46496D01*
X31496Y177913D02*
X36260D01*
X36417Y177756D01*
X35902Y180663D02*
X36417Y180148D01*
X35433Y181394D02*
X35902Y180925D01*
Y180663D02*
Y180925D01*
X36417Y177756D02*
Y180148D01*
X35433Y181394D02*
Y184646D01*
D72*
X19685Y182087D02*
Y184055D01*
X20669Y185039D01*
X19882Y185827D02*
X20669Y185039D01*
X19882Y185827D02*
Y188976D01*
X49252Y224134D02*
X49449Y224331D01*
X49173Y224134D02*
X49252D01*
X48465Y223425D02*
X49173Y224134D01*
X49449Y224331D02*
Y224410D01*
X43307Y223425D02*
X48465D01*
X69882Y128937D02*
X71449Y130504D01*
X69882Y128937D02*
X71850D01*
X71449Y130504D02*
Y133224D01*
X73619Y135395D01*
Y147438D01*
X72433Y148625D02*
X73619Y147438D01*
X72433Y148625D02*
Y164605D01*
X73236Y165408D01*
Y176982D01*
X73819Y177564D01*
Y181971D01*
X66185Y189605D02*
X73819Y181971D01*
X66185Y189605D02*
Y190311D01*
X63779Y192717D02*
X66185Y190311D01*
X63779Y192717D02*
Y192913D01*
X51299Y47323D02*
X57488Y53512D01*
X55118Y60438D02*
X57488Y58068D01*
X55118Y60438D02*
Y64272D01*
X57488Y53512D02*
Y58068D01*
X54724Y57480D02*
X55118Y57087D01*
X45276Y57480D02*
X54724D01*
X15748Y58071D02*
Y62795D01*
X9843Y61024D02*
Y64213D01*
X51970Y19093D02*
X58189D01*
X59325Y17957D02*
X69312D01*
X71118Y19764D01*
X51299D02*
X51970Y19093D01*
X58189D02*
X59325Y17957D01*
X71118Y19764D02*
X72716D01*
X33346D02*
X51299D01*
X12599Y19093D02*
X18819D01*
X19955Y17957D01*
X29942D01*
X31748Y19764D01*
X33346D01*
X11929D02*
X12599Y19093D01*
X54921Y255906D02*
Y268579D01*
Y247122D02*
Y255906D01*
X57579Y253248D01*
X63976D01*
X19882Y268579D02*
X54921D01*
X19882Y247122D02*
Y268579D01*
X43307Y220472D02*
X46260D01*
X43307D02*
Y223425D01*
X43012Y226575D02*
X43307Y226279D01*
Y223425D02*
Y226279D01*
X42795Y226575D02*
X43012D01*
X43091Y226870D02*
X45768D01*
X42795Y226575D02*
X43091Y226870D01*
X45768D02*
X47244Y228346D01*
Y234151D01*
X43701Y237694D02*
X47244Y234151D01*
X43701Y237694D02*
Y246748D01*
X34449Y60039D02*
Y62205D01*
X38189Y55905D02*
X43701D01*
X37402Y55118D02*
X38189Y55905D01*
X43701D02*
X45276Y57480D01*
X71339Y61910D02*
X71634Y62205D01*
X71339Y61221D02*
Y61910D01*
X70866Y60748D02*
X71339Y61221D01*
X70866Y58071D02*
Y60748D01*
X71634Y62205D02*
X72323D01*
X45276Y39370D02*
X62008Y22638D01*
X45276Y39370D02*
Y45276D01*
Y57480D01*
X22638Y22638D02*
X45276Y45276D01*
X34449Y194882D02*
Y201772D01*
X38189Y205512D02*
X38386D01*
X34449Y201772D02*
X38189Y205512D01*
D73*
X10089Y101453D02*
X11380Y102744D01*
X10951Y101096D02*
X12242Y102387D01*
Y107124D01*
X10951Y98939D02*
Y101096D01*
X11380Y102744D02*
Y107124D01*
X12242D02*
X13386Y108268D01*
X10258Y108246D02*
Y108268D01*
X10236D02*
X11811Y109843D01*
X10258Y108246D02*
X11380Y107124D01*
X10089Y99296D02*
Y101453D01*
X9650Y98856D02*
X10089Y99296D01*
X10511Y79039D02*
Y98499D01*
X9650Y78682D02*
Y98856D01*
X10511Y98499D02*
X10951Y98939D01*
X58080Y42313D02*
X62008Y38386D01*
X59053Y61002D02*
X60256Y62205D01*
X58080Y42313D02*
Y51171D01*
X59053Y52144D02*
Y61002D01*
X58080Y51171D02*
X59053Y52144D01*
X28543Y234445D02*
X37402Y243303D01*
X28543Y227633D02*
Y234445D01*
X36998Y57487D02*
Y68415D01*
X28828Y36702D02*
Y49317D01*
X36998Y57487D01*
X38386Y235441D02*
X40130D01*
X29798Y225644D02*
X30728Y226575D01*
X32008D01*
X10258Y114567D02*
Y114578D01*
X11811Y116131D02*
Y116142D01*
X10258Y114578D02*
X11811Y116131D01*
X12028Y99138D02*
X12568Y99677D01*
X10511Y79039D02*
X12198Y77352D01*
X12568Y99677D02*
Y100031D01*
X12650Y98269D02*
X13913D01*
X12028Y98867D02*
Y99138D01*
X13913Y98269D02*
X13952Y98230D01*
X9650Y78682D02*
X11841Y76490D01*
X13386Y108268D02*
X14961Y109843D01*
X12847Y77352D02*
X13561Y78066D01*
X12854Y76490D02*
X13557Y75787D01*
X11841Y76490D02*
X12854D01*
X13557Y75787D02*
X13780D01*
X13561Y78066D02*
X13772D01*
X74872Y56739D02*
Y68415D01*
X12198Y77352D02*
X12847D01*
X73602Y69685D02*
X74872Y68415D01*
X68199Y36702D02*
Y50065D01*
X62008Y30512D02*
X68199Y36702D01*
X71043Y69685D02*
X73602D01*
X68199Y50065D02*
X74872Y56739D01*
X58538Y74946D02*
Y75942D01*
X58382Y76098D02*
X58538Y75942D01*
Y74946D02*
X61170Y72313D01*
Y71226D02*
X61441Y70955D01*
X69773D01*
X71043Y69685D01*
X56932Y74336D02*
X57928D01*
X60308Y71956D01*
X58986Y63475D02*
Y70615D01*
X60256Y62205D02*
X61535D01*
X59326Y70955D02*
X60037D01*
X58986Y70615D02*
X59326Y70955D01*
X60037D02*
X60308Y71226D01*
X61170D02*
Y72313D01*
X58986Y63475D02*
X60256Y62205D01*
X56776Y74492D02*
X56932Y74336D01*
X60308Y71226D02*
Y71956D01*
X16535Y114567D02*
X18110Y116142D01*
X35728Y69685D02*
X36998Y68415D01*
X12185Y97805D02*
X12650Y98269D01*
X12185Y90040D02*
Y97805D01*
Y90040D02*
X23296Y78929D01*
X22638Y30512D02*
X28828Y36702D01*
X16535Y111417D02*
X18110Y112992D01*
X18710Y42313D02*
X22638Y38386D01*
X18710Y42313D02*
Y58533D01*
X22382Y62205D01*
X23296Y71226D02*
Y78929D01*
X11323Y89683D02*
Y98162D01*
X33169Y69685D02*
X35728D01*
X22434Y71226D02*
Y78572D01*
X23296Y71226D02*
X23567Y70955D01*
X31899D01*
X33169Y69685D01*
X21112Y63475D02*
X22382Y62205D01*
X21112Y63475D02*
Y70615D01*
X22382Y62205D02*
X23661D01*
X21452Y70955D02*
X22163D01*
X11323Y98162D02*
X12028Y98867D01*
X11323Y89683D02*
X22434Y78572D01*
X21112Y70615D02*
X21452Y70955D01*
X22163D02*
X22434Y71226D01*
X7087Y111417D02*
X8661Y112992D01*
X40551Y235020D02*
Y246748D01*
Y235020D02*
X41516Y234055D01*
X42795D01*
X40130Y235441D02*
X40551Y235020D01*
X37402Y243303D02*
Y246748D01*
X28543Y227633D02*
X29346Y226830D01*
X31753D01*
X32008Y226575D01*
X28794Y225644D02*
X29798D01*
X28543Y225394D02*
X28794Y225644D01*
D74*
X71612Y79605D02*
D03*
X8563Y35925D02*
D03*
X74689Y265112D02*
D03*
X7465Y247100D02*
D03*
X76772Y208504D02*
D03*
Y218504D02*
D03*
Y228504D02*
D03*
D75*
X0Y21654D02*
D03*
Y24606D02*
D03*
Y27559D02*
D03*
Y30512D02*
D03*
X82677Y21654D02*
D03*
Y24606D02*
D03*
Y27559D02*
D03*
Y30512D02*
D03*
Y265748D02*
D03*
Y262795D02*
D03*
Y259842D02*
D03*
Y256890D02*
D03*
X0D02*
D03*
Y259842D02*
D03*
Y262795D02*
D03*
Y265748D02*
D03*
D76*
X76772Y238504D02*
D03*
D77*
X22638Y22638D02*
D03*
Y38386D02*
D03*
Y30512D02*
D03*
Y46260D02*
D03*
X62008Y22638D02*
D03*
Y38386D02*
D03*
Y30512D02*
D03*
Y46260D02*
D03*
D78*
X33346Y19764D02*
D03*
X11929D02*
D03*
Y47323D02*
D03*
X33346D02*
D03*
X72716Y19764D02*
D03*
X51299D02*
D03*
Y47323D02*
D03*
X72716D02*
D03*
D79*
X28740Y257279D02*
D03*
X46063D02*
D03*
D80*
X29240Y172244D02*
D03*
X67913Y171260D02*
D03*
X52551Y167323D02*
D03*
X32480Y166339D02*
D03*
X52551Y169598D02*
D03*
X58071Y198819D02*
D03*
X15748Y197835D02*
D03*
X29134Y161811D02*
D03*
X32305Y161419D02*
D03*
X19685Y182087D02*
D03*
X20669Y185039D02*
D03*
X15748Y184835D02*
D03*
X49803Y80315D02*
D03*
X63287Y137795D02*
D03*
X73819Y189173D02*
D03*
X38386Y215551D02*
D03*
X24592Y203695D02*
D03*
X6890Y105315D02*
D03*
X13386Y108268D02*
D03*
X18152D02*
D03*
X26280Y100394D02*
D03*
X26575Y98141D02*
D03*
X19685Y158661D02*
D03*
X64427Y147801D02*
D03*
X16732Y226378D02*
D03*
X15748Y213583D02*
D03*
X59055Y220768D02*
D03*
X69193Y215256D02*
D03*
X64272Y238189D02*
D03*
X51157Y127165D02*
D03*
X68898Y107520D02*
D03*
X60630Y139582D02*
D03*
X41710Y146063D02*
D03*
X71850Y128937D02*
D03*
X69882D02*
D03*
X61024Y149606D02*
D03*
X67913Y146653D02*
D03*
X19905Y161017D02*
D03*
X8858Y188976D02*
D03*
X61024Y211614D02*
D03*
X45287Y212402D02*
D03*
X7874Y220472D02*
D03*
X51476Y181398D02*
D03*
X63976Y163386D02*
D03*
X60630Y161811D02*
D03*
X63976Y157480D02*
D03*
X65945Y128937D02*
D03*
X75711Y120308D02*
D03*
X70866Y125000D02*
D03*
X22304Y105937D02*
D03*
X47244Y79724D02*
D03*
X35433Y94791D02*
D03*
X16732Y89567D02*
D03*
X5906Y92520D02*
D03*
X65945Y106299D02*
D03*
X62992Y94488D02*
D03*
X63976Y91535D02*
D03*
X55118Y57087D02*
D03*
X15748Y58071D02*
D03*
X9843Y61024D02*
D03*
Y70866D02*
D03*
X15748Y72835D02*
D03*
X29528Y61024D02*
D03*
X48228Y72835D02*
D03*
X54134D02*
D03*
X66929Y60039D02*
D03*
X30512Y240158D02*
D03*
X33465Y236221D02*
D03*
X37402Y225394D02*
D03*
X55118Y224410D02*
D03*
X46260Y220472D02*
D03*
X43307D02*
D03*
Y223425D02*
D03*
X54331Y127165D02*
D03*
Y120888D02*
D03*
X49213Y191929D02*
D03*
X67913Y261811D02*
D03*
X60630Y120877D02*
D03*
X22835Y127187D02*
D03*
X10258Y111417D02*
D03*
X7087Y108268D02*
D03*
X13386Y111417D02*
D03*
X54331Y161811D02*
D03*
X57480Y158661D02*
D03*
X54331Y155512D02*
D03*
X44882D02*
D03*
X51181Y152362D02*
D03*
X48031Y149213D02*
D03*
Y146063D02*
D03*
Y139764D02*
D03*
X44882Y146063D02*
D03*
Y142913D02*
D03*
X60630Y114567D02*
D03*
X54331Y117717D02*
D03*
Y114567D02*
D03*
X60630Y108268D02*
D03*
X54331Y111417D02*
D03*
Y133465D02*
D03*
X48031Y120866D02*
D03*
X44882Y124016D02*
D03*
X41732Y124016D02*
D03*
X51181Y120866D02*
D03*
X41732Y114567D02*
D03*
X32283Y155512D02*
D03*
X38583Y136614D02*
D03*
X25984Y149213D02*
D03*
X32283Y139764D02*
D03*
Y136614D02*
D03*
X29134Y139764D02*
D03*
Y136614D02*
D03*
X16535Y152346D02*
D03*
X13386Y155512D02*
D03*
X10258Y158661D02*
D03*
X7087Y161811D02*
D03*
X22835Y149213D02*
D03*
Y146063D02*
D03*
X19685Y149213D02*
D03*
Y146063D02*
D03*
Y142913D02*
D03*
X16535D02*
D03*
X38583Y133465D02*
D03*
X35433Y133465D02*
D03*
X32283D02*
D03*
X38583Y127165D02*
D03*
X29134Y130315D02*
D03*
X32283Y114567D02*
D03*
X25984Y120866D02*
D03*
Y124016D02*
D03*
Y117717D02*
D03*
X22835Y124016D02*
D03*
X19685D02*
D03*
X22835Y120866D02*
D03*
Y117717D02*
D03*
X19685Y120866D02*
D03*
X16535Y130315D02*
D03*
X16535Y133465D02*
D03*
X16535Y117717D02*
D03*
X13386Y127165D02*
D03*
Y114567D02*
D03*
X7087D02*
D03*
X34449Y60039D02*
D03*
X37402Y55118D02*
D03*
X70866Y58071D02*
D03*
X62008Y165354D02*
D03*
X19685Y106313D02*
D03*
Y127187D02*
D03*
X16732Y124016D02*
D03*
X25061Y234252D02*
D03*
X22789D02*
D03*
X20518D02*
D03*
X10069D02*
D03*
X12341D02*
D03*
X14612D02*
D03*
X38386Y235441D02*
D03*
X6890Y129993D02*
D03*
X18701Y98425D02*
D03*
X10258Y114567D02*
D03*
Y108268D02*
D03*
X2067Y121063D02*
D03*
X13952Y98230D02*
D03*
X12568Y100031D02*
D03*
X42323Y100394D02*
D03*
X66929Y101378D02*
D03*
X13772Y78066D02*
D03*
X13780Y75787D02*
D03*
X58382Y76098D02*
D03*
X56776Y74492D02*
D03*
X16535Y114567D02*
D03*
Y111417D02*
D03*
X7087D02*
D03*
X28543Y225394D02*
D03*
X7152Y126822D02*
D03*
X10236Y130315D02*
D03*
X16535Y158639D02*
D03*
Y155468D02*
D03*
X41339Y181102D02*
D03*
X22737Y213636D02*
D03*
X20733Y212567D02*
D03*
X36514Y165496D02*
D03*
X18701Y213583D02*
D03*
X25984Y158661D02*
D03*
X32305D02*
D03*
X29134D02*
D03*
X12895Y213636D02*
D03*
X10890Y212567D02*
D03*
X8858Y213583D02*
D03*
X47547Y181102D02*
D03*
X38561Y155512D02*
D03*
X41930Y158661D02*
D03*
Y161811D02*
D03*
X16535D02*
D03*
X25984D02*
D03*
X45276Y130905D02*
D03*
X22835Y142913D02*
D03*
X25984Y146063D02*
D03*
X38583Y124016D02*
D03*
X41732Y149213D02*
D03*
X44882Y127165D02*
D03*
X41732Y120866D02*
D03*
X51181Y133465D02*
D03*
X44882Y149213D02*
D03*
X32283Y152362D02*
D03*
X51181Y139764D02*
D03*
X29134Y152362D02*
D03*
X38583D02*
D03*
Y120866D02*
D03*
X16535Y127165D02*
D03*
X25984Y152362D02*
D03*
X41732D02*
D03*
X51181Y146063D02*
D03*
X22835Y152362D02*
D03*
X44882D02*
D03*
X54331Y139764D02*
D03*
X29134Y155512D02*
D03*
X25984Y114567D02*
D03*
X54331Y142913D02*
D03*
X25984Y155512D02*
D03*
X41732D02*
D03*
X19685Y117717D02*
D03*
X44882Y120866D02*
D03*
X48031Y124016D02*
D03*
X51181Y149213D02*
D03*
X19685Y152362D02*
D03*
X22835Y114567D02*
D03*
X13386Y124016D02*
D03*
Y146063D02*
D03*
X54331D02*
D03*
X22835Y155512D02*
D03*
X57480Y136614D02*
D03*
Y139764D02*
D03*
X19685Y114567D02*
D03*
X54331Y149213D02*
D03*
X19685Y155512D02*
D03*
X10236Y127165D02*
D03*
X48031Y117717D02*
D03*
X51181Y117717D02*
D03*
X51181Y155512D02*
D03*
X51181Y114567D02*
D03*
X57480D02*
D03*
X54331Y158661D02*
D03*
Y108268D02*
D03*
X60630Y111417D02*
D03*
X57480Y161811D02*
D03*
M02*
