G04*
G04 #@! TF.GenerationSoftware,Altium Limited,Altium Designer,21.8.1 (53)*
G04*
G04 Layer_Color=65535*
%FSLAX25Y25*%
%MOIN*%
G70*
G04*
G04 #@! TF.SameCoordinates,EB042402-48BD-493C-904A-A6360FF8A717*
G04*
G04*
G04 #@! TF.FilePolarity,Positive*
G04*
G01*
G75*
%ADD10C,0.00984*%
%ADD11C,0.00394*%
%ADD12C,0.00787*%
%ADD13C,0.01000*%
%ADD14C,0.00591*%
%ADD15C,0.00656*%
%ADD16C,0.00658*%
G36*
X61417Y160908D02*
X59727Y162598D01*
X61417D01*
Y160908D01*
D02*
G37*
D10*
X44094Y183957D02*
X43356Y184383D01*
Y183530D01*
X44094Y183957D01*
X61319Y165157D02*
X60581Y165584D01*
Y164731D01*
X61319Y165157D01*
D11*
X24606Y225394D02*
D03*
X37618Y59153D02*
D03*
X45965Y223524D02*
D03*
X75492Y59153D02*
D03*
D12*
X39469Y196555D02*
X41043D01*
Y194980D02*
Y196555D01*
X27854D02*
X29429D01*
X27854Y194980D02*
Y196555D01*
Y183366D02*
Y184941D01*
Y183366D02*
X29429D01*
X39469D02*
X41043D01*
Y184941D01*
X46654Y100591D02*
X61614D01*
X46654Y78937D02*
X61614D01*
X24409Y222303D02*
Y223819D01*
Y217126D02*
Y218642D01*
X7087Y222303D02*
Y223819D01*
Y217126D02*
Y218642D01*
X22264Y72736D02*
X25236D01*
X32874D02*
X35846D01*
X22264Y59153D02*
X25236D01*
X32874D02*
X35846D01*
X22264Y71949D02*
Y72736D01*
Y59153D02*
Y59941D01*
X35846Y71949D02*
Y72736D01*
Y59153D02*
Y59941D01*
X30610Y237106D02*
X33583D01*
X41221D02*
X44193D01*
X30610Y223524D02*
X33583D01*
X41221D02*
X44193D01*
X30610Y236319D02*
Y237106D01*
Y223524D02*
Y224311D01*
X44193Y236319D02*
Y237106D01*
Y223524D02*
Y224311D01*
X60138Y72736D02*
X63110D01*
X70748D02*
X73721D01*
X60138Y59153D02*
X63110D01*
X70748D02*
X73721D01*
X60138Y71949D02*
Y72736D01*
Y59153D02*
Y59941D01*
X73721Y71949D02*
Y72736D01*
Y59153D02*
Y59941D01*
X6299Y107480D02*
Y162598D01*
X61417Y107480D02*
Y162598D01*
X6299Y107480D02*
X61417D01*
X6299Y162598D02*
X61417D01*
X59727D02*
X61417Y160908D01*
X16732Y50394D02*
X28543D01*
X11220Y25591D02*
Y41339D01*
X34055Y25591D02*
Y41339D01*
Y-26772D02*
Y13780D01*
X11220Y-26772D02*
X34055D01*
X11220D02*
Y13780D01*
X56902Y274780D02*
Y280279D01*
X17902D02*
X56902D01*
X17902Y274780D02*
Y280279D01*
X45902Y243280D02*
X49902D01*
X24902D02*
X28902D01*
X56902Y253780D02*
Y262280D01*
X17902Y253780D02*
Y262280D01*
X56102Y50394D02*
X67913D01*
X50591Y25591D02*
Y41339D01*
X73425Y25591D02*
Y41339D01*
Y-26772D02*
Y13780D01*
X50591Y-26772D02*
X73425D01*
X50591D02*
Y13780D01*
D13*
X61614Y78937D02*
X62795Y80118D01*
X61614Y77362D02*
Y78937D01*
D14*
X57055Y165776D02*
Y174776D01*
X61055Y165776D02*
Y174776D01*
X53118Y163807D02*
Y172807D01*
X57118Y163807D02*
Y172807D01*
X64929Y213020D02*
Y222020D01*
X68929Y213020D02*
Y222020D01*
Y228768D02*
Y237768D01*
X64929Y228768D02*
Y237768D01*
X63024Y212035D02*
Y221035D01*
X59024Y212035D02*
Y221035D01*
X15717Y167744D02*
Y176744D01*
X19716Y167744D02*
Y176744D01*
X20638Y169713D02*
Y178713D01*
X24638Y169713D02*
Y178713D01*
X62429Y166307D02*
X71429D01*
X62429Y170307D02*
X71429D01*
X12933Y101746D02*
X21933D01*
X12933Y105746D02*
X21933D01*
X3906Y92941D02*
Y101941D01*
X7905Y92941D02*
Y101941D01*
X23059Y101347D02*
X32059D01*
X23059Y105347D02*
X32059D01*
X20106Y85598D02*
X29106D01*
X20106Y89598D02*
X29106D01*
X68929Y89004D02*
Y98004D01*
X64929Y89004D02*
Y98004D01*
X44323Y90677D02*
Y99677D01*
X40323Y90677D02*
Y99677D01*
X67945Y106720D02*
Y115720D01*
X63945Y106720D02*
Y115720D01*
X67945Y117547D02*
Y126547D01*
X63945Y117547D02*
Y126547D01*
Y138216D02*
Y147216D01*
X67945Y138216D02*
Y147216D01*
X34417Y170992D02*
Y179992D01*
X38417Y170992D02*
Y179992D01*
X39339Y170697D02*
Y179697D01*
X43339Y170697D02*
Y179697D01*
X44713Y182055D02*
X53713D01*
X44713Y186055D02*
X53713D01*
X52165Y196260D02*
Y203346D01*
X57284Y201772D02*
Y204134D01*
X47047D02*
X57284D01*
X47047Y201772D02*
Y204134D01*
Y195472D02*
Y197835D01*
Y195472D02*
X57284D01*
Y197835D01*
X52362Y72441D02*
X53543D01*
X52362Y61417D02*
Y72441D01*
Y61417D02*
X53543D01*
X56693D02*
X57874D01*
Y72441D01*
X56693D02*
X57874D01*
X52362Y66929D02*
X57874D01*
X61221Y261417D02*
X62402D01*
X61221Y250394D02*
Y261417D01*
Y250394D02*
X62402D01*
X65551D02*
X66732D01*
Y261417D01*
X65551D02*
X66732D01*
X61221Y255906D02*
X66732D01*
X68898Y118110D02*
Y124016D01*
X72835Y118110D02*
Y124016D01*
X77756Y113189D02*
Y119095D01*
X73819Y113189D02*
Y119095D01*
X68898Y108268D02*
Y114173D01*
X72835Y108268D02*
Y114173D01*
X7874Y62992D02*
Y68898D01*
X11811Y62992D02*
Y68898D01*
X12205Y59252D02*
Y72638D01*
X19291Y59252D02*
Y72638D01*
X50197Y72342D02*
X51673D01*
Y53642D02*
Y72342D01*
X50197Y53642D02*
X51673D01*
X38878D02*
X40354D01*
X38878D02*
Y72342D01*
X40354D01*
X38878Y62992D02*
X51673D01*
X48228Y222441D02*
X54134D01*
X48228Y226378D02*
X54134D01*
X64961Y159213D02*
Y165118D01*
X68898Y159213D02*
Y165118D01*
X14764Y90551D02*
Y96457D01*
X18701Y90551D02*
Y96457D01*
X30512Y92283D02*
Y98189D01*
X34449Y92283D02*
Y98189D01*
X44291Y80709D02*
Y86614D01*
X40354Y80709D02*
Y86614D01*
X63976Y129921D02*
Y135827D01*
X67913Y129921D02*
Y135827D01*
X57087Y106299D02*
X62992D01*
X57087Y102362D02*
X62992D01*
X10039Y185433D02*
X23425D01*
X10039Y192520D02*
X23425D01*
X25984Y201969D02*
Y215354D01*
X33071Y201969D02*
Y215354D01*
X29528Y172244D02*
Y178150D01*
X33465Y172244D02*
Y178150D01*
X45276Y187008D02*
X51181D01*
X45276Y190945D02*
X51181D01*
X24606Y172244D02*
Y178150D01*
X28543Y172244D02*
Y178150D01*
X23622Y183071D02*
X29528D01*
X23622Y179134D02*
X29528D01*
X60236Y196457D02*
X73622D01*
X60236Y189370D02*
X73622D01*
X60236Y204331D02*
X73622D01*
X60236Y197244D02*
X73622D01*
X34843Y201969D02*
Y215354D01*
X41929Y201969D02*
Y215354D01*
D15*
X5577Y186352D02*
X9513D01*
Y184384D01*
X8857Y183728D01*
X7545D01*
X6889Y184384D01*
Y186352D01*
Y185040D02*
X5577Y183728D01*
X8857Y179792D02*
X9513Y180448D01*
Y181760D01*
X8857Y182416D01*
X8201D01*
X7545Y181760D01*
Y180448D01*
X6889Y179792D01*
X6233D01*
X5577Y180448D01*
Y181760D01*
X6233Y182416D01*
X9513Y178480D02*
Y175856D01*
Y177168D01*
X5577D01*
X69554Y265747D02*
X70210Y266403D01*
X71522D01*
X72178Y265747D01*
Y265091D01*
X71522Y264435D01*
X70866D01*
X71522D01*
X72178Y263779D01*
Y263123D01*
X71522Y262467D01*
X70210D01*
X69554Y263123D01*
X73490Y266403D02*
Y263779D01*
X74801Y262467D01*
X76113Y263779D01*
Y266403D01*
X77425Y265747D02*
X78081Y266403D01*
X79393D01*
X80049Y265747D01*
Y265091D01*
X79393Y264435D01*
X78737D01*
X79393D01*
X80049Y263779D01*
Y263123D01*
X79393Y262467D01*
X78081D01*
X77425Y263123D01*
X71522Y260497D02*
X74146D01*
X72834D01*
Y256562D01*
X75458Y260497D02*
X78082Y256562D01*
Y260497D02*
X75458Y256562D01*
X71522Y250656D02*
Y254592D01*
X73490D01*
X74146Y253936D01*
Y252624D01*
X73490Y251968D01*
X71522D01*
X72834D02*
X74146Y250656D01*
X75458Y254592D02*
X78082Y250656D01*
Y254592D02*
X75458Y250656D01*
X72178Y248030D02*
X71522Y248686D01*
X70210D01*
X69554Y248030D01*
Y245407D01*
X70210Y244751D01*
X71522D01*
X72178Y245407D01*
Y246719D01*
X70866D01*
X73490Y244751D02*
Y248686D01*
X76113Y244751D01*
Y248686D01*
X77425D02*
Y244751D01*
X79393D01*
X80049Y245407D01*
Y248030D01*
X79393Y248686D01*
X77425D01*
X33794Y221784D02*
X33138Y222440D01*
X31826D01*
X31170Y221784D01*
Y219161D01*
X31826Y218505D01*
X33138D01*
X33794Y219161D01*
X37729Y218505D02*
X35105D01*
X37729Y221128D01*
Y221784D01*
X37073Y222440D01*
X35761D01*
X35105Y221784D01*
X39041D02*
X39697Y222440D01*
X41009D01*
X41665Y221784D01*
Y221128D01*
X41009Y220472D01*
X40353D01*
X41009D01*
X41665Y219816D01*
Y219161D01*
X41009Y218505D01*
X39697D01*
X39041Y219161D01*
D16*
X73162Y134514D02*
X73818Y135169D01*
Y136481D01*
X73162Y137137D01*
X70539D01*
X69883Y136481D01*
Y135169D01*
X70539Y134514D01*
X73818Y130578D02*
X73162Y131890D01*
X71850Y133202D01*
X70539D01*
X69883Y132546D01*
Y131234D01*
X70539Y130578D01*
X71194D01*
X71850Y131234D01*
Y133202D01*
X73162Y129266D02*
X73818Y128610D01*
Y127298D01*
X73162Y126642D01*
X70539D01*
X69883Y127298D01*
Y128610D01*
X70539Y129266D01*
X73162D01*
X78084Y130577D02*
X78740Y131233D01*
Y132545D01*
X78084Y133200D01*
X75460D01*
X74804Y132545D01*
Y131233D01*
X75460Y130577D01*
X78740Y126641D02*
Y129265D01*
X76772D01*
X77428Y127953D01*
Y127297D01*
X76772Y126641D01*
X75460D01*
X74804Y127297D01*
Y128609D01*
X75460Y129265D01*
Y125329D02*
X74804Y124673D01*
Y123361D01*
X75460Y122705D01*
X78084D01*
X78740Y123361D01*
Y124673D01*
X78084Y125329D01*
X77428D01*
X76772Y124673D01*
Y122705D01*
X55447Y58070D02*
X52823D01*
Y56102D01*
X54135D01*
X52823D01*
Y54135D01*
X56759Y58070D02*
Y54135D01*
X58727D01*
X59383Y54790D01*
Y55446D01*
X58727Y56102D01*
X56759D01*
X58727D01*
X59383Y56758D01*
Y57414D01*
X58727Y58070D01*
X56759D01*
X63319Y54135D02*
X60695D01*
X63319Y56758D01*
Y57414D01*
X62663Y58070D01*
X61351D01*
X60695Y57414D01*
X66273Y273621D02*
X64961D01*
X65617D01*
Y270342D01*
X64961Y269686D01*
X64305D01*
X63649Y270342D01*
X70209Y269686D02*
X67585D01*
X70209Y272309D01*
Y272966D01*
X69553Y273621D01*
X68241D01*
X67585Y272966D01*
X13779Y97768D02*
X13123D01*
X11811Y96456D01*
X13123Y95144D01*
X13779D01*
X11811Y96456D02*
X9843D01*
Y91208D02*
Y93832D01*
X12467Y91208D01*
X13123D01*
X13779Y91864D01*
Y93176D01*
X13123Y93832D01*
X63321Y86614D02*
Y85958D01*
X64633Y84646D01*
X65945Y85958D01*
Y86614D01*
X64633Y84646D02*
Y82678D01*
X67257D02*
X68569D01*
X67913D01*
Y86614D01*
X67257Y85958D01*
X7547Y230314D02*
Y227034D01*
X8203Y226379D01*
X9515D01*
X10171Y227034D01*
Y230314D01*
X14107D02*
X12795Y229658D01*
X11483Y228346D01*
Y227034D01*
X12139Y226379D01*
X13451D01*
X14107Y227034D01*
Y227691D01*
X13451Y228346D01*
X11483D01*
X18413Y78740D02*
Y75460D01*
X19069Y74804D01*
X20381D01*
X21037Y75460D01*
Y78740D01*
X24973D02*
X22349D01*
Y76772D01*
X23661Y77428D01*
X24317D01*
X24973Y76772D01*
Y75460D01*
X24317Y74804D01*
X23005D01*
X22349Y75460D01*
X21327Y240157D02*
Y236877D01*
X21982Y236221D01*
X23294D01*
X23950Y236877D01*
Y240157D01*
X27230Y236221D02*
Y240157D01*
X25262Y238189D01*
X27886D01*
X70539Y78740D02*
Y75460D01*
X71195Y74804D01*
X72507D01*
X73163Y75460D01*
Y78740D01*
X74475Y78084D02*
X75131Y78740D01*
X76443D01*
X77099Y78084D01*
Y77428D01*
X76443Y76772D01*
X75787D01*
X76443D01*
X77099Y76116D01*
Y75460D01*
X76443Y74804D01*
X75131D01*
X74475Y75460D01*
X19358Y199802D02*
Y196523D01*
X20014Y195867D01*
X21326D01*
X21982Y196523D01*
Y199802D01*
X25918Y195867D02*
X23294D01*
X25918Y198491D01*
Y199147D01*
X25262Y199802D01*
X23950D01*
X23294Y199147D01*
X3282Y168306D02*
Y165027D01*
X3938Y164371D01*
X5250D01*
X5906Y165027D01*
Y168306D01*
X7217Y164371D02*
X8529D01*
X7873D01*
Y168306D01*
X7217Y167650D01*
X52823Y176182D02*
Y180117D01*
X54791D01*
X55447Y179462D01*
Y178150D01*
X54791Y177494D01*
X52823D01*
X54135D02*
X55447Y176182D01*
X56759Y179462D02*
X57415Y180117D01*
X58727D01*
X59383Y179462D01*
Y178805D01*
X58727Y178150D01*
X58071D01*
X58727D01*
X59383Y177494D01*
Y176838D01*
X58727Y176182D01*
X57415D01*
X56759Y176838D01*
X63319Y176182D02*
X60695D01*
X63319Y178805D01*
Y179462D01*
X62663Y180117D01*
X61351D01*
X60695Y179462D01*
X47245Y172899D02*
X51180D01*
Y170931D01*
X50524Y170275D01*
X49213D01*
X48557Y170931D01*
Y172899D01*
Y171587D02*
X47245Y170275D01*
X50524Y168963D02*
X51180Y168307D01*
Y166995D01*
X50524Y166339D01*
X49869D01*
X49213Y166995D01*
Y167651D01*
Y166995D01*
X48557Y166339D01*
X47901D01*
X47245Y166995D01*
Y168307D01*
X47901Y168963D01*
X47245Y165027D02*
Y163715D01*
Y164371D01*
X51180D01*
X50524Y165027D01*
X53150Y221783D02*
X57086D01*
Y219815D01*
X56430Y219159D01*
X55118D01*
X54462Y219815D01*
Y221783D01*
Y220471D02*
X53150Y219159D01*
Y215224D02*
Y217847D01*
X55774Y215224D01*
X56430D01*
X57086Y215880D01*
Y217191D01*
X56430Y217847D01*
X57086Y211288D02*
Y213912D01*
X55118D01*
X55774Y212600D01*
Y211944D01*
X55118Y211288D01*
X53806D01*
X53150Y211944D01*
Y213256D01*
X53806Y213912D01*
X60040Y238515D02*
X63976D01*
Y236547D01*
X63320Y235892D01*
X62008D01*
X61352Y236547D01*
Y238515D01*
Y237204D02*
X60040Y235892D01*
Y231956D02*
Y234580D01*
X62664Y231956D01*
X63320D01*
X63976Y232612D01*
Y233924D01*
X63320Y234580D01*
X60040Y228676D02*
X63976D01*
X62008Y230644D01*
Y228020D01*
X48229Y220471D02*
X52165D01*
Y218503D01*
X51509Y217847D01*
X50197D01*
X49541Y218503D01*
Y220471D01*
Y219159D02*
X48229Y217847D01*
Y216535D02*
Y215223D01*
Y215879D01*
X52165D01*
X51509Y216535D01*
X48885Y213255D02*
X48229Y212599D01*
Y211287D01*
X48885Y210631D01*
X51509D01*
X52165Y211287D01*
Y212599D01*
X51509Y213255D01*
X50853D01*
X50197Y212599D01*
Y210631D01*
X10827Y177164D02*
X14763D01*
Y175196D01*
X14107Y174540D01*
X12795D01*
X12139Y175196D01*
Y177164D01*
Y175852D02*
X10827Y174540D01*
Y173228D02*
Y171916D01*
Y172572D01*
X14763D01*
X14107Y173228D01*
X14763Y167324D02*
X14107Y168636D01*
X12795Y169948D01*
X11483D01*
X10827Y169292D01*
Y167980D01*
X11483Y167324D01*
X12139D01*
X12795Y167980D01*
Y169948D01*
X64962Y171260D02*
Y175196D01*
X66930D01*
X67586Y174540D01*
Y173228D01*
X66930Y172572D01*
X64962D01*
X66274D02*
X67586Y171260D01*
X68898D02*
X70210D01*
X69554D01*
Y175196D01*
X68898Y174540D01*
X74146Y171260D02*
Y175196D01*
X72178Y173228D01*
X74802D01*
X1970Y102363D02*
Y106299D01*
X3938D01*
X4594Y105643D01*
Y104331D01*
X3938Y103675D01*
X1970D01*
X3282D02*
X4594Y102363D01*
X5906D02*
X7218D01*
X6562D01*
Y106299D01*
X5906Y105643D01*
X9186D02*
X9842Y106299D01*
X11153D01*
X11809Y105643D01*
Y104987D01*
X11153Y104331D01*
X10498D01*
X11153D01*
X11809Y103675D01*
Y103019D01*
X11153Y102363D01*
X9842D01*
X9186Y103019D01*
X2953Y90550D02*
X6889D01*
Y88582D01*
X6233Y87926D01*
X4921D01*
X4265Y88582D01*
Y90550D01*
Y89238D02*
X2953Y87926D01*
Y86614D02*
Y85302D01*
Y85958D01*
X6889D01*
X6233Y86614D01*
X2953Y80710D02*
Y83334D01*
X5577Y80710D01*
X6233D01*
X6889Y81366D01*
Y82678D01*
X6233Y83334D01*
X34122Y101379D02*
Y105314D01*
X36090D01*
X36746Y104658D01*
Y103347D01*
X36090Y102690D01*
X34122D01*
X35434D02*
X36746Y101379D01*
X38058D02*
X39370D01*
X38714D01*
Y105314D01*
X38058Y104658D01*
X41338Y101379D02*
X42649D01*
X41994D01*
Y105314D01*
X41338Y104658D01*
X19687Y79725D02*
Y83661D01*
X21655D01*
X22310Y83005D01*
Y81693D01*
X21655Y81037D01*
X19687D01*
X20999D02*
X22310Y79725D01*
X23622D02*
X24934D01*
X24278D01*
Y83661D01*
X23622Y83005D01*
X26902D02*
X27558Y83661D01*
X28870D01*
X29526Y83005D01*
Y80381D01*
X28870Y79725D01*
X27558D01*
X26902Y80381D01*
Y83005D01*
X69555Y87599D02*
Y91535D01*
X71523D01*
X72179Y90879D01*
Y89567D01*
X71523Y88911D01*
X69555D01*
X70867D02*
X72179Y87599D01*
X73491Y88255D02*
X74147Y87599D01*
X75459D01*
X76114Y88255D01*
Y90879D01*
X75459Y91535D01*
X74147D01*
X73491Y90879D01*
Y90223D01*
X74147Y89567D01*
X76114D01*
X35434Y98457D02*
X39369D01*
Y96489D01*
X38713Y95833D01*
X37402D01*
X36746Y96489D01*
Y98457D01*
Y97145D02*
X35434Y95833D01*
X38713Y94521D02*
X39369Y93865D01*
Y92553D01*
X38713Y91897D01*
X38058D01*
X37402Y92553D01*
X36746Y91897D01*
X36090D01*
X35434Y92553D01*
Y93865D01*
X36090Y94521D01*
X36746D01*
X37402Y93865D01*
X38058Y94521D01*
X38713D01*
X37402Y93865D02*
Y92553D01*
X68898Y147965D02*
X72834D01*
Y145997D01*
X72178Y145341D01*
X70866D01*
X70210Y145997D01*
Y147965D01*
Y146653D02*
X68898Y145341D01*
Y142061D02*
X72834D01*
X70866Y144029D01*
Y141405D01*
X34449Y169914D02*
X38385D01*
Y167946D01*
X37729Y167290D01*
X36417D01*
X35761Y167946D01*
Y169914D01*
Y168602D02*
X34449Y167290D01*
X37729Y165978D02*
X38385Y165322D01*
Y164010D01*
X37729Y163354D01*
X37073D01*
X36417Y164010D01*
Y164666D01*
Y164010D01*
X35761Y163354D01*
X35105D01*
X34449Y164010D01*
Y165322D01*
X35105Y165978D01*
X39371Y169618D02*
X43306D01*
Y167650D01*
X42650Y166995D01*
X41339D01*
X40683Y167650D01*
Y169618D01*
Y168306D02*
X39371Y166995D01*
Y163059D02*
Y165683D01*
X41995Y163059D01*
X42650D01*
X43306Y163715D01*
Y165027D01*
X42650Y165683D01*
X45666Y176988D02*
Y180923D01*
X47634D01*
X48290Y180268D01*
Y178956D01*
X47634Y178300D01*
X45666D01*
X46978D02*
X48290Y176988D01*
X49602D02*
X50914D01*
X50258D01*
Y180923D01*
X49602Y180268D01*
X48557Y209645D02*
Y205709D01*
X51181D01*
X52493D02*
X53805D01*
X53149D01*
Y209645D01*
X52493Y208989D01*
X76116Y202755D02*
X74804D01*
X75460D01*
Y199476D01*
X74804Y198819D01*
X74148D01*
X73492Y199476D01*
X80051Y202755D02*
X78740Y202099D01*
X77428Y200787D01*
Y199476D01*
X78084Y198819D01*
X79396D01*
X80051Y199476D01*
Y200131D01*
X79396Y200787D01*
X77428D01*
X5249Y40354D02*
X3938D01*
X4594D01*
Y37074D01*
X3938Y36418D01*
X3282D01*
X2626Y37074D01*
X6561Y39698D02*
X7217Y40354D01*
X8529D01*
X9185Y39698D01*
Y39042D01*
X8529Y38386D01*
X7873D01*
X8529D01*
X9185Y37730D01*
Y37074D01*
X8529Y36418D01*
X7217D01*
X6561Y37074D01*
X43307Y51180D02*
X41995D01*
X42651D01*
Y47901D01*
X41995Y47245D01*
X41339D01*
X40683Y47901D01*
X44619Y47245D02*
X45931D01*
X45275D01*
Y51180D01*
X44619Y50524D01*
X64960Y247047D02*
Y249670D01*
X62992D01*
Y248358D01*
Y249670D01*
X61024D01*
X64960Y245735D02*
X61024D01*
Y243767D01*
X61680Y243111D01*
X62336D01*
X62992Y243767D01*
Y245735D01*
Y243767D01*
X63648Y243111D01*
X64304D01*
X64960Y243767D01*
Y245735D01*
X61024Y241799D02*
Y240487D01*
Y241143D01*
X64960D01*
X64304Y241799D01*
X7219Y77099D02*
X6563Y77755D01*
X5251D01*
X4595Y77099D01*
Y74476D01*
X5251Y73820D01*
X6563D01*
X7219Y74476D01*
X11154Y77755D02*
X8531D01*
Y75787D01*
X9843Y76443D01*
X10498D01*
X11154Y75787D01*
Y74476D01*
X10498Y73820D01*
X9187D01*
X8531Y74476D01*
X15090Y73820D02*
X12466D01*
X15090Y76443D01*
Y77099D01*
X14434Y77755D01*
X13122D01*
X12466Y77099D01*
X9843Y56430D02*
X9187Y57086D01*
X7875D01*
X7219Y56430D01*
Y53806D01*
X7875Y53150D01*
X9187D01*
X9843Y53806D01*
X13779Y57086D02*
X11155D01*
Y55118D01*
X12467Y55774D01*
X13123D01*
X13779Y55118D01*
Y53806D01*
X13123Y53150D01*
X11811D01*
X11155Y53806D01*
X15091Y53150D02*
X16403D01*
X15747D01*
Y57086D01*
X15091Y56430D01*
X42652Y77099D02*
X41996Y77755D01*
X40684D01*
X40028Y77099D01*
Y74476D01*
X40684Y73820D01*
X41996D01*
X42652Y74476D01*
X46587Y77755D02*
X43964D01*
Y75787D01*
X45276Y76443D01*
X45932D01*
X46587Y75787D01*
Y74476D01*
X45932Y73820D01*
X44620D01*
X43964Y74476D01*
X47899Y77099D02*
X48555Y77755D01*
X49867D01*
X50523Y77099D01*
Y74476D01*
X49867Y73820D01*
X48555D01*
X47899Y74476D01*
Y77099D01*
X49542Y230643D02*
X48886Y231299D01*
X47574D01*
X46918Y230643D01*
Y228019D01*
X47574Y227363D01*
X48886D01*
X49542Y228019D01*
X52821Y227363D02*
Y231299D01*
X50853Y229331D01*
X53477D01*
X54789Y228019D02*
X55445Y227363D01*
X56757D01*
X57413Y228019D01*
Y230643D01*
X56757Y231299D01*
X55445D01*
X54789Y230643D01*
Y229987D01*
X55445Y229331D01*
X57413D01*
X73162Y162073D02*
X73818Y162729D01*
Y164041D01*
X73162Y164697D01*
X70539D01*
X69883Y164041D01*
Y162729D01*
X70539Y162073D01*
X69883Y158793D02*
X73818D01*
X71850Y160761D01*
Y158137D01*
X73162Y156825D02*
X73818Y156169D01*
Y154857D01*
X73162Y154201D01*
X72506D01*
X71850Y154857D01*
X71194Y154201D01*
X70539D01*
X69883Y154857D01*
Y156169D01*
X70539Y156825D01*
X71194D01*
X71850Y156169D01*
X72506Y156825D01*
X73162D01*
X71850Y156169D02*
Y154857D01*
X17060Y85301D02*
X17716Y85957D01*
Y87269D01*
X17060Y87925D01*
X14436D01*
X13780Y87269D01*
Y85957D01*
X14436Y85301D01*
X13780Y82021D02*
X17716D01*
X15748Y83989D01*
Y81365D01*
X17716Y80053D02*
Y77429D01*
X17060D01*
X14436Y80053D01*
X13780D01*
X33792Y88017D02*
X34448Y88674D01*
Y89985D01*
X33792Y90641D01*
X31168D01*
X30512Y89985D01*
Y88674D01*
X31168Y88017D01*
X30512Y84738D02*
X34448D01*
X32480Y86706D01*
Y84082D01*
X34448Y80146D02*
X33792Y81458D01*
X32480Y82770D01*
X31168D01*
X30512Y82114D01*
Y80802D01*
X31168Y80146D01*
X31824D01*
X32480Y80802D01*
Y82770D01*
X38713Y86285D02*
X39369Y86941D01*
Y88253D01*
X38713Y88909D01*
X36090D01*
X35434Y88253D01*
Y86941D01*
X36090Y86285D01*
X35434Y83005D02*
X39369D01*
X37402Y84973D01*
Y82349D01*
X39369Y78414D02*
Y81038D01*
X37402D01*
X38058Y79726D01*
Y79070D01*
X37402Y78414D01*
X36090D01*
X35434Y79070D01*
Y80382D01*
X36090Y81038D01*
X68242Y103674D02*
X67586Y104330D01*
X66274D01*
X65618Y103674D01*
Y101050D01*
X66274Y100394D01*
X67586D01*
X68242Y101050D01*
X69554Y103674D02*
X70210Y104330D01*
X71522D01*
X72178Y103674D01*
Y103018D01*
X71522Y102362D01*
X70866D01*
X71522D01*
X72178Y101706D01*
Y101050D01*
X71522Y100394D01*
X70210D01*
X69554Y101050D01*
X76114Y104330D02*
X73490D01*
Y102362D01*
X74802Y103018D01*
X75458D01*
X76114Y102362D01*
Y101050D01*
X75458Y100394D01*
X74146D01*
X73490Y101050D01*
X11812Y197178D02*
X11156Y197834D01*
X9844D01*
X9188Y197178D01*
Y194554D01*
X9844Y193898D01*
X11156D01*
X11812Y194554D01*
X13124Y197178D02*
X13780Y197834D01*
X15091D01*
X15747Y197178D01*
Y196522D01*
X15091Y195866D01*
X14435D01*
X15091D01*
X15747Y195210D01*
Y194554D01*
X15091Y193898D01*
X13780D01*
X13124Y194554D01*
X17059Y193898D02*
X18371D01*
X17715D01*
Y197834D01*
X17059Y197178D01*
X17061Y208989D02*
X16405Y209645D01*
X15093D01*
X14437Y208989D01*
Y206365D01*
X15093Y205709D01*
X16405D01*
X17061Y206365D01*
X18373Y208989D02*
X19029Y209645D01*
X20341D01*
X20997Y208989D01*
Y208333D01*
X20341Y207677D01*
X19685D01*
X20341D01*
X20997Y207021D01*
Y206365D01*
X20341Y205709D01*
X19029D01*
X18373Y206365D01*
X22309Y208989D02*
X22965Y209645D01*
X24277D01*
X24933Y208989D01*
Y206365D01*
X24277Y205709D01*
X22965D01*
X22309Y206365D01*
Y208989D01*
X58398Y191600D02*
X59054Y192256D01*
Y193568D01*
X58398Y194224D01*
X55775D01*
X55119Y193568D01*
Y192256D01*
X55775Y191600D01*
X55119Y187664D02*
Y190288D01*
X57743Y187664D01*
X58398D01*
X59054Y188320D01*
Y189632D01*
X58398Y190288D01*
Y186353D02*
X59054Y185697D01*
Y184385D01*
X58398Y183729D01*
X57743D01*
X57087Y184385D01*
X56431Y183729D01*
X55775D01*
X55119Y184385D01*
Y185697D01*
X55775Y186353D01*
X56431D01*
X57087Y185697D01*
X57743Y186353D01*
X58398D01*
X57087Y185697D02*
Y184385D01*
X13124Y182414D02*
X12468Y183070D01*
X11156D01*
X10500Y182414D01*
Y179790D01*
X11156Y179135D01*
X12468D01*
X13124Y179790D01*
X17060Y179135D02*
X14436D01*
X17060Y181758D01*
Y182414D01*
X16404Y183070D01*
X15092D01*
X14436Y182414D01*
X20996Y183070D02*
X19684Y182414D01*
X18372Y181102D01*
Y179790D01*
X19028Y179135D01*
X20340D01*
X20996Y179790D01*
Y180446D01*
X20340Y181102D01*
X18372D01*
X65290Y187336D02*
X64634Y187991D01*
X63322D01*
X62666Y187336D01*
Y184712D01*
X63322Y184056D01*
X64634D01*
X65290Y184712D01*
X69225Y184056D02*
X66602D01*
X69225Y186680D01*
Y187336D01*
X68569Y187991D01*
X67257D01*
X66602Y187336D01*
X73161Y187991D02*
X70537D01*
Y186024D01*
X71849Y186680D01*
X72505D01*
X73161Y186024D01*
Y184712D01*
X72505Y184056D01*
X71193D01*
X70537Y184712D01*
X62337Y208989D02*
X61681Y209645D01*
X60369D01*
X59713Y208989D01*
Y206365D01*
X60369Y205709D01*
X61681D01*
X62337Y206365D01*
X66272Y205709D02*
X63649D01*
X66272Y208333D01*
Y208989D01*
X65617Y209645D01*
X64305D01*
X63649Y208989D01*
X69552Y205709D02*
Y209645D01*
X67585Y207677D01*
X70208D01*
M02*
