G04*
G04 #@! TF.GenerationSoftware,Altium Limited,Altium Designer,21.8.1 (53)*
G04*
G04 Layer_Physical_Order=2*
G04 Layer_Color=6736896*
%FSLAX25Y25*%
%MOIN*%
G70*
G04*
G04 #@! TF.SameCoordinates,1AEC3761-3BFF-49DB-B967-98B5A1D70BD2*
G04*
G04*
G04 #@! TF.FilePolarity,Positive*
G04*
G01*
G75*
%ADD74C,0.05906*%
%ADD77C,0.06693*%
%ADD80C,0.01772*%
G36*
X75460Y274386D02*
X76749Y274130D01*
X77962Y273627D01*
X79055Y272897D01*
X79984Y271968D01*
X80714Y270876D01*
X81217Y269662D01*
X81473Y268373D01*
X81473Y267717D01*
X81537Y267392D01*
X81008Y266863D01*
X80709Y266140D01*
Y265356D01*
X81008Y264633D01*
X81370Y264272D01*
X81008Y263910D01*
X80709Y263187D01*
Y262404D01*
X81008Y261680D01*
X81370Y261319D01*
X81008Y260958D01*
X80709Y260234D01*
Y259451D01*
X81008Y258727D01*
X81370Y258366D01*
X81008Y258005D01*
X80709Y257281D01*
Y256498D01*
X81008Y255775D01*
X81562Y255221D01*
X81907Y255078D01*
X82116Y254524D01*
X82106Y254459D01*
X82078Y254393D01*
X82013Y254294D01*
X81716Y253578D01*
X81693Y253461D01*
X81647Y253352D01*
X81496Y252591D01*
Y252473D01*
X81473Y252356D01*
Y251969D01*
Y193586D01*
X80973Y193486D01*
X80885Y193698D01*
X80495Y194088D01*
X79986Y194299D01*
X79435D01*
X78925Y194088D01*
X78535Y193698D01*
X78324Y193189D01*
Y192638D01*
X78535Y192128D01*
X78925Y191739D01*
X79435Y191528D01*
X79986D01*
X80495Y191739D01*
X80885Y192128D01*
X80973Y192340D01*
X81473Y192241D01*
Y145358D01*
X80973Y145258D01*
X80885Y145470D01*
X80495Y145860D01*
X79986Y146071D01*
X79435D01*
X78925Y145860D01*
X78535Y145470D01*
X78324Y144961D01*
Y144409D01*
X78535Y143900D01*
X78925Y143510D01*
X79435Y143299D01*
X79986D01*
X80495Y143510D01*
X80885Y143900D01*
X80973Y144112D01*
X81473Y144013D01*
Y35433D01*
Y35045D01*
X81496Y34929D01*
Y34810D01*
X81647Y34050D01*
X81693Y33940D01*
X81716Y33824D01*
X82013Y33107D01*
X82079Y33009D01*
X82106Y32942D01*
X82116Y32877D01*
X81907Y32324D01*
X81562Y32181D01*
X81008Y31627D01*
X80709Y30903D01*
Y30120D01*
X81008Y29397D01*
X81370Y29035D01*
X81008Y28674D01*
X80709Y27951D01*
Y27167D01*
X81008Y26444D01*
X81370Y26083D01*
X81008Y25721D01*
X80709Y24998D01*
Y24215D01*
X81008Y23491D01*
X81370Y23130D01*
X81008Y22769D01*
X80709Y22045D01*
Y21262D01*
X81008Y20538D01*
X81537Y20009D01*
X81473Y19685D01*
X81473Y19028D01*
X81217Y17740D01*
X80714Y16526D01*
X79984Y15433D01*
X79055Y14504D01*
X77962Y13774D01*
X76749Y13272D01*
X75460Y13015D01*
X7217D01*
X5928Y13272D01*
X4715Y13774D01*
X3622Y14504D01*
X2693Y15433D01*
X1963Y16526D01*
X1460Y17740D01*
X1204Y19028D01*
Y19685D01*
X1140Y20009D01*
X1669Y20538D01*
X1969Y21262D01*
Y22045D01*
X1669Y22769D01*
X1307Y23130D01*
X1669Y23491D01*
X1969Y24215D01*
Y24998D01*
X1669Y25721D01*
X1307Y26083D01*
X1669Y26444D01*
X1969Y27167D01*
Y27951D01*
X1669Y28674D01*
X1307Y29035D01*
X1669Y29397D01*
X1969Y30120D01*
Y30903D01*
X1669Y31627D01*
X1115Y32181D01*
X770Y32324D01*
X561Y32877D01*
X571Y32942D01*
X599Y33009D01*
X665Y33107D01*
X961Y33824D01*
X984Y33940D01*
X1030Y34050D01*
X1181Y34810D01*
Y34929D01*
X1204Y35045D01*
Y35433D01*
Y96248D01*
X1436Y96390D01*
X1704Y96491D01*
X2153Y96305D01*
X2704D01*
X3213Y96516D01*
X3603Y96906D01*
X3814Y97416D01*
Y97967D01*
X3603Y98476D01*
X3213Y98866D01*
X3208Y98868D01*
X3091Y99458D01*
X3242Y99609D01*
X3453Y100118D01*
Y100669D01*
X3242Y101179D01*
X2852Y101568D01*
X2342Y101779D01*
X1791D01*
X1704Y101743D01*
X1204Y102078D01*
Y119379D01*
X1704Y119713D01*
X1791Y119677D01*
X2342D01*
X2852Y119888D01*
X3242Y120278D01*
X3453Y120787D01*
Y121339D01*
X3242Y121848D01*
X2852Y122238D01*
X2342Y122449D01*
X1791D01*
X1704Y122413D01*
X1204Y122747D01*
Y151853D01*
X1704Y151952D01*
X1778Y151774D01*
X2168Y151384D01*
X2677Y151173D01*
X3228D01*
X3738Y151384D01*
X4128Y151774D01*
X4339Y152283D01*
Y152522D01*
X4806Y152762D01*
X5315Y152551D01*
X5866D01*
X6376Y152762D01*
X6765Y153152D01*
X6976Y153661D01*
Y154213D01*
X6765Y154722D01*
X6376Y155112D01*
X5866Y155323D01*
X5315D01*
X4806Y155112D01*
X4416Y154722D01*
X4205Y154213D01*
Y153974D01*
X3738Y153734D01*
X3228Y153945D01*
X2677D01*
X2168Y153734D01*
X1778Y153344D01*
X1704Y153166D01*
X1204Y153266D01*
Y251969D01*
X1204Y251969D01*
Y252356D01*
X1181Y252473D01*
Y252591D01*
X1030Y253352D01*
X984Y253461D01*
X961Y253578D01*
X665Y254294D01*
X599Y254393D01*
X571Y254459D01*
X561Y254524D01*
X770Y255078D01*
X1115Y255221D01*
X1669Y255775D01*
X1969Y256498D01*
Y257281D01*
X1669Y258005D01*
X1307Y258366D01*
X1669Y258727D01*
X1969Y259451D01*
Y260234D01*
X1669Y260958D01*
X1307Y261319D01*
X1669Y261680D01*
X1969Y262404D01*
Y263187D01*
X1669Y263910D01*
X1307Y264272D01*
X1669Y264633D01*
X1969Y265356D01*
Y266140D01*
X1669Y266863D01*
X1140Y267392D01*
X1204Y267717D01*
Y268373D01*
X1460Y269662D01*
X1963Y270876D01*
X2693Y271968D01*
X3622Y272897D01*
X4715Y273627D01*
X5928Y274130D01*
X7217Y274386D01*
X74803D01*
X75460Y274386D01*
D02*
G37*
%LPC*%
G36*
X75124Y268414D02*
X74864D01*
Y265287D01*
X77992D01*
Y265546D01*
X77767Y266386D01*
X77332Y267140D01*
X76717Y267755D01*
X75964Y268189D01*
X75124Y268414D01*
D02*
G37*
G36*
X74514D02*
X74254D01*
X73414Y268189D01*
X72661Y267755D01*
X72046Y267140D01*
X71611Y266386D01*
X71386Y265546D01*
Y265287D01*
X74514D01*
Y268414D01*
D02*
G37*
G36*
X77992Y264937D02*
X74864D01*
Y261809D01*
X75124D01*
X75964Y262034D01*
X76717Y262469D01*
X77332Y263084D01*
X77767Y263837D01*
X77992Y264677D01*
Y264937D01*
D02*
G37*
G36*
X74514D02*
X71386D01*
Y264677D01*
X71611Y263837D01*
X72046Y263084D01*
X72661Y262469D01*
X73414Y262034D01*
X74254Y261809D01*
X74514D01*
Y264937D01*
D02*
G37*
G36*
X46426Y260035D02*
X45700D01*
X44999Y259848D01*
X44371Y259485D01*
X43858Y258972D01*
X43495Y258343D01*
X43307Y257642D01*
Y256917D01*
X43495Y256216D01*
X43858Y255587D01*
X44371Y255074D01*
X44999Y254711D01*
X45700Y254524D01*
X46426D01*
X47127Y254711D01*
X47755Y255074D01*
X48268Y255587D01*
X48631Y256216D01*
X48819Y256917D01*
Y257642D01*
X48631Y258343D01*
X48268Y258972D01*
X47755Y259485D01*
X47127Y259848D01*
X46426Y260035D01*
D02*
G37*
G36*
X29103D02*
X28377D01*
X27676Y259848D01*
X27048Y259485D01*
X26535Y258972D01*
X26172Y258343D01*
X25984Y257642D01*
Y256917D01*
X26172Y256216D01*
X26535Y255587D01*
X27048Y255074D01*
X27676Y254711D01*
X28377Y254524D01*
X29103D01*
X29804Y254711D01*
X30432Y255074D01*
X30945Y255587D01*
X31308Y256216D01*
X31496Y256917D01*
Y257642D01*
X31308Y258343D01*
X30945Y258972D01*
X30432Y259485D01*
X29804Y259848D01*
X29103Y260035D01*
D02*
G37*
G36*
X7899Y250403D02*
X7640D01*
Y247275D01*
X10767D01*
Y247535D01*
X10542Y248375D01*
X10108Y249128D01*
X9493Y249743D01*
X8739Y250178D01*
X7899Y250403D01*
D02*
G37*
G36*
X7290D02*
X7030D01*
X6190Y250178D01*
X5437Y249743D01*
X4822Y249128D01*
X4387Y248375D01*
X4162Y247535D01*
Y247275D01*
X7290D01*
Y250403D01*
D02*
G37*
G36*
X10767Y246925D02*
X7640D01*
Y243797D01*
X7899D01*
X8739Y244022D01*
X9493Y244457D01*
X10108Y245072D01*
X10542Y245825D01*
X10767Y246665D01*
Y246925D01*
D02*
G37*
G36*
X7290D02*
X4162D01*
Y246665D01*
X4387Y245825D01*
X4822Y245072D01*
X5437Y244457D01*
X6190Y244022D01*
X7030Y243797D01*
X7290D01*
Y246925D01*
D02*
G37*
G36*
X64547Y239575D02*
X63996D01*
X63487Y239364D01*
X63097Y238974D01*
X62886Y238465D01*
Y237913D01*
X63097Y237404D01*
X63487Y237014D01*
X63996Y236803D01*
X64547D01*
X65057Y237014D01*
X65447Y237404D01*
X65658Y237913D01*
Y238465D01*
X65447Y238974D01*
X65057Y239364D01*
X64547Y239575D01*
D02*
G37*
G36*
X80074Y241807D02*
X73469D01*
Y235201D01*
X80074D01*
Y241807D01*
D02*
G37*
G36*
X25337Y235638D02*
X24785D01*
X24276Y235427D01*
X23925Y235076D01*
X23574Y235427D01*
X23065Y235638D01*
X22514D01*
X22004Y235427D01*
X21654Y235076D01*
X21303Y235427D01*
X20793Y235638D01*
X20242D01*
X19733Y235427D01*
X19343Y235037D01*
X19132Y234528D01*
Y233976D01*
X19343Y233467D01*
X19733Y233077D01*
X20242Y232866D01*
X20793D01*
X21303Y233077D01*
X21654Y233428D01*
X22004Y233077D01*
X22514Y232866D01*
X23065D01*
X23574Y233077D01*
X23925Y233428D01*
X24276Y233077D01*
X24785Y232866D01*
X25337D01*
X25846Y233077D01*
X26236Y233467D01*
X26447Y233976D01*
Y234528D01*
X26236Y235037D01*
X25846Y235427D01*
X25337Y235638D01*
D02*
G37*
G36*
X14888D02*
X14336D01*
X13827Y235427D01*
X13476Y235076D01*
X13126Y235427D01*
X12616Y235638D01*
X12065D01*
X11556Y235427D01*
X11205Y235076D01*
X10854Y235427D01*
X10345Y235638D01*
X9793D01*
X9284Y235427D01*
X8894Y235037D01*
X8683Y234528D01*
Y233976D01*
X8894Y233467D01*
X9284Y233077D01*
X9793Y232866D01*
X10345D01*
X10854Y233077D01*
X11205Y233428D01*
X11556Y233077D01*
X12065Y232866D01*
X12616D01*
X13126Y233077D01*
X13476Y233428D01*
X13827Y233077D01*
X14336Y232866D01*
X14888D01*
X15397Y233077D01*
X15787Y233467D01*
X15998Y233976D01*
Y234528D01*
X15787Y235037D01*
X15397Y235427D01*
X14888Y235638D01*
D02*
G37*
G36*
X38662Y236827D02*
X38110D01*
X37601Y236616D01*
X37211Y236226D01*
X37000Y235717D01*
Y235165D01*
X37211Y234656D01*
X37601Y234266D01*
X38110Y234055D01*
X38662D01*
X39171Y234266D01*
X39561Y234656D01*
X39772Y235165D01*
Y235717D01*
X39561Y236226D01*
X39171Y236616D01*
X38662Y236827D01*
D02*
G37*
G36*
X5197Y228748D02*
X4646D01*
X4136Y228537D01*
X3746Y228147D01*
X3535Y227638D01*
Y227086D01*
X3746Y226577D01*
X4136Y226187D01*
X4646Y225976D01*
X5197D01*
X5706Y226187D01*
X6096Y226577D01*
X6307Y227086D01*
Y227638D01*
X6096Y228147D01*
X5706Y228537D01*
X5197Y228748D01*
D02*
G37*
G36*
X77206Y231807D02*
X76337D01*
X75497Y231582D01*
X74744Y231147D01*
X74129Y230532D01*
X73694Y229779D01*
X73469Y228939D01*
Y228069D01*
X73694Y227229D01*
X74129Y226476D01*
X74744Y225861D01*
X75497Y225426D01*
X76337Y225201D01*
X77206D01*
X78047Y225426D01*
X78800Y225861D01*
X79414Y226476D01*
X79849Y227229D01*
X80074Y228069D01*
Y228939D01*
X79849Y229779D01*
X79414Y230532D01*
X78800Y231147D01*
X78047Y231582D01*
X77206Y231807D01*
D02*
G37*
G36*
X17008Y227764D02*
X16457D01*
X15947Y227553D01*
X15557Y227163D01*
X15347Y226654D01*
Y226102D01*
X15557Y225593D01*
X15947Y225203D01*
X16457Y224992D01*
X17008D01*
X17517Y225203D01*
X17907Y225593D01*
X18118Y226102D01*
Y226654D01*
X17907Y227163D01*
X17517Y227553D01*
X17008Y227764D01*
D02*
G37*
G36*
X28819Y226780D02*
X28268D01*
X27758Y226569D01*
X27369Y226179D01*
X27158Y225669D01*
Y225118D01*
X27369Y224609D01*
X27758Y224219D01*
X28268Y224008D01*
X28819D01*
X29328Y224219D01*
X29718Y224609D01*
X29929Y225118D01*
Y225669D01*
X29718Y226179D01*
X29328Y226569D01*
X28819Y226780D01*
D02*
G37*
G36*
X59331Y222153D02*
X58780D01*
X58270Y221942D01*
X57880Y221553D01*
X57669Y221043D01*
Y220492D01*
X57880Y219983D01*
X58270Y219593D01*
X58780Y219382D01*
X59331D01*
X59840Y219593D01*
X60230Y219983D01*
X60441Y220492D01*
Y221043D01*
X60230Y221553D01*
X59840Y221942D01*
X59331Y222153D01*
D02*
G37*
G36*
X43583Y224811D02*
X43031D01*
X42522Y224600D01*
X42132Y224210D01*
X41921Y223701D01*
Y223149D01*
X42132Y222640D01*
X42522Y222250D01*
X42597Y222219D01*
Y221678D01*
X42522Y221647D01*
X42132Y221257D01*
X41921Y220748D01*
Y220197D01*
X42132Y219687D01*
X42522Y219298D01*
X43031Y219087D01*
X43583D01*
X44092Y219298D01*
X44482Y219687D01*
X44513Y219762D01*
X45054D01*
X45085Y219687D01*
X45475Y219298D01*
X45984Y219087D01*
X46536D01*
X47045Y219298D01*
X47435Y219687D01*
X47646Y220197D01*
Y220748D01*
X47435Y221257D01*
X47045Y221647D01*
X46536Y221858D01*
X45984D01*
X45475Y221647D01*
X45085Y221257D01*
X45054Y221183D01*
X44513D01*
X44482Y221257D01*
X44092Y221647D01*
X44017Y221678D01*
Y222219D01*
X44092Y222250D01*
X44482Y222640D01*
X44693Y223149D01*
Y223701D01*
X44482Y224210D01*
X44092Y224600D01*
X43583Y224811D01*
D02*
G37*
G36*
X6181Y218905D02*
X5630D01*
X5121Y218694D01*
X4731Y218305D01*
X4520Y217795D01*
Y217244D01*
X4731Y216735D01*
X5121Y216345D01*
X5630Y216134D01*
X6181D01*
X6690Y216345D01*
X7080Y216735D01*
X7291Y217244D01*
Y217795D01*
X7080Y218305D01*
X6690Y218694D01*
X6181Y218905D01*
D02*
G37*
G36*
X77206Y221807D02*
X76337D01*
X75497Y221582D01*
X74744Y221147D01*
X74129Y220532D01*
X73694Y219779D01*
X73469Y218939D01*
Y218069D01*
X73694Y217229D01*
X74129Y216476D01*
X74744Y215861D01*
X75497Y215426D01*
X76337Y215201D01*
X77206D01*
X78047Y215426D01*
X78800Y215861D01*
X79414Y216476D01*
X79849Y217229D01*
X80074Y218069D01*
Y218939D01*
X79849Y219779D01*
X79414Y220532D01*
X78800Y221147D01*
X78047Y221582D01*
X77206Y221807D01*
D02*
G37*
G36*
X56969Y217921D02*
X56417D01*
X55908Y217710D01*
X55518Y217320D01*
X55307Y216811D01*
Y216260D01*
X55518Y215750D01*
X55908Y215361D01*
X56417Y215150D01*
X56969D01*
X57478Y215361D01*
X57868Y215750D01*
X58079Y216260D01*
Y216811D01*
X57868Y217320D01*
X57478Y217710D01*
X56969Y217921D01*
D02*
G37*
G36*
X52638D02*
X52087D01*
X51577Y217710D01*
X51187Y217320D01*
X50976Y216811D01*
Y216260D01*
X51187Y215750D01*
X51577Y215361D01*
X52087Y215150D01*
X52638D01*
X53147Y215361D01*
X53537Y215750D01*
X53748Y216260D01*
Y216811D01*
X53537Y217320D01*
X53147Y217710D01*
X52638Y217921D01*
D02*
G37*
G36*
X43976D02*
X43425D01*
X42916Y217710D01*
X42526Y217320D01*
X42315Y216811D01*
Y216260D01*
X42526Y215750D01*
X42916Y215361D01*
X43425Y215150D01*
X43976D01*
X44486Y215361D01*
X44876Y215750D01*
X45087Y216260D01*
Y216811D01*
X44876Y217320D01*
X44486Y217710D01*
X43976Y217921D01*
D02*
G37*
G36*
X35315D02*
X34764D01*
X34254Y217710D01*
X33865Y217320D01*
X33654Y216811D01*
Y216260D01*
X33865Y215750D01*
X34254Y215361D01*
X34764Y215150D01*
X35315D01*
X35824Y215361D01*
X36214Y215750D01*
X36425Y216260D01*
Y216811D01*
X36214Y217320D01*
X35824Y217710D01*
X35315Y217921D01*
D02*
G37*
G36*
X30984D02*
X30433D01*
X29924Y217710D01*
X29534Y217320D01*
X29323Y216811D01*
Y216260D01*
X29534Y215750D01*
X29924Y215361D01*
X30433Y215150D01*
X30984D01*
X31494Y215361D01*
X31883Y215750D01*
X32094Y216260D01*
Y216811D01*
X31883Y217320D01*
X31494Y217710D01*
X30984Y217921D01*
D02*
G37*
G36*
X26654D02*
X26102D01*
X25593Y217710D01*
X25203Y217320D01*
X24992Y216811D01*
Y216260D01*
X25203Y215750D01*
X25593Y215361D01*
X26102Y215150D01*
X26654D01*
X27163Y215361D01*
X27553Y215750D01*
X27764Y216260D01*
Y216811D01*
X27553Y217320D01*
X27163Y217710D01*
X26654Y217921D01*
D02*
G37*
G36*
X23013Y215021D02*
X22461D01*
X21952Y214810D01*
X21562Y214421D01*
X21497Y214263D01*
X21008Y213953D01*
X20457D01*
X19916Y214270D01*
X19876Y214368D01*
X19486Y214757D01*
X18976Y214968D01*
X18425D01*
X17916Y214757D01*
X17526Y214368D01*
X17495Y214293D01*
X16954D01*
X16923Y214368D01*
X16533Y214757D01*
X16024Y214968D01*
X15472D01*
X14963Y214757D01*
X14615Y214410D01*
X14290Y214397D01*
X14069Y214421D01*
X13680Y214810D01*
X13170Y215021D01*
X12619D01*
X12110Y214810D01*
X11720Y214421D01*
X11655Y214263D01*
X11166Y213953D01*
X10614D01*
X10074Y214270D01*
X10033Y214368D01*
X9643Y214757D01*
X9134Y214968D01*
X8583D01*
X8073Y214757D01*
X7683Y214368D01*
X7473Y213858D01*
Y213307D01*
X7683Y212798D01*
X8073Y212408D01*
X8583Y212197D01*
X9134D01*
X9675Y211880D01*
X9715Y211782D01*
X10105Y211392D01*
X10614Y211181D01*
X11166D01*
X11675Y211392D01*
X12065Y211782D01*
X12130Y211939D01*
X12619Y212250D01*
X13170D01*
X13680Y212461D01*
X14027Y212809D01*
X14352Y212821D01*
X14573Y212798D01*
X14963Y212408D01*
X15472Y212197D01*
X16024D01*
X16533Y212408D01*
X16923Y212798D01*
X16954Y212872D01*
X17495D01*
X17526Y212798D01*
X17916Y212408D01*
X18425Y212197D01*
X18976D01*
X19517Y211880D01*
X19558Y211782D01*
X19948Y211392D01*
X20457Y211181D01*
X21008D01*
X21518Y211392D01*
X21907Y211782D01*
X21973Y211939D01*
X22461Y212250D01*
X23013D01*
X23522Y212461D01*
X23912Y212851D01*
X24123Y213360D01*
Y213911D01*
X23912Y214421D01*
X23522Y214810D01*
X23013Y215021D01*
D02*
G37*
G36*
X69469Y216642D02*
X68917D01*
X68408Y216431D01*
X68018Y216041D01*
X67807Y215532D01*
Y214980D01*
X68018Y214471D01*
X68408Y214081D01*
X68917Y213870D01*
X69469D01*
X69978Y214081D01*
X70368Y214471D01*
X70579Y214980D01*
Y215532D01*
X70368Y216041D01*
X69978Y216431D01*
X69469Y216642D01*
D02*
G37*
G36*
X45562Y213787D02*
X45011D01*
X44502Y213576D01*
X44112Y213187D01*
X43901Y212677D01*
Y212126D01*
X44112Y211617D01*
X44502Y211227D01*
X45011Y211016D01*
X45562D01*
X46072Y211227D01*
X46461Y211617D01*
X46672Y212126D01*
Y212677D01*
X46461Y213187D01*
X46072Y213576D01*
X45562Y213787D01*
D02*
G37*
G36*
X61299Y213000D02*
X60748D01*
X60239Y212789D01*
X59849Y212399D01*
X59638Y211890D01*
Y211338D01*
X59849Y210829D01*
X60239Y210439D01*
X60748Y210228D01*
X61299D01*
X61809Y210439D01*
X62199Y210829D01*
X62409Y211338D01*
Y211890D01*
X62199Y212399D01*
X61809Y212789D01*
X61299Y213000D01*
D02*
G37*
G36*
X77206Y211807D02*
X76947D01*
Y208679D01*
X80074D01*
Y208939D01*
X79849Y209779D01*
X79414Y210532D01*
X78800Y211147D01*
X78047Y211582D01*
X77206Y211807D01*
D02*
G37*
G36*
X76597D02*
X76337D01*
X75497Y211582D01*
X74744Y211147D01*
X74129Y210532D01*
X73694Y209779D01*
X73469Y208939D01*
Y208679D01*
X76597D01*
Y211807D01*
D02*
G37*
G36*
X80074Y208329D02*
X76947D01*
Y205201D01*
X77206D01*
X78047Y205426D01*
X78800Y205861D01*
X79414Y206476D01*
X79849Y207229D01*
X80074Y208069D01*
Y208329D01*
D02*
G37*
G36*
X76597D02*
X73469D01*
Y208069D01*
X73694Y207229D01*
X74129Y206476D01*
X74744Y205861D01*
X75497Y205426D01*
X76337Y205201D01*
X76597D01*
Y208329D01*
D02*
G37*
G36*
X24868Y205081D02*
X24317D01*
X23807Y204870D01*
X23418Y204480D01*
X23207Y203971D01*
Y203419D01*
X23418Y202910D01*
X23807Y202520D01*
X24317Y202309D01*
X24868D01*
X25377Y202520D01*
X25767Y202910D01*
X25978Y203419D01*
Y203971D01*
X25767Y204480D01*
X25377Y204870D01*
X24868Y205081D01*
D02*
G37*
G36*
X38662Y202173D02*
X38110D01*
X37601Y201962D01*
X37211Y201572D01*
X37000Y201063D01*
Y200512D01*
X37211Y200002D01*
X37601Y199613D01*
X38110Y199402D01*
X38662D01*
X39171Y199613D01*
X39561Y200002D01*
X39772Y200512D01*
Y201063D01*
X39561Y201572D01*
X39171Y201962D01*
X38662Y202173D01*
D02*
G37*
G36*
X22914D02*
X22362D01*
X21853Y201962D01*
X21463Y201572D01*
X21252Y201063D01*
Y200512D01*
X21463Y200002D01*
X21853Y199613D01*
X22362Y199402D01*
X22914D01*
X23423Y199613D01*
X23813Y200002D01*
X24024Y200512D01*
Y201063D01*
X23813Y201572D01*
X23423Y201962D01*
X22914Y202173D01*
D02*
G37*
G36*
X58346Y200205D02*
X57795D01*
X57286Y199994D01*
X56896Y199604D01*
X56685Y199095D01*
Y198543D01*
X56896Y198034D01*
X57286Y197644D01*
X57795Y197433D01*
X58346D01*
X58856Y197644D01*
X59246Y198034D01*
X59457Y198543D01*
Y199095D01*
X59246Y199604D01*
X58856Y199994D01*
X58346Y200205D01*
D02*
G37*
G36*
X16024Y199221D02*
X15472D01*
X14963Y199010D01*
X14573Y198620D01*
X14362Y198110D01*
Y197559D01*
X14573Y197050D01*
X14963Y196660D01*
X15472Y196449D01*
X16024D01*
X16533Y196660D01*
X16923Y197050D01*
X17134Y197559D01*
Y198110D01*
X16923Y198620D01*
X16533Y199010D01*
X16024Y199221D01*
D02*
G37*
G36*
X79419Y198817D02*
X78868D01*
X78359Y198606D01*
X77969Y198216D01*
X77758Y197707D01*
Y197156D01*
X77969Y196646D01*
X78359Y196256D01*
X78868Y196045D01*
X79419D01*
X79928Y196256D01*
X80318Y196646D01*
X80529Y197156D01*
Y197707D01*
X80318Y198216D01*
X79928Y198606D01*
X79419Y198817D01*
D02*
G37*
G36*
X21929Y197252D02*
X21378D01*
X20868Y197041D01*
X20479Y196651D01*
X20268Y196142D01*
Y195590D01*
X20479Y195081D01*
X20868Y194691D01*
X21378Y194480D01*
X21929D01*
X22439Y194691D01*
X22828Y195081D01*
X23039Y195590D01*
Y196142D01*
X22828Y196651D01*
X22439Y197041D01*
X21929Y197252D01*
D02*
G37*
G36*
X13071Y195283D02*
X12520D01*
X12010Y195072D01*
X11620Y194683D01*
X11410Y194173D01*
Y193622D01*
X11620Y193113D01*
X12010Y192723D01*
X12520Y192512D01*
X13071D01*
X13580Y192723D01*
X13970Y193113D01*
X14181Y193622D01*
Y194173D01*
X13970Y194683D01*
X13580Y195072D01*
X13071Y195283D01*
D02*
G37*
G36*
X52441Y193315D02*
X51890D01*
X51380Y193104D01*
X50990Y192714D01*
X50779Y192205D01*
Y191654D01*
X50990Y191144D01*
X51380Y190754D01*
X51890Y190543D01*
X52441D01*
X52950Y190754D01*
X53340Y191144D01*
X53551Y191654D01*
Y192205D01*
X53340Y192714D01*
X52950Y193104D01*
X52441Y193315D01*
D02*
G37*
G36*
X34760Y193483D02*
X34209D01*
X33700Y193272D01*
X33310Y192882D01*
X33277Y192803D01*
X32715Y192494D01*
X32164D01*
X31655Y192283D01*
X31265Y191893D01*
X31054Y191384D01*
Y190833D01*
X31265Y190323D01*
X31655Y189933D01*
X32164Y189722D01*
X32715D01*
X33224Y189933D01*
X33614Y190323D01*
X33647Y190403D01*
X34209Y190711D01*
X34760D01*
X35270Y190922D01*
X35660Y191312D01*
X35871Y191821D01*
Y192373D01*
X35660Y192882D01*
X35270Y193272D01*
X34760Y193483D01*
D02*
G37*
G36*
X7102Y189346D02*
X6551D01*
X6041Y189135D01*
X5652Y188745D01*
X5441Y188236D01*
Y187685D01*
X5652Y187176D01*
X6041Y186786D01*
X6551Y186575D01*
X7102D01*
X7611Y186786D01*
X8001Y187176D01*
X8212Y187685D01*
Y188236D01*
X8001Y188745D01*
X7611Y189135D01*
X7102Y189346D01*
D02*
G37*
G36*
X78032Y188394D02*
X77480D01*
X76971Y188183D01*
X76581Y187793D01*
X76370Y187284D01*
Y186732D01*
X76581Y186223D01*
X76971Y185833D01*
X77480Y185622D01*
X78032D01*
X78541Y185833D01*
X78931Y186223D01*
X79142Y186732D01*
Y187284D01*
X78931Y187793D01*
X78541Y188183D01*
X78032Y188394D01*
D02*
G37*
G36*
X29006Y186119D02*
X28455D01*
X27945Y185908D01*
X27559Y185522D01*
X27245Y185837D01*
X26735Y186048D01*
X26184D01*
X25675Y185837D01*
X25285Y185447D01*
X25074Y184938D01*
Y184386D01*
X25285Y183877D01*
X25675Y183487D01*
X26184Y183276D01*
X26735D01*
X27245Y183487D01*
X27631Y183873D01*
X27945Y183558D01*
X28455Y183347D01*
X29006D01*
X29515Y183558D01*
X29905Y183948D01*
X30116Y184457D01*
Y185009D01*
X29905Y185518D01*
X29515Y185908D01*
X29006Y186119D01*
D02*
G37*
G36*
X16024Y186221D02*
X15472D01*
X14963Y186010D01*
X14573Y185620D01*
X14362Y185110D01*
Y184559D01*
X14573Y184050D01*
X14963Y183660D01*
X15472Y183449D01*
X16024D01*
X16533Y183660D01*
X16923Y184050D01*
X17134Y184559D01*
Y185110D01*
X16923Y185620D01*
X16533Y186010D01*
X16024Y186221D01*
D02*
G37*
G36*
X39646Y185441D02*
X39094D01*
X38585Y185230D01*
X38195Y184840D01*
X37984Y184331D01*
Y183780D01*
X38195Y183270D01*
X38540Y182926D01*
X38204Y182565D01*
X37695Y182776D01*
X37143D01*
X36634Y182565D01*
X36244Y182175D01*
X36033Y181665D01*
Y181114D01*
X36244Y180605D01*
X36634Y180215D01*
X37143Y180004D01*
X37695D01*
X38204Y180215D01*
X38594Y180605D01*
X38805Y181114D01*
Y181665D01*
X38594Y182175D01*
X38250Y182519D01*
X38585Y182880D01*
X39094Y182669D01*
X39646D01*
X40155Y182880D01*
X40545Y183270D01*
X40756Y183780D01*
Y184331D01*
X40545Y184840D01*
X40155Y185230D01*
X39646Y185441D01*
D02*
G37*
G36*
X12382D02*
X11831D01*
X11321Y185230D01*
X10932Y184840D01*
X10721Y184331D01*
Y183780D01*
X10932Y183270D01*
X11321Y182880D01*
X11831Y182669D01*
X12382D01*
X12891Y182880D01*
X13281Y183270D01*
X13492Y183780D01*
Y184331D01*
X13281Y184840D01*
X12891Y185230D01*
X12382Y185441D01*
D02*
G37*
G36*
X55341Y185494D02*
X54790D01*
X54280Y185283D01*
X53891Y184893D01*
X53680Y184383D01*
Y183832D01*
X53891Y183323D01*
X54280Y182933D01*
X54790Y182722D01*
X55341D01*
X55631Y182842D01*
X55701Y182795D01*
X55912Y182286D01*
X56302Y181896D01*
X56811Y181685D01*
X57362D01*
X57872Y181896D01*
X58262Y182286D01*
X58292Y182361D01*
X58834D01*
X58864Y182286D01*
X59254Y181896D01*
X59764Y181685D01*
X60315D01*
X60824Y181896D01*
X61214Y182286D01*
X61425Y182795D01*
Y183346D01*
X61214Y183856D01*
X60824Y184246D01*
X60315Y184457D01*
X59764D01*
X59254Y184246D01*
X58864Y183856D01*
X58834Y183781D01*
X58292D01*
X58262Y183856D01*
X57872Y184246D01*
X57362Y184457D01*
X56811D01*
X56521Y184337D01*
X56451Y184383D01*
X56240Y184893D01*
X55850Y185283D01*
X55341Y185494D01*
D02*
G37*
G36*
X20945Y186425D02*
X20394D01*
X19884Y186214D01*
X19494Y185824D01*
X19284Y185315D01*
Y184764D01*
X19494Y184254D01*
X19776Y183972D01*
X19624Y183474D01*
X19623Y183472D01*
X19409D01*
X18900Y183261D01*
X18510Y182872D01*
X18299Y182362D01*
Y181811D01*
X18510Y181302D01*
X18900Y180912D01*
X19409Y180701D01*
X19961D01*
X20470Y180912D01*
X20860Y181302D01*
X21071Y181811D01*
Y182362D01*
X20860Y182872D01*
X20578Y183153D01*
X20730Y183652D01*
X20731Y183653D01*
X20945D01*
X21454Y183864D01*
X21844Y184254D01*
X22055Y184764D01*
Y185315D01*
X21844Y185824D01*
X21454Y186214D01*
X20945Y186425D01*
D02*
G37*
G36*
X31403Y182616D02*
X30852D01*
X30342Y182405D01*
X29953Y182015D01*
X29742Y181506D01*
Y180955D01*
X29953Y180445D01*
X30342Y180055D01*
X30852Y179844D01*
X31403D01*
X31912Y180055D01*
X32302Y180445D01*
X32513Y180955D01*
Y181506D01*
X32302Y182015D01*
X31912Y182405D01*
X31403Y182616D01*
D02*
G37*
G36*
X76063Y185441D02*
X75512D01*
X75002Y185230D01*
X74613Y184840D01*
X74402Y184331D01*
Y183780D01*
X74613Y183270D01*
X75002Y182880D01*
X75512Y182669D01*
X75726D01*
X75727Y182667D01*
X75879Y182169D01*
X75597Y181887D01*
X75386Y181378D01*
Y180827D01*
X75597Y180317D01*
X75987Y179928D01*
X76496Y179717D01*
X77047D01*
X77557Y179928D01*
X77947Y180317D01*
X78158Y180827D01*
Y181378D01*
X77947Y181887D01*
X77557Y182277D01*
X77047Y182488D01*
X76834D01*
X76832Y182490D01*
X76680Y182988D01*
X76962Y183270D01*
X77173Y183780D01*
Y184331D01*
X76962Y184840D01*
X76572Y185230D01*
X76063Y185441D01*
D02*
G37*
G36*
X34591Y181654D02*
X34040D01*
X33531Y181443D01*
X33141Y181053D01*
X32930Y180544D01*
Y179992D01*
X33141Y179483D01*
X33531Y179093D01*
X34040Y178882D01*
X34591D01*
X35100Y179093D01*
X35490Y179483D01*
X35701Y179992D01*
Y180544D01*
X35490Y181053D01*
X35100Y181443D01*
X34591Y181654D01*
D02*
G37*
G36*
X12095Y181504D02*
X11543D01*
X11034Y181293D01*
X10644Y180903D01*
X10433Y180394D01*
Y179842D01*
X10644Y179333D01*
X11034Y178943D01*
X11543Y178732D01*
X12095D01*
X12604Y178943D01*
X12994Y179333D01*
X13205Y179842D01*
Y180394D01*
X12994Y180903D01*
X12604Y181293D01*
X12095Y181504D01*
D02*
G37*
G36*
X63268Y182488D02*
X62717D01*
X62207Y182277D01*
X61817Y181887D01*
X61606Y181378D01*
Y180934D01*
X61430Y180696D01*
X61192Y180520D01*
X60748D01*
X60239Y180309D01*
X59849Y179919D01*
X59638Y179410D01*
Y178858D01*
X59849Y178349D01*
X60239Y177959D01*
X60748Y177748D01*
X61299D01*
X61809Y177959D01*
X62199Y178349D01*
X62409Y178858D01*
Y179303D01*
X62586Y179540D01*
X62823Y179717D01*
X63268D01*
X63777Y179928D01*
X64167Y180317D01*
X64378Y180827D01*
Y181378D01*
X64167Y181887D01*
X63777Y182277D01*
X63268Y182488D01*
D02*
G37*
G36*
X71724Y181504D02*
X71173D01*
X70664Y181293D01*
X70274Y180903D01*
X70063Y180394D01*
Y179842D01*
X70274Y179333D01*
X70240Y179163D01*
X70081Y179097D01*
X69691Y178708D01*
X69480Y178198D01*
Y177975D01*
X69270Y177596D01*
X69018Y177535D01*
X68685D01*
X68145Y177852D01*
X68104Y177950D01*
X67714Y178340D01*
X67205Y178551D01*
X66654D01*
X66144Y178340D01*
X65754Y177950D01*
X65543Y177441D01*
Y176890D01*
X65754Y176380D01*
X66144Y175990D01*
X66654Y175779D01*
X67205D01*
X67746Y175462D01*
X67786Y175364D01*
X68176Y174975D01*
X68685Y174764D01*
X69237D01*
X69746Y174975D01*
X70136Y175364D01*
X70347Y175874D01*
Y176096D01*
X70557Y176476D01*
X70809Y176537D01*
X71142D01*
X71651Y176748D01*
X72041Y177137D01*
X72252Y177647D01*
Y178198D01*
X72041Y178707D01*
X72075Y178877D01*
X72234Y178943D01*
X72624Y179333D01*
X72835Y179842D01*
Y180394D01*
X72624Y180903D01*
X72234Y181293D01*
X71724Y181504D01*
D02*
G37*
G36*
X17992Y179535D02*
X17441D01*
X16931Y179324D01*
X16542Y178935D01*
X16331Y178425D01*
Y177874D01*
X16542Y177365D01*
X16931Y176975D01*
X17441Y176764D01*
X17992D01*
X18501Y176975D01*
X18891Y177365D01*
X19102Y177874D01*
Y178425D01*
X18891Y178935D01*
X18501Y179324D01*
X17992Y179535D01*
D02*
G37*
G36*
X51752Y182783D02*
X51201D01*
X50691Y182572D01*
X50301Y182183D01*
X50091Y181673D01*
Y181122D01*
X50301Y180613D01*
X50691Y180223D01*
X51201Y180012D01*
X51752D01*
X52261Y180223D01*
X52748Y180002D01*
Y179842D01*
X52959Y179333D01*
X53349Y178943D01*
X53858Y178732D01*
X54072D01*
X54073Y178730D01*
X54225Y178232D01*
X53943Y177950D01*
X53732Y177441D01*
Y176890D01*
X53943Y176380D01*
X54333Y175990D01*
X54842Y175779D01*
X55394D01*
X55903Y175990D01*
X56293Y176380D01*
X56504Y176890D01*
Y177441D01*
X56293Y177950D01*
X55903Y178340D01*
X55394Y178551D01*
X55180D01*
X55179Y178553D01*
X55027Y179051D01*
X55309Y179333D01*
X55520Y179842D01*
Y180394D01*
X55309Y180903D01*
X54919Y181293D01*
X54409Y181504D01*
X53858D01*
X53349Y181293D01*
X52862Y181513D01*
Y181673D01*
X52651Y182183D01*
X52261Y182572D01*
X51752Y182783D01*
D02*
G37*
G36*
X76063Y177567D02*
X75512D01*
X75002Y177356D01*
X74613Y176966D01*
X74402Y176457D01*
Y175905D01*
X74613Y175396D01*
X75002Y175006D01*
X75512Y174795D01*
X76063D01*
X76572Y175006D01*
X76962Y175396D01*
X77173Y175905D01*
Y176457D01*
X76962Y176966D01*
X76572Y177356D01*
X76063Y177567D01*
D02*
G37*
G36*
X59331D02*
X58780D01*
X58270Y177356D01*
X57880Y176966D01*
X57669Y176457D01*
Y175905D01*
X57880Y175396D01*
X58270Y175006D01*
X58780Y174795D01*
X59331D01*
X59840Y175006D01*
X60230Y175396D01*
X60441Y175905D01*
Y176457D01*
X60230Y176966D01*
X59840Y177356D01*
X59331Y177567D01*
D02*
G37*
G36*
X43583Y184457D02*
X43031D01*
X42522Y184246D01*
X42132Y183856D01*
X41921Y183346D01*
Y182902D01*
X41745Y182665D01*
X41507Y182488D01*
X41063D01*
X40554Y182277D01*
X40164Y181887D01*
X39953Y181378D01*
Y180827D01*
X40164Y180317D01*
X40554Y179928D01*
X41063Y179717D01*
X41614D01*
X42124Y179928D01*
X42513Y180317D01*
X42724Y180827D01*
Y181271D01*
X42901Y181509D01*
X43138Y181685D01*
X43476D01*
X43714Y181509D01*
X43890Y181271D01*
Y180827D01*
X44101Y180317D01*
X44491Y179928D01*
X45000Y179717D01*
X45551D01*
X46061Y179928D01*
X46411Y180278D01*
X46762Y179928D01*
X46942Y179323D01*
X46904Y179231D01*
Y178940D01*
X46569Y178586D01*
X46442Y178551D01*
X45984D01*
X45475Y178340D01*
X45085Y177950D01*
X44874Y177441D01*
Y176890D01*
X45085Y176380D01*
X45475Y175990D01*
X45984Y175779D01*
X46536D01*
X47045Y175990D01*
X47327Y176272D01*
X47825Y176120D01*
X47827Y176119D01*
Y175905D01*
X48038Y175396D01*
X48428Y175006D01*
X48937Y174795D01*
X49488D01*
X49998Y175006D01*
X50387Y175396D01*
X50598Y175905D01*
Y176457D01*
X50387Y176966D01*
X49998Y177356D01*
X49545Y177543D01*
X49431Y177793D01*
X49361Y178067D01*
X49465Y178171D01*
X49676Y178680D01*
Y179231D01*
X49465Y179741D01*
X49075Y180130D01*
X48895Y180735D01*
X48933Y180827D01*
Y181378D01*
X48722Y181887D01*
X48332Y182277D01*
X47823Y182488D01*
X47272D01*
X46762Y182277D01*
X46411Y181926D01*
X46061Y182277D01*
X45551Y182488D01*
X45107D01*
X44869Y182665D01*
X44693Y182902D01*
Y183346D01*
X44482Y183856D01*
X44092Y184246D01*
X43583Y184457D01*
D02*
G37*
G36*
X4595Y177567D02*
X4044D01*
X3535Y177356D01*
X3145Y176966D01*
X2934Y176457D01*
Y175905D01*
X3145Y175396D01*
X3535Y175006D01*
X4044Y174795D01*
X4595D01*
X5105Y175006D01*
X5494Y175396D01*
X5706Y175905D01*
Y176457D01*
X5494Y176966D01*
X5105Y177356D01*
X4595Y177567D01*
D02*
G37*
G36*
X64949Y175598D02*
X64398D01*
X63888Y175387D01*
X63498Y174998D01*
X63287Y174488D01*
Y173937D01*
X63498Y173428D01*
X63888Y173038D01*
X64398Y172827D01*
X64949D01*
X65458Y173038D01*
X65848Y173428D01*
X66059Y173937D01*
Y174488D01*
X65848Y174998D01*
X65458Y175387D01*
X64949Y175598D01*
D02*
G37*
G36*
X12878Y170870D02*
X12327D01*
X11818Y170659D01*
X11428Y170269D01*
X11272Y170238D01*
X11043Y170466D01*
X10534Y170677D01*
X9983D01*
X9473Y170466D01*
X9083Y170076D01*
X8873Y169567D01*
Y169016D01*
X9083Y168506D01*
X9473Y168116D01*
X9983Y167905D01*
X10534D01*
X11043Y168116D01*
X11433Y168506D01*
X11589Y168537D01*
X11818Y168309D01*
X12327Y168098D01*
X12878D01*
X13388Y168309D01*
X13778Y168699D01*
X13989Y169208D01*
Y169760D01*
X13778Y170269D01*
X13388Y170659D01*
X12878Y170870D01*
D02*
G37*
G36*
X68189Y172646D02*
X67638D01*
X67128Y172435D01*
X66738Y172045D01*
X66528Y171536D01*
Y170984D01*
X66738Y170475D01*
X67128Y170085D01*
X67638Y169874D01*
X68189D01*
X68698Y170085D01*
X69088Y170475D01*
X69299Y170984D01*
Y171536D01*
X69088Y172045D01*
X68698Y172435D01*
X68189Y172646D01*
D02*
G37*
G36*
X32858Y170706D02*
X32307D01*
X31798Y170495D01*
X31408Y170105D01*
X31199Y169601D01*
X30788Y169772D01*
X30236D01*
X29727Y169561D01*
X29337Y169171D01*
X29126Y168662D01*
Y168110D01*
X28827Y167548D01*
X28743Y167513D01*
X28353Y167124D01*
X28142Y166614D01*
Y166063D01*
X28353Y165554D01*
X28743Y165164D01*
X29252Y164953D01*
X29803D01*
X30313Y165164D01*
X30702Y165554D01*
X30733Y165628D01*
X31275D01*
X31306Y165554D01*
X31695Y165164D01*
X32205Y164953D01*
X32756D01*
X33265Y165164D01*
X33655Y165554D01*
X33866Y166063D01*
Y166614D01*
X33655Y167124D01*
X33265Y167513D01*
X33207Y167537D01*
Y168079D01*
X33368Y168145D01*
X33757Y168535D01*
X33968Y169044D01*
Y169595D01*
X33757Y170105D01*
X33368Y170495D01*
X32858Y170706D01*
D02*
G37*
G36*
X45919Y170628D02*
X45367D01*
X44858Y170417D01*
X44468Y170027D01*
X44257Y169518D01*
Y168967D01*
X44468Y168457D01*
X44858Y168068D01*
X45277Y167894D01*
X45071Y167397D01*
Y166846D01*
X45282Y166337D01*
X45672Y165947D01*
X46181Y165736D01*
X46732D01*
X47242Y165947D01*
X47631Y166337D01*
X47842Y166846D01*
Y167010D01*
X48342Y167217D01*
X48428Y167132D01*
X48937Y166921D01*
X49488D01*
X49998Y167132D01*
X50387Y167522D01*
X50598Y168031D01*
Y168583D01*
X50387Y169092D01*
X49998Y169482D01*
X49488Y169693D01*
X48937D01*
X48428Y169482D01*
X48038Y169092D01*
X47827Y168583D01*
Y168419D01*
X47327Y168211D01*
X47242Y168297D01*
X46823Y168470D01*
X47029Y168967D01*
Y169518D01*
X46818Y170027D01*
X46428Y170417D01*
X45919Y170628D01*
D02*
G37*
G36*
X41614Y170677D02*
X41063D01*
X40554Y170466D01*
X40164Y170076D01*
X40117Y169965D01*
X39582Y169661D01*
X39031D01*
X38522Y169450D01*
X38132Y169060D01*
X37921Y168551D01*
Y168000D01*
X38132Y167490D01*
X38522Y167101D01*
X39031Y166890D01*
X39582D01*
X40092Y167101D01*
X40482Y167490D01*
X40528Y167602D01*
X41063Y167905D01*
X41614D01*
X42124Y168116D01*
X42513Y168506D01*
X42724Y169016D01*
Y169567D01*
X42513Y170076D01*
X42124Y170466D01*
X41614Y170677D01*
D02*
G37*
G36*
X52827Y168709D02*
X52276D01*
X51766Y168498D01*
X51376Y168108D01*
X51165Y167598D01*
Y167047D01*
X51376Y166538D01*
X51766Y166148D01*
X52276Y165937D01*
X52827D01*
X53336Y166148D01*
X53726Y166538D01*
X53937Y167047D01*
Y167598D01*
X53726Y168108D01*
X53336Y168498D01*
X52827Y168709D01*
D02*
G37*
G36*
X20559Y170679D02*
X20008D01*
X19499Y170468D01*
X19109Y170078D01*
X18898Y169569D01*
Y169018D01*
X19109Y168508D01*
X19499Y168118D01*
X20008Y167907D01*
X20559D01*
X20757Y167989D01*
X20878Y167891D01*
X21090Y167586D01*
X20920Y167177D01*
Y166625D01*
X21131Y166116D01*
X21521Y165726D01*
X22030Y165515D01*
X22582D01*
X23091Y165726D01*
X23481Y166116D01*
X23692Y166625D01*
Y167177D01*
X23481Y167686D01*
X23091Y168076D01*
X22582Y168287D01*
X22030D01*
X21833Y168205D01*
X21711Y168304D01*
X21500Y168608D01*
X21669Y169018D01*
Y169569D01*
X21458Y170078D01*
X21068Y170468D01*
X20559Y170679D01*
D02*
G37*
G36*
X18364Y167353D02*
X17812D01*
X17303Y167142D01*
X16913Y166752D01*
X16702Y166243D01*
Y165691D01*
X16913Y165182D01*
X17303Y164792D01*
X17812Y164581D01*
X18364D01*
X18873Y164792D01*
X19263Y165182D01*
X19474Y165691D01*
Y166243D01*
X19263Y166752D01*
X18873Y167142D01*
X18364Y167353D01*
D02*
G37*
G36*
X36790Y166882D02*
X36239D01*
X35729Y166671D01*
X35339Y166281D01*
X35129Y165772D01*
Y165220D01*
X35339Y164711D01*
X35729Y164321D01*
X36239Y164110D01*
X36776D01*
X36814Y164070D01*
X36876Y163967D01*
X36809Y163799D01*
X36578Y163516D01*
X36559Y163505D01*
X36142D01*
X35632Y163294D01*
X35243Y162904D01*
X35032Y162395D01*
Y161844D01*
X35243Y161334D01*
X35632Y160944D01*
X36142Y160733D01*
X36693D01*
X37202Y160944D01*
X37592Y161334D01*
X37803Y161844D01*
Y162395D01*
X37696Y162653D01*
X38079Y163035D01*
X38210Y162981D01*
X38761D01*
X39270Y163192D01*
X39660Y163582D01*
X39871Y164091D01*
Y164643D01*
X39660Y165152D01*
X39270Y165542D01*
X38761Y165753D01*
X38210D01*
X38036Y165681D01*
X37900Y165772D01*
X37689Y166281D01*
X37299Y166671D01*
X36790Y166882D01*
D02*
G37*
G36*
X62283Y166740D02*
X61732D01*
X61223Y166529D01*
X60833Y166139D01*
X60622Y165630D01*
Y165079D01*
X60833Y164569D01*
X61223Y164180D01*
X61732Y163969D01*
X62177D01*
X62414Y163792D01*
X62591Y163555D01*
Y163110D01*
X62801Y162601D01*
X63191Y162211D01*
X63701Y162000D01*
X64252D01*
X64761Y162211D01*
X65151Y162601D01*
X65362Y163110D01*
Y163662D01*
X65151Y164171D01*
X64761Y164561D01*
X64252Y164772D01*
X63808D01*
X63570Y164948D01*
X63394Y165186D01*
Y165630D01*
X63183Y166139D01*
X62793Y166529D01*
X62283Y166740D01*
D02*
G37*
G36*
X57756Y163197D02*
X57205D01*
X56695Y162986D01*
X56305Y162596D01*
X56094Y162087D01*
Y161535D01*
X56305Y161026D01*
X56695Y160636D01*
X57205Y160425D01*
X57756D01*
X58265Y160636D01*
X58655Y161026D01*
X58866Y161535D01*
Y162087D01*
X58655Y162596D01*
X58265Y162986D01*
X57756Y163197D01*
D02*
G37*
G36*
X54606Y160047D02*
X54055D01*
X53546Y159836D01*
X53156Y159446D01*
X52945Y158937D01*
Y158386D01*
X53156Y157876D01*
X53546Y157487D01*
X54055Y157276D01*
X54606D01*
X55116Y157487D01*
X55506Y157876D01*
X55717Y158386D01*
Y158937D01*
X55506Y159446D01*
X55116Y159836D01*
X54606Y160047D01*
D02*
G37*
G36*
X15039Y165756D02*
X14488D01*
X13979Y165545D01*
X13589Y165155D01*
X13378Y164646D01*
Y164094D01*
X13589Y163585D01*
X13979Y163195D01*
X14488Y162984D01*
X15039D01*
X15043Y162986D01*
X15309Y162660D01*
X15351Y162572D01*
X15150Y162087D01*
Y161535D01*
X15361Y161026D01*
X15750Y160636D01*
X16110Y160487D01*
Y159963D01*
X15750Y159814D01*
X15361Y159424D01*
X15150Y158915D01*
Y158364D01*
X15361Y157854D01*
X15750Y157465D01*
X16110Y157316D01*
Y156792D01*
X15750Y156642D01*
X15361Y156253D01*
X15150Y155743D01*
Y155192D01*
X15361Y154683D01*
X15750Y154293D01*
X16260Y154082D01*
X16811D01*
X17320Y154293D01*
X17710Y154683D01*
X17849Y155017D01*
X18383Y155033D01*
X18510Y154727D01*
X18900Y154337D01*
X19212Y154208D01*
Y153666D01*
X18900Y153537D01*
X18510Y153147D01*
X18299Y152638D01*
Y152086D01*
X18510Y151577D01*
X18900Y151187D01*
X19409Y150976D01*
X19961D01*
X20470Y151187D01*
X20860Y151577D01*
X20989Y151890D01*
X21530D01*
X21660Y151577D01*
X22050Y151187D01*
X22559Y150976D01*
X23110D01*
X23620Y151187D01*
X24010Y151577D01*
X24139Y151890D01*
X24680D01*
X24809Y151577D01*
X25199Y151187D01*
X25709Y150976D01*
X26260D01*
X26769Y151187D01*
X27159Y151577D01*
X27288Y151890D01*
X27830D01*
X27959Y151577D01*
X28349Y151187D01*
X28858Y150976D01*
X29410D01*
X29919Y151187D01*
X30309Y151577D01*
X30438Y151890D01*
X30979D01*
X31109Y151577D01*
X31499Y151187D01*
X32008Y150976D01*
X32559D01*
X33068Y151187D01*
X33458Y151577D01*
X33669Y152086D01*
Y152638D01*
X33458Y153147D01*
X33068Y153537D01*
X32559Y153748D01*
X32008D01*
X31499Y153537D01*
X31109Y153147D01*
X30979Y152835D01*
X30438D01*
X30309Y153147D01*
X29919Y153537D01*
X29607Y153666D01*
Y154208D01*
X29919Y154337D01*
X30309Y154727D01*
X30520Y155236D01*
Y155788D01*
X30309Y156297D01*
X29919Y156687D01*
X29607Y156816D01*
Y157357D01*
X29919Y157487D01*
X30309Y157876D01*
X30458Y158236D01*
X30982D01*
X31131Y157876D01*
X31521Y157487D01*
X32030Y157276D01*
X32581D01*
X33090Y157487D01*
X33480Y157876D01*
X33691Y158386D01*
Y158937D01*
X33480Y159446D01*
X33184Y159742D01*
X33129Y160040D01*
X33184Y160338D01*
X33480Y160634D01*
X33691Y161144D01*
Y161695D01*
X33480Y162204D01*
X33090Y162594D01*
X32581Y162805D01*
X32030D01*
X31521Y162594D01*
X31131Y162204D01*
X31020Y161936D01*
X30520Y162036D01*
Y162087D01*
X30309Y162596D01*
X29919Y162986D01*
X29410Y163197D01*
X28858D01*
X28349Y162986D01*
X27959Y162596D01*
X27830Y162284D01*
X27288D01*
X27159Y162596D01*
X26769Y162986D01*
X26260Y163197D01*
X25709D01*
X25199Y162986D01*
X24809Y162596D01*
X24598Y162087D01*
Y161535D01*
X24809Y161026D01*
X25199Y160636D01*
X25512Y160507D01*
Y159966D01*
X25199Y159836D01*
X24809Y159446D01*
X24598Y158937D01*
Y158386D01*
X24809Y157876D01*
X25199Y157487D01*
X25512Y157357D01*
Y156816D01*
X25199Y156687D01*
X24809Y156297D01*
X24680Y155984D01*
X24139D01*
X24010Y156297D01*
X23620Y156687D01*
X23110Y156898D01*
X22559D01*
X22050Y156687D01*
X21660Y156297D01*
X21530Y155984D01*
X20989D01*
X20860Y156297D01*
X20470Y156687D01*
X20158Y156816D01*
Y157357D01*
X20470Y157487D01*
X20860Y157876D01*
X21071Y158386D01*
Y158937D01*
X20860Y159446D01*
X20858Y159448D01*
X20771Y159845D01*
X20816Y159918D01*
X20904Y160056D01*
X21079Y160232D01*
X21290Y160741D01*
Y161292D01*
X21079Y161802D01*
X20689Y162191D01*
X20180Y162402D01*
X19629D01*
X19119Y162191D01*
X18730Y161802D01*
X18519Y161292D01*
Y160741D01*
X18730Y160232D01*
X18730Y160231D01*
X18731Y160230D01*
X18900Y159836D01*
X18510Y159446D01*
X18376Y159123D01*
X17837Y159118D01*
X17710Y159424D01*
X17320Y159814D01*
X16961Y159963D01*
Y160487D01*
X17320Y160636D01*
X17710Y161026D01*
X17921Y161535D01*
Y162087D01*
X17710Y162596D01*
X17320Y162986D01*
X16811Y163197D01*
X16260D01*
X16256Y163195D01*
X15990Y163522D01*
X15949Y163609D01*
X16150Y164094D01*
Y164646D01*
X15939Y165155D01*
X15549Y165545D01*
X15039Y165756D01*
D02*
G37*
G36*
X13248Y160047D02*
X12697D01*
X12187Y159836D01*
X11797Y159446D01*
X11586Y158937D01*
Y158386D01*
X11797Y157876D01*
X12187Y157487D01*
X12697Y157276D01*
X13248D01*
X13757Y157487D01*
X14147Y157876D01*
X14358Y158386D01*
Y158937D01*
X14147Y159446D01*
X13757Y159836D01*
X13248Y160047D01*
D02*
G37*
G36*
X7362Y159850D02*
X6811D01*
X6302Y159639D01*
X5912Y159250D01*
X5701Y158740D01*
Y158189D01*
X5912Y157680D01*
X6302Y157290D01*
X6811Y157079D01*
X7362D01*
X7872Y157290D01*
X8262Y157680D01*
X8472Y158189D01*
Y158740D01*
X8262Y159250D01*
X7872Y159639D01*
X7362Y159850D01*
D02*
G37*
G36*
X42206Y163197D02*
X41654D01*
X41145Y162986D01*
X40755Y162596D01*
X40544Y162087D01*
Y161535D01*
X40755Y161026D01*
X41145Y160636D01*
X41457Y160507D01*
Y159966D01*
X41145Y159836D01*
X40755Y159446D01*
X40544Y158937D01*
Y158386D01*
X40755Y157876D01*
X41145Y157487D01*
X41408Y157378D01*
X41425Y157214D01*
X41359Y156857D01*
X40947Y156687D01*
X40557Y156297D01*
X40408Y155937D01*
X39884D01*
X39735Y156297D01*
X39346Y156687D01*
X38836Y156898D01*
X38285D01*
X37776Y156687D01*
X37386Y156297D01*
X37175Y155788D01*
Y155236D01*
X37386Y154727D01*
X37776Y154337D01*
X38099Y154203D01*
X38104Y153664D01*
X37798Y153537D01*
X37408Y153147D01*
X37197Y152638D01*
Y152086D01*
X37408Y151577D01*
X37798Y151187D01*
X38307Y150976D01*
X38858D01*
X39368Y151187D01*
X39757Y151577D01*
X39887Y151890D01*
X40428D01*
X40557Y151577D01*
X40947Y151187D01*
X41260Y151058D01*
Y150517D01*
X40947Y150387D01*
X40557Y149998D01*
X40347Y149488D01*
Y148937D01*
X40557Y148428D01*
X40947Y148038D01*
X41457Y147827D01*
X42008D01*
X42517Y148038D01*
X42907Y148428D01*
X43036Y148740D01*
X43578D01*
X43707Y148428D01*
X44097Y148038D01*
X44606Y147827D01*
X45158D01*
X45667Y148038D01*
X46057Y148428D01*
X46268Y148937D01*
Y149488D01*
X46057Y149998D01*
X45667Y150387D01*
X45355Y150517D01*
Y151058D01*
X45667Y151187D01*
X46057Y151577D01*
X46268Y152086D01*
Y152638D01*
X46057Y153147D01*
X45667Y153537D01*
X45158Y153748D01*
X44606D01*
X44097Y153537D01*
X43707Y153147D01*
X43578Y152835D01*
X43036D01*
X42907Y153147D01*
X42517Y153537D01*
X42205Y153666D01*
Y154208D01*
X42517Y154337D01*
X42907Y154727D01*
X43118Y155236D01*
Y155788D01*
X42907Y156297D01*
X42517Y156687D01*
X42254Y156796D01*
X42238Y156959D01*
X42304Y157316D01*
X42715Y157487D01*
X43105Y157876D01*
X43316Y158386D01*
Y158937D01*
X43105Y159446D01*
X42715Y159836D01*
X42403Y159966D01*
Y160507D01*
X42715Y160636D01*
X43105Y161026D01*
X43316Y161535D01*
Y162087D01*
X43105Y162596D01*
X42715Y162986D01*
X42206Y163197D01*
D02*
G37*
G36*
X76063Y156898D02*
X75512D01*
X75002Y156687D01*
X74613Y156297D01*
X74402Y155788D01*
Y155236D01*
X74613Y154727D01*
X75002Y154337D01*
X75512Y154126D01*
X76063D01*
X76572Y154337D01*
X76962Y154727D01*
X77173Y155236D01*
Y155788D01*
X76962Y156297D01*
X76572Y156687D01*
X76063Y156898D01*
D02*
G37*
G36*
X51457D02*
X50905D01*
X50396Y156687D01*
X50006Y156297D01*
X49795Y155788D01*
Y155236D01*
X50006Y154727D01*
X50396Y154337D01*
X50905Y154126D01*
X51457D01*
X51966Y154337D01*
X52356Y154727D01*
X52567Y155236D01*
Y155788D01*
X52356Y156297D01*
X51966Y156687D01*
X51457Y156898D01*
D02*
G37*
G36*
X54606Y150598D02*
X54055D01*
X53546Y150387D01*
X53156Y149998D01*
X53026Y149685D01*
X52485D01*
X52356Y149998D01*
X51966Y150387D01*
X51457Y150598D01*
X50905D01*
X50396Y150387D01*
X50006Y149998D01*
X49795Y149488D01*
Y148937D01*
X50006Y148428D01*
X50396Y148038D01*
X50708Y147908D01*
Y147367D01*
X50396Y147238D01*
X50006Y146848D01*
X49795Y146339D01*
Y145787D01*
X50006Y145278D01*
X50396Y144888D01*
X50905Y144677D01*
X51457D01*
X51966Y144888D01*
X52356Y145278D01*
X52485Y145590D01*
X53026D01*
X53156Y145278D01*
X53546Y144888D01*
X53858Y144759D01*
Y144218D01*
X53546Y144088D01*
X53156Y143698D01*
X52945Y143189D01*
Y142638D01*
X53156Y142128D01*
X53546Y141738D01*
X53858Y141609D01*
Y141068D01*
X53546Y140939D01*
X53156Y140549D01*
X53026Y140236D01*
X52485D01*
X52356Y140549D01*
X51966Y140939D01*
X51457Y141150D01*
X50905D01*
X50396Y140939D01*
X50006Y140549D01*
X49795Y140039D01*
Y139488D01*
X50006Y138979D01*
X50396Y138589D01*
X50905Y138378D01*
X51457D01*
X51966Y138589D01*
X52356Y138979D01*
X52485Y139291D01*
X53026D01*
X53156Y138979D01*
X53546Y138589D01*
X54055Y138378D01*
X54606D01*
X55116Y138589D01*
X55506Y138979D01*
X55635Y139291D01*
X56176D01*
X56305Y138979D01*
X56695Y138589D01*
X57008Y138460D01*
Y137918D01*
X56695Y137789D01*
X56305Y137399D01*
X56094Y136890D01*
Y136338D01*
X56305Y135829D01*
X56695Y135439D01*
X57205Y135228D01*
X57756D01*
X58265Y135439D01*
X58655Y135829D01*
X58866Y136338D01*
Y136890D01*
X58655Y137399D01*
X58265Y137789D01*
X57953Y137918D01*
Y138460D01*
X58265Y138589D01*
X58655Y138979D01*
X58767Y139250D01*
X58900Y139266D01*
X59288Y139200D01*
X59455Y138797D01*
X59845Y138407D01*
X60354Y138196D01*
X60906D01*
X61415Y138407D01*
X61560Y138552D01*
X61983Y138268D01*
X61902Y138071D01*
Y137520D01*
X62113Y137010D01*
X62502Y136620D01*
X63012Y136409D01*
X63563D01*
X64072Y136620D01*
X64462Y137010D01*
X64673Y137520D01*
Y138071D01*
X64462Y138580D01*
X64072Y138970D01*
X63833Y139069D01*
X63839Y139608D01*
X64163Y139742D01*
X64553Y140132D01*
X64764Y140641D01*
Y141193D01*
X64553Y141702D01*
X64163Y142092D01*
X63654Y142303D01*
X63102D01*
X62593Y142092D01*
X62203Y141702D01*
X61992Y141193D01*
Y140887D01*
X61492Y140680D01*
X61415Y140757D01*
X60906Y140968D01*
X60354D01*
X59845Y140757D01*
X59455Y140367D01*
X59343Y140096D01*
X59210Y140080D01*
X58822Y140146D01*
X58655Y140549D01*
X58265Y140939D01*
X57756Y141150D01*
X57205D01*
X56695Y140939D01*
X56305Y140549D01*
X56176Y140236D01*
X55635D01*
X55506Y140549D01*
X55116Y140939D01*
X54803Y141068D01*
Y141609D01*
X55116Y141738D01*
X55506Y142128D01*
X55717Y142638D01*
Y143189D01*
X55506Y143698D01*
X55116Y144088D01*
X54803Y144218D01*
Y144759D01*
X55116Y144888D01*
X55506Y145278D01*
X55717Y145787D01*
Y146339D01*
X55506Y146848D01*
X55116Y147238D01*
X54803Y147367D01*
Y147908D01*
X55116Y148038D01*
X55506Y148428D01*
X55717Y148937D01*
Y149488D01*
X55506Y149998D01*
X55116Y150387D01*
X54606Y150598D01*
D02*
G37*
G36*
X67205Y151976D02*
X66654D01*
X66144Y151765D01*
X65754Y151375D01*
X65543Y150866D01*
Y150315D01*
X65754Y149805D01*
X66144Y149416D01*
X66654Y149205D01*
X67205D01*
X67714Y149416D01*
X68104Y149805D01*
X68315Y150315D01*
Y150866D01*
X68104Y151375D01*
X67714Y151765D01*
X67205Y151976D01*
D02*
G37*
G36*
X75079Y150992D02*
X74528D01*
X74018Y150781D01*
X73628Y150391D01*
X73417Y149882D01*
Y149331D01*
X73628Y148821D01*
X74018Y148432D01*
X74528Y148221D01*
X75079D01*
X75588Y148432D01*
X75978Y148821D01*
X76189Y149331D01*
Y149882D01*
X75978Y150391D01*
X75588Y150781D01*
X75079Y150992D01*
D02*
G37*
G36*
X5197D02*
X4646D01*
X4136Y150781D01*
X3746Y150391D01*
X3535Y149882D01*
Y149331D01*
X3746Y148821D01*
X4136Y148432D01*
X4646Y148221D01*
X5197D01*
X5706Y148432D01*
X6096Y148821D01*
X6307Y149331D01*
Y149882D01*
X6096Y150391D01*
X5706Y150781D01*
X5197Y150992D01*
D02*
G37*
G36*
X61299D02*
X60748D01*
X60239Y150781D01*
X59849Y150391D01*
X59638Y149882D01*
Y149331D01*
X59849Y148821D01*
X60239Y148432D01*
X60748Y148221D01*
X60962D01*
X60963Y148219D01*
X61115Y147721D01*
X60833Y147439D01*
X60622Y146929D01*
Y146378D01*
X60833Y145869D01*
X61223Y145479D01*
X61732Y145268D01*
X62283D01*
X62793Y145479D01*
X63183Y145869D01*
X63341Y146251D01*
X63458Y146396D01*
X63894Y146522D01*
X64151Y146415D01*
X64703D01*
X65212Y146626D01*
X65602Y147016D01*
X65813Y147525D01*
Y148077D01*
X65602Y148586D01*
X65212Y148976D01*
X64703Y149187D01*
X64151D01*
X63642Y148976D01*
X63252Y148586D01*
X63094Y148204D01*
X62977Y148058D01*
X62541Y147933D01*
X62283Y148039D01*
X62070D01*
X62069Y148041D01*
X61917Y148539D01*
X62199Y148821D01*
X62410Y149331D01*
Y149882D01*
X62199Y150391D01*
X61809Y150781D01*
X61299Y150992D01*
D02*
G37*
G36*
X26260Y147449D02*
X25709D01*
X25199Y147238D01*
X24809Y146848D01*
X24598Y146339D01*
Y145787D01*
X24809Y145278D01*
X25199Y144888D01*
X25709Y144677D01*
X26260D01*
X26769Y144888D01*
X27159Y145278D01*
X27370Y145787D01*
Y146339D01*
X27159Y146848D01*
X26769Y147238D01*
X26260Y147449D01*
D02*
G37*
G36*
X13661D02*
X13110D01*
X12601Y147238D01*
X12211Y146848D01*
X12000Y146339D01*
Y145787D01*
X12211Y145278D01*
X12601Y144888D01*
X13110Y144677D01*
X13661D01*
X14171Y144888D01*
X14561Y145278D01*
X14772Y145787D01*
Y146339D01*
X14561Y146848D01*
X14171Y147238D01*
X13661Y147449D01*
D02*
G37*
G36*
X23110Y144299D02*
X22559D01*
X22050Y144088D01*
X21660Y143698D01*
X21449Y143189D01*
Y142638D01*
X21660Y142128D01*
X22050Y141738D01*
X22559Y141528D01*
X23110D01*
X23620Y141738D01*
X24010Y142128D01*
X24220Y142638D01*
Y143189D01*
X24010Y143698D01*
X23620Y144088D01*
X23110Y144299D01*
D02*
G37*
G36*
X35709Y147055D02*
X35157D01*
X34648Y146844D01*
X34258Y146454D01*
X34047Y145945D01*
Y145394D01*
X34258Y144884D01*
X34648Y144494D01*
X34723Y144464D01*
Y143922D01*
X34648Y143891D01*
X34258Y143501D01*
X34047Y142992D01*
Y142441D01*
X34258Y141931D01*
X34648Y141542D01*
X35157Y141331D01*
X35709D01*
X36218Y141542D01*
X36608Y141931D01*
X36819Y142441D01*
Y142992D01*
X36608Y143501D01*
X36218Y143891D01*
X36143Y143922D01*
Y144464D01*
X36218Y144494D01*
X36608Y144884D01*
X36819Y145394D01*
Y145945D01*
X36608Y146454D01*
X36218Y146844D01*
X35709Y147055D01*
D02*
G37*
G36*
X5197Y141150D02*
X4646D01*
X4136Y140939D01*
X3746Y140549D01*
X3535Y140039D01*
Y139488D01*
X3746Y138979D01*
X4136Y138589D01*
X4646Y138378D01*
X5197D01*
X5706Y138589D01*
X6096Y138979D01*
X6307Y139488D01*
Y140039D01*
X6096Y140549D01*
X5706Y140939D01*
X5197Y141150D01*
D02*
G37*
G36*
X71525Y144877D02*
X70974D01*
X70464Y144666D01*
X70074Y144276D01*
X69863Y143767D01*
Y143216D01*
X70074Y142706D01*
X70248Y142533D01*
X70144Y141949D01*
X70081Y141923D01*
X69691Y141533D01*
X69480Y141024D01*
Y140472D01*
X69660Y140039D01*
X69177Y139839D01*
X68787Y139449D01*
X68576Y138939D01*
Y138388D01*
X68787Y137879D01*
X69177Y137489D01*
X69686Y137278D01*
X70238D01*
X70747Y137489D01*
X71137Y137879D01*
X71348Y138388D01*
Y138939D01*
X71168Y139373D01*
X71651Y139573D01*
X72041Y139963D01*
X72252Y140472D01*
Y141024D01*
X72041Y141533D01*
X71868Y141706D01*
X71971Y142290D01*
X72034Y142316D01*
X72424Y142706D01*
X72635Y143216D01*
Y143767D01*
X72424Y144276D01*
X72034Y144666D01*
X71525Y144877D01*
D02*
G37*
G36*
X51457Y134850D02*
X50905D01*
X50396Y134639D01*
X50006Y134250D01*
X49795Y133740D01*
Y133189D01*
X50006Y132680D01*
X50396Y132290D01*
X50905Y132079D01*
X51457D01*
X51966Y132290D01*
X52356Y132680D01*
X52567Y133189D01*
Y133740D01*
X52356Y134250D01*
X51966Y134639D01*
X51457Y134850D01*
D02*
G37*
G36*
X74095Y133629D02*
X73543D01*
X73034Y133418D01*
X72644Y133028D01*
X72433Y132518D01*
Y131967D01*
X72644Y131458D01*
X73034Y131068D01*
X73543Y130857D01*
X74095D01*
X74604Y131068D01*
X74994Y131458D01*
X75205Y131967D01*
Y132518D01*
X74994Y133028D01*
X74604Y133418D01*
X74095Y133629D01*
D02*
G37*
G36*
X72126Y130323D02*
X71575D01*
X71065Y130112D01*
X70866Y129913D01*
X70667Y130112D01*
X70158Y130323D01*
X69606D01*
X69097Y130112D01*
X68707Y129722D01*
X68496Y129213D01*
Y128661D01*
X68707Y128152D01*
X69097Y127762D01*
X69606Y127551D01*
X70158D01*
X70667Y127762D01*
X70866Y127961D01*
X71065Y127762D01*
X71575Y127551D01*
X72126D01*
X72635Y127762D01*
X73025Y128152D01*
X73236Y128661D01*
Y129213D01*
X73025Y129722D01*
X72635Y130112D01*
X72126Y130323D01*
D02*
G37*
G36*
X45551Y132291D02*
X45000D01*
X44491Y132080D01*
X44101Y131691D01*
X43890Y131181D01*
Y130630D01*
X44101Y130121D01*
X44491Y129731D01*
X45000Y129520D01*
X45551D01*
X46061Y129731D01*
X46450Y130121D01*
X46661Y130630D01*
Y131181D01*
X46450Y131691D01*
X46061Y132080D01*
X45551Y132291D01*
D02*
G37*
G36*
X19961Y128573D02*
X19409D01*
X18900Y128362D01*
X18510Y127972D01*
X18376Y127649D01*
X17837Y127644D01*
X17710Y127950D01*
X17320Y128340D01*
X16811Y128551D01*
X16260D01*
X15750Y128340D01*
X15361Y127950D01*
X15150Y127441D01*
Y126890D01*
X15361Y126380D01*
X15750Y125990D01*
X16161Y125820D01*
X16227Y125461D01*
X16211Y125300D01*
X15947Y125191D01*
X15557Y124801D01*
X15347Y124291D01*
Y123740D01*
X15557Y123231D01*
X15947Y122841D01*
X16457Y122630D01*
X17008D01*
X17517Y122841D01*
X17907Y123231D01*
X18118Y123740D01*
Y124291D01*
X17907Y124801D01*
X17517Y125191D01*
X17107Y125361D01*
X17040Y125720D01*
X17057Y125881D01*
X17320Y125990D01*
X17710Y126380D01*
X17844Y126704D01*
X18383Y126709D01*
X18510Y126402D01*
X18900Y126013D01*
X19409Y125802D01*
X19961D01*
X20470Y126013D01*
X20860Y126402D01*
X21071Y126912D01*
Y127463D01*
X20860Y127972D01*
X20470Y128362D01*
X19961Y128573D01*
D02*
G37*
G36*
X10512Y131701D02*
X9961D01*
X9451Y131490D01*
X9061Y131100D01*
X8850Y130591D01*
Y130039D01*
X9061Y129530D01*
X9451Y129140D01*
X9764Y129011D01*
Y128470D01*
X9451Y128340D01*
X9061Y127950D01*
X8893Y127544D01*
X8515Y127479D01*
X8373Y127495D01*
X8326Y127607D01*
X7937Y127997D01*
X7467Y128191D01*
X7422Y128332D01*
X7407Y128708D01*
X7675Y128819D01*
X8065Y129208D01*
X8276Y129718D01*
Y130269D01*
X8065Y130778D01*
X7675Y131168D01*
X7165Y131379D01*
X6614D01*
X6105Y131168D01*
X5715Y130778D01*
X5504Y130269D01*
Y129718D01*
X5715Y129208D01*
X6105Y128819D01*
X6575Y128624D01*
X6619Y128483D01*
X6634Y128108D01*
X6367Y127997D01*
X5977Y127607D01*
X5766Y127097D01*
Y126546D01*
X5977Y126037D01*
X6367Y125647D01*
X6876Y125436D01*
X7427D01*
X7937Y125647D01*
X8326Y126037D01*
X8495Y126443D01*
X8873Y126508D01*
X9015Y126492D01*
X9061Y126380D01*
X9451Y125990D01*
X9961Y125779D01*
X10512D01*
X11021Y125990D01*
X11411Y126380D01*
X11622Y126890D01*
Y127441D01*
X11411Y127950D01*
X11021Y128340D01*
X10709Y128470D01*
Y129011D01*
X11021Y129140D01*
X11411Y129530D01*
X11622Y130039D01*
Y130591D01*
X11411Y131100D01*
X11021Y131490D01*
X10512Y131701D01*
D02*
G37*
G36*
X54606Y128551D02*
X54055D01*
X53546Y128340D01*
X53156Y127950D01*
X52945Y127441D01*
Y126890D01*
X53156Y126380D01*
X53546Y125990D01*
X54055Y125779D01*
X54606D01*
X55116Y125990D01*
X55506Y126380D01*
X55717Y126890D01*
Y127441D01*
X55506Y127950D01*
X55116Y128340D01*
X54606Y128551D01*
D02*
G37*
G36*
X45158Y128551D02*
X44606D01*
X44097Y128340D01*
X43707Y127950D01*
X43496Y127441D01*
Y126890D01*
X43707Y126380D01*
X44097Y125990D01*
X44606Y125779D01*
X45158D01*
X45667Y125990D01*
X46057Y126380D01*
X46268Y126890D01*
Y127441D01*
X46057Y127950D01*
X45667Y128340D01*
X45158Y128551D01*
D02*
G37*
G36*
X79419Y127951D02*
X78868D01*
X78359Y127740D01*
X77969Y127350D01*
X77758Y126841D01*
Y126289D01*
X77969Y125780D01*
X78359Y125390D01*
X78868Y125179D01*
X79419D01*
X79928Y125390D01*
X80318Y125780D01*
X80529Y126289D01*
Y126841D01*
X80318Y127350D01*
X79928Y127740D01*
X79419Y127951D01*
D02*
G37*
G36*
X63268Y127134D02*
X62717D01*
X62207Y126923D01*
X61817Y126533D01*
X61606Y126024D01*
Y125472D01*
X61817Y124963D01*
X62207Y124573D01*
X62717Y124362D01*
X63268D01*
X63777Y124573D01*
X64167Y124963D01*
X64378Y125472D01*
Y126024D01*
X64167Y126533D01*
X63777Y126923D01*
X63268Y127134D01*
D02*
G37*
G36*
X32756Y126386D02*
X32205D01*
X31695Y126175D01*
X31306Y125785D01*
X31095Y125276D01*
Y124724D01*
X31306Y124215D01*
X31695Y123825D01*
X32205Y123614D01*
X32756D01*
X33265Y123825D01*
X33655Y124215D01*
X33866Y124724D01*
Y125276D01*
X33655Y125785D01*
X33265Y126175D01*
X32756Y126386D01*
D02*
G37*
G36*
X13661Y125402D02*
X13110D01*
X12601Y125191D01*
X12211Y124801D01*
X12000Y124291D01*
Y123740D01*
X12211Y123231D01*
X12601Y122841D01*
X13110Y122630D01*
X13661D01*
X14171Y122841D01*
X14561Y123231D01*
X14772Y123740D01*
Y124291D01*
X14561Y124801D01*
X14171Y125191D01*
X13661Y125402D01*
D02*
G37*
G36*
X48307Y125402D02*
X47756D01*
X47247Y125191D01*
X46857Y124801D01*
X46646Y124291D01*
Y123740D01*
X46857Y123231D01*
X47247Y122841D01*
X47756Y122630D01*
X48307D01*
X48816Y122841D01*
X49206Y123231D01*
X49417Y123740D01*
Y124291D01*
X49206Y124801D01*
X48816Y125191D01*
X48307Y125402D01*
D02*
G37*
G36*
X38858D02*
X38307D01*
X37798Y125191D01*
X37408Y124801D01*
X37197Y124291D01*
Y123740D01*
X37408Y123231D01*
X37798Y122841D01*
X38110Y122712D01*
Y122170D01*
X37798Y122041D01*
X37408Y121651D01*
X37197Y121142D01*
Y120590D01*
X37408Y120081D01*
X37798Y119691D01*
X38307Y119480D01*
X38858D01*
X39368Y119691D01*
X39757Y120081D01*
X39887Y120394D01*
X40428D01*
X40558Y120081D01*
X40947Y119691D01*
X41457Y119480D01*
X42008D01*
X42517Y119691D01*
X42907Y120081D01*
X43036Y120393D01*
X43578D01*
X43707Y120081D01*
X44097Y119691D01*
X44606Y119480D01*
X45158D01*
X45667Y119691D01*
X46057Y120081D01*
X46268Y120590D01*
Y121142D01*
X46057Y121651D01*
X45667Y122041D01*
X45158Y122252D01*
X44606D01*
X44097Y122041D01*
X43707Y121651D01*
X43578Y121339D01*
X43036D01*
X42907Y121651D01*
X42517Y122041D01*
X42008Y122252D01*
X41457D01*
X40947Y122041D01*
X40558Y121651D01*
X40428Y121339D01*
X39887D01*
X39757Y121651D01*
X39368Y122041D01*
X39055Y122170D01*
Y122712D01*
X39368Y122841D01*
X39757Y123231D01*
X39968Y123740D01*
Y124291D01*
X39757Y124801D01*
X39368Y125191D01*
X38858Y125402D01*
D02*
G37*
G36*
X51457Y119102D02*
X50906D01*
X50396Y118891D01*
X50006Y118501D01*
X49877Y118189D01*
X49336D01*
X49206Y118501D01*
X48816Y118891D01*
X48307Y119102D01*
X47756D01*
X47247Y118891D01*
X46857Y118501D01*
X46646Y117992D01*
Y117441D01*
X46857Y116931D01*
X47247Y116542D01*
X47756Y116331D01*
X48307D01*
X48816Y116542D01*
X49206Y116931D01*
X49336Y117244D01*
X49877D01*
X50006Y116931D01*
X50396Y116542D01*
X50708Y116412D01*
Y115871D01*
X50396Y115742D01*
X50006Y115352D01*
X49795Y114843D01*
Y114291D01*
X50006Y113782D01*
X50396Y113392D01*
X50906Y113181D01*
X51457D01*
X51966Y113392D01*
X52356Y113782D01*
X52567Y114291D01*
Y114843D01*
X52356Y115352D01*
X51966Y115742D01*
X51654Y115871D01*
Y116412D01*
X51966Y116542D01*
X52356Y116931D01*
X52567Y117441D01*
Y117992D01*
X52356Y118501D01*
X51966Y118891D01*
X51457Y119102D01*
D02*
G37*
G36*
X19961D02*
X19409D01*
X18900Y118891D01*
X18510Y118501D01*
X18299Y117992D01*
Y117441D01*
X18510Y116931D01*
X18900Y116542D01*
X19212Y116412D01*
Y115871D01*
X18900Y115742D01*
X18510Y115352D01*
X18381Y115040D01*
X17840D01*
X17710Y115352D01*
X17320Y115742D01*
X16811Y115953D01*
X16260D01*
X15750Y115742D01*
X15361Y115352D01*
X15150Y114843D01*
Y114291D01*
X15361Y113782D01*
X15750Y113392D01*
X16063Y113263D01*
Y112722D01*
X15750Y112592D01*
X15361Y112202D01*
X15150Y111693D01*
Y111142D01*
X15361Y110632D01*
X15750Y110242D01*
X16260Y110031D01*
X16811D01*
X17320Y110242D01*
X17710Y110632D01*
X17921Y111142D01*
Y111693D01*
X17710Y112202D01*
X17320Y112592D01*
X17008Y112722D01*
Y113263D01*
X17320Y113392D01*
X17710Y113782D01*
X17840Y114094D01*
X18381D01*
X18510Y113782D01*
X18900Y113392D01*
X19409Y113181D01*
X19961D01*
X20470Y113392D01*
X20860Y113782D01*
X20989Y114094D01*
X21530D01*
X21660Y113782D01*
X22050Y113392D01*
X22559Y113181D01*
X23110D01*
X23620Y113392D01*
X24010Y113782D01*
X24139Y114094D01*
X24680D01*
X24809Y113782D01*
X25199Y113392D01*
X25709Y113181D01*
X26260D01*
X26769Y113392D01*
X27159Y113782D01*
X27370Y114291D01*
Y114843D01*
X27159Y115352D01*
X26769Y115742D01*
X26260Y115953D01*
X25709D01*
X25199Y115742D01*
X24809Y115352D01*
X24680Y115040D01*
X24139D01*
X24010Y115352D01*
X23620Y115742D01*
X23110Y115953D01*
X22559D01*
X22050Y115742D01*
X21660Y115352D01*
X21530Y115040D01*
X20989D01*
X20860Y115352D01*
X20470Y115742D01*
X20158Y115871D01*
Y116412D01*
X20470Y116542D01*
X20860Y116931D01*
X21071Y117441D01*
Y117992D01*
X20860Y118501D01*
X20470Y118891D01*
X19961Y119102D01*
D02*
G37*
G36*
X57756Y115953D02*
X57205D01*
X56695Y115742D01*
X56305Y115352D01*
X56094Y114843D01*
Y114291D01*
X56305Y113782D01*
X56695Y113392D01*
X57205Y113181D01*
X57756D01*
X58265Y113392D01*
X58655Y113782D01*
X58866Y114291D01*
Y114843D01*
X58655Y115352D01*
X58265Y115742D01*
X57756Y115953D01*
D02*
G37*
G36*
X10534D02*
X9983D01*
X9473Y115742D01*
X9083Y115352D01*
X8873Y114843D01*
Y114291D01*
X9083Y113782D01*
X9473Y113392D01*
X9983Y113181D01*
X10534D01*
X11043Y113392D01*
X11433Y113782D01*
X11644Y114291D01*
Y114843D01*
X11433Y115352D01*
X11043Y115742D01*
X10534Y115953D01*
D02*
G37*
G36*
X60906Y112803D02*
X60354D01*
X59845Y112592D01*
X59455Y112202D01*
X59244Y111693D01*
Y111142D01*
X59455Y110632D01*
X59845Y110242D01*
X60354Y110031D01*
X60906D01*
X61415Y110242D01*
X61805Y110632D01*
X62016Y111142D01*
Y111693D01*
X61805Y112202D01*
X61415Y112592D01*
X60906Y112803D01*
D02*
G37*
G36*
X7362D02*
X6811D01*
X6302Y112592D01*
X5912Y112202D01*
X5701Y111693D01*
Y111142D01*
X5912Y110632D01*
X6302Y110242D01*
X6811Y110031D01*
X7362D01*
X7872Y110242D01*
X8262Y110632D01*
X8472Y111142D01*
Y111693D01*
X8262Y112202D01*
X7872Y112592D01*
X7362Y112803D01*
D02*
G37*
G36*
X13661Y109653D02*
X13110D01*
X12601Y109443D01*
X12211Y109053D01*
X12093Y108767D01*
X11551D01*
X11433Y109053D01*
X11043Y109443D01*
X10534Y109653D01*
X9983D01*
X9473Y109443D01*
X9083Y109053D01*
X8873Y108543D01*
Y107992D01*
X9083Y107483D01*
X9473Y107093D01*
X9983Y106882D01*
X10534D01*
X11043Y107093D01*
X11433Y107483D01*
X11551Y107768D01*
X12093D01*
X12211Y107483D01*
X12601Y107093D01*
X13110Y106882D01*
X13661D01*
X14171Y107093D01*
X14561Y107483D01*
X14772Y107992D01*
Y108543D01*
X14561Y109053D01*
X14171Y109443D01*
X13661Y109653D01*
D02*
G37*
G36*
X54606D02*
X54055D01*
X53546Y109443D01*
X53156Y109053D01*
X52945Y108543D01*
Y107992D01*
X53156Y107483D01*
X53546Y107093D01*
X54055Y106882D01*
X54606D01*
X55116Y107093D01*
X55506Y107483D01*
X55717Y107992D01*
Y108543D01*
X55506Y109053D01*
X55116Y109443D01*
X54606Y109653D01*
D02*
G37*
G36*
X69173Y108905D02*
X68622D01*
X68113Y108695D01*
X67723Y108305D01*
X67512Y107795D01*
Y107244D01*
X67723Y106735D01*
X68113Y106345D01*
X68622Y106134D01*
X69173D01*
X69683Y106345D01*
X70073Y106735D01*
X70284Y107244D01*
Y107795D01*
X70073Y108305D01*
X69683Y108695D01*
X69173Y108905D01*
D02*
G37*
G36*
X34725Y107685D02*
X34173D01*
X33664Y107474D01*
X33274Y107084D01*
X33063Y106575D01*
Y106024D01*
X33274Y105514D01*
X33664Y105124D01*
X34173Y104913D01*
X34725D01*
X35234Y105124D01*
X35624Y105514D01*
X35835Y106024D01*
Y106575D01*
X35624Y107084D01*
X35234Y107474D01*
X34725Y107685D01*
D02*
G37*
G36*
X18428Y109653D02*
X17877D01*
X17367Y109443D01*
X16977Y109053D01*
X16767Y108543D01*
Y107992D01*
X16977Y107483D01*
X17367Y107093D01*
X17877Y106882D01*
X18103D01*
X18299Y106589D01*
Y106037D01*
X18510Y105528D01*
X18900Y105138D01*
X19409Y104927D01*
X19961D01*
X20470Y105138D01*
X20557Y105225D01*
X21129Y105152D01*
X21519Y104762D01*
X22028Y104551D01*
X22579D01*
X23089Y104762D01*
X23479Y105152D01*
X23689Y105661D01*
Y106213D01*
X23479Y106722D01*
X23089Y107112D01*
X22579Y107323D01*
X22028D01*
X21519Y107112D01*
X21431Y107025D01*
X20860Y107098D01*
X20470Y107488D01*
X19961Y107699D01*
X19734D01*
X19538Y107992D01*
Y108543D01*
X19327Y109053D01*
X18937Y109443D01*
X18428Y109653D01*
D02*
G37*
G36*
X7165Y106701D02*
X6614D01*
X6105Y106490D01*
X5715Y106100D01*
X5504Y105591D01*
Y105039D01*
X5715Y104530D01*
X6105Y104140D01*
X6614Y103929D01*
X7165D01*
X7675Y104140D01*
X8065Y104530D01*
X8276Y105039D01*
Y105591D01*
X8065Y106100D01*
X7675Y106490D01*
X7165Y106701D01*
D02*
G37*
G36*
X49408Y105601D02*
X48857D01*
X48347Y105390D01*
X47958Y105000D01*
X47747Y104491D01*
Y103939D01*
X47958Y103430D01*
X48347Y103040D01*
X48857Y102829D01*
X49408D01*
X49917Y103040D01*
X50307Y103430D01*
X50518Y103939D01*
Y104491D01*
X50307Y105000D01*
X49917Y105390D01*
X49408Y105601D01*
D02*
G37*
G36*
X5197Y103953D02*
X4646D01*
X4136Y103742D01*
X3746Y103352D01*
X3535Y102843D01*
Y102291D01*
X3746Y101782D01*
X4136Y101392D01*
X4646Y101181D01*
X5197D01*
X5706Y101392D01*
X6096Y101782D01*
X6307Y102291D01*
Y102843D01*
X6096Y103352D01*
X5706Y103742D01*
X5197Y103953D01*
D02*
G37*
G36*
X67205Y102764D02*
X66654D01*
X66144Y102553D01*
X65754Y102163D01*
X65543Y101654D01*
Y101102D01*
X65754Y100593D01*
X66144Y100203D01*
X66654Y99992D01*
X67205D01*
X67714Y100203D01*
X68104Y100593D01*
X68315Y101102D01*
Y101654D01*
X68104Y102163D01*
X67714Y102553D01*
X67205Y102764D01*
D02*
G37*
G36*
X42599Y101779D02*
X42047D01*
X41538Y101568D01*
X41148Y101179D01*
X40937Y100669D01*
Y100118D01*
X41148Y99609D01*
X41538Y99219D01*
X42047Y99008D01*
X42599D01*
X43108Y99219D01*
X43498Y99609D01*
X43709Y100118D01*
Y100669D01*
X43498Y101179D01*
X43108Y101568D01*
X42599Y101779D01*
D02*
G37*
G36*
X8748D02*
X8197D01*
X7687Y101568D01*
X7298Y101179D01*
X7087Y100669D01*
Y100118D01*
X7298Y99609D01*
X7687Y99219D01*
X8197Y99008D01*
X8748D01*
X9257Y99219D01*
X9647Y99609D01*
X9858Y100118D01*
Y100669D01*
X9647Y101179D01*
X9257Y101568D01*
X8748Y101779D01*
D02*
G37*
G36*
X47815Y101091D02*
X47264D01*
X46754Y100880D01*
X46365Y100490D01*
X46154Y99980D01*
Y99429D01*
X46365Y98920D01*
X46754Y98530D01*
X47264Y98319D01*
X47815D01*
X48324Y98530D01*
X48714Y98920D01*
X48925Y99429D01*
Y99980D01*
X48714Y100490D01*
X48324Y100880D01*
X47815Y101091D01*
D02*
G37*
G36*
X37382D02*
X36831D01*
X36321Y100880D01*
X35932Y100490D01*
X35721Y99980D01*
Y99429D01*
X35932Y98920D01*
X36321Y98530D01*
X36831Y98319D01*
X37382D01*
X37891Y98530D01*
X38281Y98920D01*
X38492Y99429D01*
Y99980D01*
X38281Y100490D01*
X37891Y100880D01*
X37382Y101091D01*
D02*
G37*
G36*
X18976Y99811D02*
X18425D01*
X17916Y99600D01*
X17526Y99210D01*
X17315Y98701D01*
Y98150D01*
X17526Y97640D01*
X17916Y97250D01*
X18425Y97039D01*
X18976D01*
X19486Y97250D01*
X19876Y97640D01*
X20087Y98150D01*
Y98701D01*
X19876Y99210D01*
X19486Y99600D01*
X18976Y99811D01*
D02*
G37*
G36*
X12844Y101417D02*
X12292D01*
X11783Y101206D01*
X11393Y100817D01*
X11182Y100307D01*
Y99756D01*
X11393Y99247D01*
X11783Y98857D01*
X12114Y98720D01*
X12566Y98506D01*
Y97955D01*
X12777Y97445D01*
X13167Y97056D01*
X13677Y96845D01*
X14228D01*
X14737Y97056D01*
X15127Y97445D01*
X15338Y97955D01*
Y98506D01*
X15127Y99015D01*
X14737Y99405D01*
X14407Y99542D01*
X13954Y99756D01*
Y100307D01*
X13743Y100817D01*
X13353Y101206D01*
X12844Y101417D01*
D02*
G37*
G36*
X26555Y101779D02*
X26004D01*
X25495Y101568D01*
X25105Y101179D01*
X24894Y100669D01*
Y100118D01*
X25105Y99609D01*
X25495Y99219D01*
X25326Y98747D01*
X25189Y98417D01*
Y97866D01*
X25400Y97356D01*
X25790Y96966D01*
X26299Y96755D01*
X26851D01*
X27360Y96966D01*
X27750Y97356D01*
X27961Y97866D01*
Y98417D01*
X27750Y98926D01*
X27360Y99316D01*
X27528Y99787D01*
X27665Y100118D01*
Y100669D01*
X27454Y101179D01*
X27064Y101568D01*
X26555Y101779D01*
D02*
G37*
G36*
X77047Y94890D02*
X76496D01*
X75987Y94679D01*
X75597Y94289D01*
X75386Y93780D01*
Y93228D01*
X75597Y92719D01*
X75987Y92329D01*
X76496Y92118D01*
X77047D01*
X77557Y92329D01*
X77947Y92719D01*
X78158Y93228D01*
Y93780D01*
X77947Y94289D01*
X77557Y94679D01*
X77047Y94890D01*
D02*
G37*
G36*
X35709Y93906D02*
X35157D01*
X34648Y93695D01*
X34258Y93305D01*
X34047Y92795D01*
Y92244D01*
X34258Y91735D01*
X34648Y91345D01*
X35157Y91134D01*
X35709D01*
X36218Y91345D01*
X36608Y91735D01*
X36819Y92244D01*
Y92795D01*
X36608Y93305D01*
X36218Y93695D01*
X35709Y93906D01*
D02*
G37*
G36*
X19651Y91900D02*
X19100D01*
X18591Y91689D01*
X18201Y91299D01*
X17990Y90789D01*
Y90238D01*
X18201Y89729D01*
X18591Y89339D01*
X19100Y89128D01*
X19651D01*
X20161Y89339D01*
X20551Y89729D01*
X20762Y90238D01*
Y90789D01*
X20551Y91299D01*
X20161Y91689D01*
X19651Y91900D01*
D02*
G37*
G36*
X20945Y86032D02*
X20394D01*
X19884Y85821D01*
X19494Y85431D01*
X19284Y84921D01*
Y84370D01*
X19494Y83861D01*
X19884Y83471D01*
X20394Y83260D01*
X20945D01*
X21454Y83471D01*
X21844Y83861D01*
X22055Y84370D01*
Y84921D01*
X21844Y85431D01*
X21454Y85821D01*
X20945Y86032D01*
D02*
G37*
G36*
X72047Y82908D02*
X71787D01*
Y79780D01*
X74915D01*
Y80040D01*
X74690Y80880D01*
X74255Y81633D01*
X73640Y82248D01*
X72887Y82683D01*
X72047Y82908D01*
D02*
G37*
G36*
X71437D02*
X71178D01*
X70337Y82683D01*
X69584Y82248D01*
X68970Y81633D01*
X68535Y80880D01*
X68310Y80040D01*
Y79780D01*
X71437D01*
Y82908D01*
D02*
G37*
G36*
X50079Y81701D02*
X49527D01*
X49018Y81490D01*
X48628Y81100D01*
X48417Y80591D01*
Y80039D01*
X48628Y79530D01*
X49018Y79140D01*
X49527Y78929D01*
X50079D01*
X50588Y79140D01*
X50978Y79530D01*
X51189Y80039D01*
Y80591D01*
X50978Y81100D01*
X50588Y81490D01*
X50079Y81701D01*
D02*
G37*
G36*
X74915Y79430D02*
X71787D01*
Y76303D01*
X72047D01*
X72887Y76528D01*
X73640Y76963D01*
X74255Y77577D01*
X74690Y78331D01*
X74915Y79171D01*
Y79430D01*
D02*
G37*
G36*
X71437D02*
X68310D01*
Y79171D01*
X68535Y78331D01*
X68970Y77577D01*
X69584Y76963D01*
X70337Y76528D01*
X71178Y76303D01*
X71437D01*
Y79430D01*
D02*
G37*
G36*
X14048Y79452D02*
X13496D01*
X12987Y79241D01*
X12597Y78851D01*
X12386Y78342D01*
Y77791D01*
X12597Y77281D01*
X12956Y76923D01*
X12605Y76572D01*
X12394Y76063D01*
Y75512D01*
X12605Y75002D01*
X12994Y74613D01*
X13504Y74402D01*
X14055D01*
X14564Y74613D01*
X14954Y75002D01*
X15165Y75512D01*
Y76063D01*
X14954Y76572D01*
X14596Y76931D01*
X14947Y77281D01*
X15158Y77791D01*
Y78342D01*
X14947Y78851D01*
X14557Y79241D01*
X14048Y79452D01*
D02*
G37*
G36*
X58658Y77484D02*
X58106D01*
X57597Y77273D01*
X57207Y76883D01*
X56996Y76374D01*
Y75878D01*
X56500D01*
X55991Y75667D01*
X55601Y75277D01*
X55390Y74768D01*
Y74217D01*
X55601Y73707D01*
X55991Y73317D01*
X56500Y73106D01*
X57051D01*
X57561Y73317D01*
X57950Y73707D01*
X58161Y74217D01*
Y74713D01*
X58658D01*
X59167Y74924D01*
X59557Y75313D01*
X59768Y75823D01*
Y76374D01*
X59557Y76883D01*
X59167Y77273D01*
X58658Y77484D01*
D02*
G37*
G36*
X51457Y75205D02*
X50905D01*
X50396Y74994D01*
X50006Y74604D01*
X49795Y74095D01*
Y73543D01*
X50006Y73034D01*
X50396Y72644D01*
X50905Y72433D01*
X51457D01*
X51966Y72644D01*
X52356Y73034D01*
X52567Y73543D01*
Y74095D01*
X52356Y74604D01*
X51966Y74994D01*
X51457Y75205D01*
D02*
G37*
G36*
X10118Y62409D02*
X9567D01*
X9058Y62199D01*
X8668Y61809D01*
X8457Y61299D01*
Y60748D01*
X8668Y60239D01*
X9058Y59849D01*
X9567Y59638D01*
X10118D01*
X10627Y59849D01*
X11017Y60239D01*
X11228Y60748D01*
Y61299D01*
X11017Y61809D01*
X10627Y62199D01*
X10118Y62409D01*
D02*
G37*
G36*
X34725Y61425D02*
X34173D01*
X33664Y61214D01*
X33274Y60824D01*
X33063Y60315D01*
Y59764D01*
X33274Y59254D01*
X33664Y58864D01*
X34173Y58653D01*
X34725D01*
X35234Y58864D01*
X35624Y59254D01*
X35835Y59764D01*
Y60315D01*
X35624Y60824D01*
X35234Y61214D01*
X34725Y61425D01*
D02*
G37*
G36*
X71142Y59457D02*
X70591D01*
X70081Y59246D01*
X69691Y58856D01*
X69480Y58346D01*
Y57795D01*
X69691Y57286D01*
X70081Y56896D01*
X70591Y56685D01*
X71142D01*
X71651Y56896D01*
X72041Y57286D01*
X72252Y57795D01*
Y58346D01*
X72041Y58856D01*
X71651Y59246D01*
X71142Y59457D01*
D02*
G37*
G36*
X16024D02*
X15472D01*
X14963Y59246D01*
X14573Y58856D01*
X14362Y58346D01*
Y57795D01*
X14573Y57286D01*
X14963Y56896D01*
X15472Y56685D01*
X16024D01*
X16533Y56896D01*
X16923Y57286D01*
X17134Y57795D01*
Y58346D01*
X16923Y58856D01*
X16533Y59246D01*
X16024Y59457D01*
D02*
G37*
G36*
X55394Y58472D02*
X54842D01*
X54333Y58262D01*
X53943Y57872D01*
X53732Y57362D01*
Y56811D01*
X53943Y56302D01*
X54333Y55912D01*
X54842Y55701D01*
X55394D01*
X55903Y55912D01*
X56293Y56302D01*
X56504Y56811D01*
Y57362D01*
X56293Y57872D01*
X55903Y58262D01*
X55394Y58472D01*
D02*
G37*
G36*
X37677Y56504D02*
X37126D01*
X36617Y56293D01*
X36227Y55903D01*
X36016Y55394D01*
Y54842D01*
X36227Y54333D01*
X36617Y53943D01*
X37126Y53732D01*
X37677D01*
X38187Y53943D01*
X38576Y54333D01*
X38787Y54842D01*
Y55394D01*
X38576Y55903D01*
X38187Y56293D01*
X37677Y56504D01*
D02*
G37*
G36*
X62494Y49956D02*
X62183D01*
Y46435D01*
X65704D01*
Y46747D01*
X65452Y47687D01*
X64966Y48529D01*
X64277Y49218D01*
X63435Y49704D01*
X62494Y49956D01*
D02*
G37*
G36*
X61833D02*
X61521D01*
X60581Y49704D01*
X59738Y49218D01*
X59050Y48529D01*
X58563Y47687D01*
X58311Y46747D01*
Y46435D01*
X61833D01*
Y49956D01*
D02*
G37*
G36*
X23124D02*
X22813D01*
Y46435D01*
X26334D01*
Y46747D01*
X26082Y47687D01*
X25596Y48529D01*
X24907Y49218D01*
X24065Y49704D01*
X23124Y49956D01*
D02*
G37*
G36*
X22463D02*
X22151D01*
X21211Y49704D01*
X20368Y49218D01*
X19680Y48529D01*
X19193Y47687D01*
X18941Y46747D01*
Y46435D01*
X22463D01*
Y49956D01*
D02*
G37*
G36*
X73281Y51610D02*
X72152D01*
X71062Y51318D01*
X70084Y50753D01*
X69286Y49955D01*
X68722Y48978D01*
X68429Y47887D01*
Y46758D01*
X68722Y45668D01*
X69286Y44691D01*
X70084Y43892D01*
X71062Y43328D01*
X72152Y43036D01*
X73281D01*
X74371Y43328D01*
X75349Y43892D01*
X76147Y44691D01*
X76711Y45668D01*
X77004Y46758D01*
Y47887D01*
X76711Y48978D01*
X76147Y49955D01*
X75349Y50753D01*
X74371Y51318D01*
X73281Y51610D01*
D02*
G37*
G36*
X51864D02*
X50735D01*
X49645Y51318D01*
X48667Y50753D01*
X47869Y49955D01*
X47304Y48978D01*
X47012Y47887D01*
Y46758D01*
X47304Y45668D01*
X47869Y44691D01*
X48667Y43892D01*
X49645Y43328D01*
X50735Y43036D01*
X51864D01*
X52954Y43328D01*
X53931Y43892D01*
X54730Y44691D01*
X55294Y45668D01*
X55586Y46758D01*
Y47887D01*
X55294Y48978D01*
X54730Y49955D01*
X53931Y50753D01*
X52954Y51318D01*
X51864Y51610D01*
D02*
G37*
G36*
X33911D02*
X32782D01*
X31692Y51318D01*
X30714Y50753D01*
X29916Y49955D01*
X29352Y48978D01*
X29059Y47887D01*
Y46758D01*
X29352Y45668D01*
X29916Y44691D01*
X30714Y43892D01*
X31692Y43328D01*
X32782Y43036D01*
X33911D01*
X35001Y43328D01*
X35979Y43892D01*
X36777Y44691D01*
X37341Y45668D01*
X37633Y46758D01*
Y47887D01*
X37341Y48978D01*
X36777Y49955D01*
X35979Y50753D01*
X35001Y51318D01*
X33911Y51610D01*
D02*
G37*
G36*
X12494D02*
X11365D01*
X10274Y51318D01*
X9297Y50753D01*
X8499Y49955D01*
X7934Y48978D01*
X7642Y47887D01*
Y46758D01*
X7934Y45668D01*
X8499Y44691D01*
X9297Y43892D01*
X10274Y43328D01*
X11365Y43036D01*
X12494D01*
X13584Y43328D01*
X14561Y43892D01*
X15360Y44691D01*
X15924Y45668D01*
X16216Y46758D01*
Y47887D01*
X15924Y48978D01*
X15360Y49955D01*
X14561Y50753D01*
X13584Y51318D01*
X12494Y51610D01*
D02*
G37*
G36*
X8998Y39228D02*
X8738D01*
Y36100D01*
X11866D01*
Y36360D01*
X11641Y37200D01*
X11206Y37953D01*
X10591Y38568D01*
X9838Y39003D01*
X8998Y39228D01*
D02*
G37*
G36*
X8388D02*
X8128D01*
X7288Y39003D01*
X6535Y38568D01*
X5920Y37953D01*
X5485Y37200D01*
X5260Y36360D01*
Y36100D01*
X8388D01*
Y39228D01*
D02*
G37*
G36*
X11866Y35750D02*
X8738D01*
Y32622D01*
X8998D01*
X9838Y32847D01*
X10591Y33282D01*
X11206Y33897D01*
X11641Y34650D01*
X11866Y35490D01*
Y35750D01*
D02*
G37*
G36*
X8388D02*
X5260D01*
Y35490D01*
X5485Y34650D01*
X5920Y33897D01*
X6535Y33282D01*
X7288Y32847D01*
X8128Y32622D01*
X8388D01*
Y35750D01*
D02*
G37*
G36*
X65704Y46085D02*
X58311D01*
Y45773D01*
X58563Y44833D01*
X59050Y43990D01*
X59738Y43302D01*
X60581Y42815D01*
X61521Y42563D01*
Y42082D01*
X60581Y41830D01*
X59738Y41344D01*
X59050Y40655D01*
X58563Y39813D01*
X58311Y38873D01*
Y37899D01*
X58563Y36959D01*
X59050Y36116D01*
X59738Y35428D01*
X60581Y34941D01*
X61521Y34689D01*
Y34208D01*
X60581Y33956D01*
X59738Y33470D01*
X59050Y32781D01*
X58563Y31939D01*
X58311Y30999D01*
Y30025D01*
X58563Y29085D01*
X59050Y28242D01*
X59738Y27554D01*
X60581Y27067D01*
X61521Y26815D01*
Y26334D01*
X60581Y26082D01*
X59738Y25596D01*
X59050Y24907D01*
X58563Y24065D01*
X58311Y23124D01*
Y22151D01*
X58563Y21211D01*
X59050Y20368D01*
X59738Y19680D01*
X60581Y19193D01*
X61521Y18941D01*
X62494D01*
X63435Y19193D01*
X64277Y19680D01*
X64966Y20368D01*
X65452Y21211D01*
X65704Y22151D01*
Y23124D01*
X65452Y24065D01*
X64966Y24907D01*
X64277Y25596D01*
X63435Y26082D01*
X62494Y26334D01*
Y26815D01*
X63435Y27067D01*
X64277Y27554D01*
X64966Y28242D01*
X65452Y29085D01*
X65704Y30025D01*
Y30999D01*
X65452Y31939D01*
X64966Y32781D01*
X64277Y33470D01*
X63435Y33956D01*
X62494Y34208D01*
Y34689D01*
X63435Y34941D01*
X64277Y35428D01*
X64966Y36116D01*
X65452Y36959D01*
X65704Y37899D01*
Y38873D01*
X65452Y39813D01*
X64966Y40655D01*
X64277Y41344D01*
X63435Y41830D01*
X62494Y42082D01*
Y42563D01*
X63435Y42815D01*
X64277Y43302D01*
X64966Y43990D01*
X65452Y44833D01*
X65704Y45773D01*
Y46085D01*
D02*
G37*
G36*
X26334D02*
X18941D01*
Y45773D01*
X19193Y44833D01*
X19680Y43990D01*
X20368Y43302D01*
X21211Y42815D01*
X22151Y42563D01*
Y42082D01*
X21211Y41830D01*
X20368Y41344D01*
X19680Y40655D01*
X19193Y39813D01*
X18941Y38873D01*
Y37899D01*
X19193Y36959D01*
X19680Y36116D01*
X20368Y35428D01*
X21211Y34941D01*
X22151Y34689D01*
Y34208D01*
X21211Y33956D01*
X20368Y33470D01*
X19680Y32781D01*
X19193Y31939D01*
X18941Y30999D01*
Y30025D01*
X19193Y29085D01*
X19680Y28242D01*
X20368Y27554D01*
X21211Y27067D01*
X22151Y26815D01*
Y26334D01*
X21211Y26082D01*
X20368Y25596D01*
X19680Y24907D01*
X19193Y24065D01*
X18941Y23124D01*
Y22151D01*
X19193Y21211D01*
X19680Y20368D01*
X20368Y19680D01*
X21211Y19193D01*
X22151Y18941D01*
X23124D01*
X24065Y19193D01*
X24907Y19680D01*
X25596Y20368D01*
X26082Y21211D01*
X26334Y22151D01*
Y23124D01*
X26082Y24065D01*
X25596Y24907D01*
X24907Y25596D01*
X24065Y26082D01*
X23124Y26334D01*
Y26815D01*
X24065Y27067D01*
X24907Y27554D01*
X25596Y28242D01*
X26082Y29085D01*
X26334Y30025D01*
Y30999D01*
X26082Y31939D01*
X25596Y32781D01*
X24907Y33470D01*
X24065Y33956D01*
X23124Y34208D01*
Y34689D01*
X24065Y34941D01*
X24907Y35428D01*
X25596Y36116D01*
X26082Y36959D01*
X26334Y37899D01*
Y38873D01*
X26082Y39813D01*
X25596Y40655D01*
X24907Y41344D01*
X24065Y41830D01*
X23124Y42082D01*
Y42563D01*
X24065Y42815D01*
X24907Y43302D01*
X25596Y43990D01*
X26082Y44833D01*
X26334Y45773D01*
Y46085D01*
D02*
G37*
G36*
X73281Y24051D02*
X72152D01*
X71062Y23759D01*
X70084Y23194D01*
X69286Y22396D01*
X68722Y21418D01*
X68429Y20328D01*
Y19199D01*
X68722Y18109D01*
X69286Y17131D01*
X70084Y16333D01*
X71062Y15769D01*
X72152Y15477D01*
X73281D01*
X74371Y15769D01*
X75349Y16333D01*
X76147Y17131D01*
X76711Y18109D01*
X77004Y19199D01*
Y20328D01*
X76711Y21418D01*
X76147Y22396D01*
X75349Y23194D01*
X74371Y23759D01*
X73281Y24051D01*
D02*
G37*
G36*
X51864D02*
X50735D01*
X49645Y23759D01*
X48667Y23194D01*
X47869Y22396D01*
X47304Y21418D01*
X47012Y20328D01*
Y19199D01*
X47304Y18109D01*
X47869Y17131D01*
X48667Y16333D01*
X49645Y15769D01*
X50735Y15477D01*
X51864D01*
X52954Y15769D01*
X53931Y16333D01*
X54730Y17131D01*
X55294Y18109D01*
X55586Y19199D01*
Y20328D01*
X55294Y21418D01*
X54730Y22396D01*
X53931Y23194D01*
X52954Y23759D01*
X51864Y24051D01*
D02*
G37*
G36*
X33911D02*
X32782D01*
X31692Y23759D01*
X30714Y23194D01*
X29916Y22396D01*
X29352Y21418D01*
X29059Y20328D01*
Y19199D01*
X29352Y18109D01*
X29916Y17131D01*
X30714Y16333D01*
X31692Y15769D01*
X32782Y15477D01*
X33911D01*
X35001Y15769D01*
X35979Y16333D01*
X36777Y17131D01*
X37341Y18109D01*
X37633Y19199D01*
Y20328D01*
X37341Y21418D01*
X36777Y22396D01*
X35979Y23194D01*
X35001Y23759D01*
X33911Y24051D01*
D02*
G37*
G36*
X12494D02*
X11365D01*
X10274Y23759D01*
X9297Y23194D01*
X8499Y22396D01*
X7934Y21418D01*
X7642Y20328D01*
Y19199D01*
X7934Y18109D01*
X8499Y17131D01*
X9297Y16333D01*
X10274Y15769D01*
X11365Y15477D01*
X12494D01*
X13584Y15769D01*
X14561Y16333D01*
X15360Y17131D01*
X15924Y18109D01*
X16216Y19199D01*
Y20328D01*
X15924Y21418D01*
X15360Y22396D01*
X14561Y23194D01*
X13584Y23759D01*
X12494Y24051D01*
D02*
G37*
%LPD*%
D74*
X71612Y79605D02*
D03*
X8563Y35925D02*
D03*
X74689Y265112D02*
D03*
X7465Y247100D02*
D03*
X76772Y208504D02*
D03*
D77*
X22638Y46260D02*
D03*
X62008D02*
D03*
D80*
X29240Y172244D02*
D03*
X52551Y169598D02*
D03*
X26280Y53839D02*
D03*
X73819Y189173D02*
D03*
X6739Y120827D02*
D03*
X38386Y215551D02*
D03*
X51157Y127165D02*
D03*
X41710Y146063D02*
D03*
X64226Y188272D02*
D03*
X67913Y146653D02*
D03*
X20669Y164134D02*
D03*
X8858Y188976D02*
D03*
X47547Y212629D02*
D03*
X7874Y220472D02*
D03*
X60630Y161811D02*
D03*
X63976Y157480D02*
D03*
X59579Y145752D02*
D03*
X65945Y128937D02*
D03*
X75711Y120308D02*
D03*
X70866Y125000D02*
D03*
X53150Y104567D02*
D03*
X46260Y106299D02*
D03*
X39370Y105801D02*
D03*
X24606Y106535D02*
D03*
X47244Y79724D02*
D03*
X35433Y94791D02*
D03*
X16732Y89567D02*
D03*
X5906Y92520D02*
D03*
X74803Y105315D02*
D03*
X65945Y106299D02*
D03*
X62992Y94488D02*
D03*
X63976Y91535D02*
D03*
X9843Y70866D02*
D03*
X15748Y72835D02*
D03*
X29528Y61024D02*
D03*
X48228Y72835D02*
D03*
X54134D02*
D03*
X66929Y60039D02*
D03*
X30512Y240158D02*
D03*
X33465Y236221D02*
D03*
X37402Y225394D02*
D03*
X55118Y224410D02*
D03*
X39248Y61228D02*
D03*
X54331Y120888D02*
D03*
X15748Y207677D02*
D03*
X51583Y198512D02*
D03*
X57649Y195491D02*
D03*
X49213Y191929D02*
D03*
X66929Y224410D02*
D03*
X65945Y249016D02*
D03*
X67913Y261811D02*
D03*
X11811D02*
D03*
X60630Y120877D02*
D03*
X22835Y127187D02*
D03*
X10258Y111417D02*
D03*
X7087Y108268D02*
D03*
X13386Y111417D02*
D03*
X54331Y161811D02*
D03*
X57480Y158661D02*
D03*
X54331Y155512D02*
D03*
X44882D02*
D03*
X51181Y152362D02*
D03*
X48031Y149213D02*
D03*
Y146063D02*
D03*
Y139764D02*
D03*
X44882Y146063D02*
D03*
Y142913D02*
D03*
X60630Y114567D02*
D03*
X54331Y117717D02*
D03*
Y114567D02*
D03*
X60630Y108268D02*
D03*
X54331Y111417D02*
D03*
Y133465D02*
D03*
X48031Y120866D02*
D03*
X44882Y124016D02*
D03*
X41732Y124016D02*
D03*
X51181Y120866D02*
D03*
X41732Y114567D02*
D03*
X32283Y155512D02*
D03*
X38583Y136614D02*
D03*
X25984Y149213D02*
D03*
X32283Y139764D02*
D03*
Y136614D02*
D03*
X29134Y139764D02*
D03*
Y136614D02*
D03*
X16535Y152346D02*
D03*
X13386Y155512D02*
D03*
X10258Y158661D02*
D03*
X7087Y161811D02*
D03*
X22835Y149213D02*
D03*
Y146063D02*
D03*
X19685Y149213D02*
D03*
Y146063D02*
D03*
Y142913D02*
D03*
X16535D02*
D03*
X38583Y133465D02*
D03*
X35433Y133465D02*
D03*
X32283D02*
D03*
X38583Y127165D02*
D03*
X29134Y130315D02*
D03*
X32283Y114567D02*
D03*
X25984Y120866D02*
D03*
Y124016D02*
D03*
Y117717D02*
D03*
X22835Y124016D02*
D03*
X19685D02*
D03*
X22835Y120866D02*
D03*
Y117717D02*
D03*
X19685Y120866D02*
D03*
X16535Y130315D02*
D03*
X16535Y133465D02*
D03*
X16535Y117717D02*
D03*
X13386Y127165D02*
D03*
Y114567D02*
D03*
X7087D02*
D03*
M02*
