G04*
G04 #@! TF.GenerationSoftware,Altium Limited,Altium Designer,21.8.1 (53)*
G04*
G04 Layer_Physical_Order=3*
G04 Layer_Color=16440176*
%FSLAX25Y25*%
%MOIN*%
G70*
G04*
G04 #@! TF.SameCoordinates,8CF8EC62-83D0-4302-AE6A-B584A4672486*
G04*
G04*
G04 #@! TF.FilePolarity,Positive*
G04*
G01*
G75*
%ADD69C,0.00400*%
%ADD71C,0.00350*%
%ADD81C,0.01772*%
D69*
X56191Y213592D02*
X56398Y213386D01*
X41535Y229528D02*
X56191Y214872D01*
Y213592D02*
Y214872D01*
X31201Y229528D02*
X41535D01*
X41179Y227785D02*
X52324Y216640D01*
Y216497D02*
Y216640D01*
X27461Y233268D02*
X31201Y229528D01*
X25823Y158661D02*
X25984D01*
X23643Y160841D02*
X25823Y158661D01*
X23643Y166031D02*
X24956Y167343D01*
X23643Y160841D02*
Y166031D01*
X12603Y159582D02*
X12710Y159474D01*
Y158924D02*
Y159474D01*
X12603Y159582D02*
Y169484D01*
X12710Y158924D02*
X12972Y158661D01*
X5241Y181614D02*
Y199564D01*
X71344Y143491D02*
Y143660D01*
X72452Y144768D02*
Y179020D01*
X71344Y143660D02*
X72452Y144768D01*
X43858Y166449D02*
X44057Y166738D01*
X40885Y163373D02*
X43858Y166449D01*
X40478Y162967D02*
X40885Y163373D01*
X39469Y163107D02*
X40071Y163710D01*
X39469Y157801D02*
Y163107D01*
Y157801D02*
X40139Y157131D01*
X44057Y166738D02*
Y179884D01*
X2067Y118820D02*
X3653Y120406D01*
X3294Y126398D02*
X6890Y129993D01*
X3335Y101910D02*
Y118939D01*
X4466Y120069D02*
Y122057D01*
X4921Y122752D02*
Y124591D01*
Y119374D02*
X5280Y119732D01*
X2067Y121063D02*
X2067Y121063D01*
X4921Y124591D02*
X7152Y126822D01*
X3294Y122078D02*
X3653Y121720D01*
X2067Y121063D02*
Y148995D01*
X4108Y126021D02*
X6495Y128408D01*
X4108Y122415D02*
Y126021D01*
X3653Y120406D02*
Y121720D01*
X4921Y122752D02*
X5280Y122394D01*
Y119732D02*
Y122394D01*
X3335Y118939D02*
X4466Y120069D01*
X4921Y102567D02*
Y119374D01*
X3294Y122078D02*
Y126398D01*
X4108Y122415D02*
X4466Y122057D01*
X8412Y101585D02*
X8672Y101845D01*
Y125602D01*
X32305Y159033D02*
X34066Y160793D01*
X79144Y197431D02*
X81296Y195279D01*
Y144028D02*
Y195279D01*
X79144Y141876D02*
X81296Y144028D01*
X79144Y126565D02*
Y141876D01*
Y126565D02*
X79144Y126565D01*
X77558Y134956D02*
X78124Y135523D01*
X77756Y186637D02*
Y187008D01*
X76772Y119137D02*
X77558Y119923D01*
X78124Y145342D02*
X78357Y145575D01*
X76772Y93504D02*
Y119137D01*
X79144Y126565D02*
X79144D01*
X77756Y186637D02*
X78357Y186035D01*
X77558Y119923D02*
Y134956D01*
X5782Y151885D02*
X8672Y154776D01*
Y186209D01*
X2067Y148995D02*
X4958Y151885D01*
X5782D01*
X2067Y100394D02*
Y118820D01*
X3335Y101910D02*
X3653Y101593D01*
Y98915D02*
Y101593D01*
X16566Y93323D02*
Y109241D01*
Y93323D02*
X19376Y90514D01*
X16566Y109241D02*
X16591Y109266D01*
X71449Y180023D02*
X72452Y179020D01*
X71449Y180023D02*
Y180118D01*
X74803Y149606D02*
Y152772D01*
X78124Y135523D02*
Y145342D01*
X75787Y183922D02*
Y184055D01*
X74803Y182938D02*
X75787Y183922D01*
X74202Y153374D02*
Y176838D01*
X74803Y177440D01*
Y182938D01*
X74202Y153374D02*
X74803Y152772D01*
X5241Y181614D02*
X5906Y180949D01*
X5241Y199564D02*
X5906Y200229D01*
X6826Y187961D02*
X6921D01*
X8672Y186209D01*
X62008Y165354D02*
Y170986D01*
X57087Y175907D02*
X62008Y170986D01*
X57087Y175907D02*
Y183071D01*
X78357Y145575D02*
Y186035D01*
X29256Y227785D02*
X41179D01*
X36514Y180176D02*
X37419Y181081D01*
Y181390D01*
X51181Y155512D02*
Y163307D01*
X32305Y158661D02*
Y159033D01*
X2428Y97691D02*
X3653Y98915D01*
X32480Y125000D02*
X34449Y123031D01*
Y106299D02*
Y123031D01*
X22789Y234252D02*
X29256Y227785D01*
X27798Y226972D02*
X33265D01*
X20518Y234252D02*
X27798Y226972D01*
X33265D02*
X43701Y216535D01*
X23471Y225394D02*
X26181D01*
X35039Y216535D01*
X14612Y234252D02*
X23471Y225394D01*
X29795Y216798D02*
X30446D01*
X30709Y216535D01*
X12341Y234252D02*
X29795Y216798D01*
X6495Y128408D02*
X8329D01*
X10236Y130315D01*
X8672Y125602D02*
X10236Y127165D01*
X5906Y171254D02*
Y180949D01*
Y200229D02*
Y217520D01*
X5501Y170849D02*
X5906Y171254D01*
X5501Y160050D02*
Y170849D01*
Y160050D02*
X7087Y158465D01*
X39370Y176025D02*
Y184055D01*
X30720Y157098D02*
Y165147D01*
X38386Y166053D02*
X38486Y164367D01*
X34066Y160793D02*
Y166195D01*
X36514Y165496D02*
Y180176D01*
X29528Y166339D02*
X30720Y165147D01*
X40071Y163710D02*
X42924Y166666D01*
X40139Y153956D02*
Y157131D01*
X43045Y166786D02*
Y182808D01*
X44057Y179884D02*
X45276Y181102D01*
X42924Y166666D02*
X43045Y166786D01*
X29134Y155512D02*
X30720Y157098D01*
X37721Y166718D02*
X38386Y166053D01*
X40139Y153956D02*
X41732Y152362D01*
X43045Y182808D02*
X43307Y183071D01*
X37721Y166718D02*
Y174376D01*
X39370Y176025D01*
D71*
X20733Y205372D02*
X21114Y204991D01*
X21914Y204609D02*
X21532Y204991D01*
Y204227D02*
X21914Y204609D01*
X19933Y204227D02*
X19552Y203846D01*
Y203846D02*
X19933Y203464D01*
X21914Y203082D02*
X21532Y203464D01*
Y202700D02*
X21914Y203082D01*
X19933Y202700D02*
X19552Y202319D01*
Y202319D02*
X19933Y201937D01*
X21077Y201555D02*
X20695Y201937D01*
Y201174D02*
X21077Y201555D01*
X19933Y201174D02*
X19552Y200792D01*
Y200792D02*
X19933Y200410D01*
X21077Y200029D02*
X20695Y200410D01*
Y199647D02*
X21077Y200029D01*
X20474Y199647D02*
X20093Y199265D01*
X18701Y210305D02*
X19083Y209924D01*
X19882Y209542D02*
X19500Y209924D01*
Y209160D02*
X19882Y209542D01*
X17901Y209160D02*
X17520Y208779D01*
Y208779D02*
X17901Y208397D01*
X18701Y208015D02*
X18319Y208397D01*
X12845Y209307D02*
X13227Y208925D01*
X14026Y208544D02*
X13644Y208925D01*
Y208162D02*
X14026Y208544D01*
X12045Y208162D02*
X11664Y207780D01*
Y207780D02*
X12045Y207399D01*
X14026Y207017D02*
X13644Y207399D01*
Y206635D02*
X14026Y207017D01*
X12045Y206635D02*
X11664Y206253D01*
Y206253D02*
X12045Y205872D01*
X12845Y205490D02*
X12463Y205872D01*
X8477Y209739D02*
X8858Y210121D01*
X8059Y209739D02*
X7677Y209357D01*
Y209357D02*
X8059Y208976D01*
X9790Y208594D02*
X9408Y208976D01*
Y208212D02*
X9790Y208594D01*
X8059Y208212D02*
X7677Y207831D01*
Y207831D02*
X8059Y207449D01*
X9790Y207067D02*
X9408Y207449D01*
Y206685D02*
X9790Y207067D01*
X8059Y206685D02*
X7677Y206304D01*
Y206304D02*
X8059Y205922D01*
X9790Y205540D02*
X9408Y205922D01*
Y205159D02*
X9790Y205540D01*
X8059Y205159D02*
X7677Y204777D01*
Y204777D02*
X8059Y204395D01*
X8858Y204014D02*
X8477Y204395D01*
X22737Y213636D02*
X22786Y213587D01*
Y207726D02*
Y213587D01*
Y207726D02*
X22835Y207677D01*
X18701Y195639D02*
Y207840D01*
X20733Y205372D02*
Y206102D01*
X21114Y204991D02*
X21532D01*
X21914Y204609D02*
Y204609D01*
X19933Y204227D02*
X21532D01*
X19552Y203846D02*
Y203846D01*
X19933Y203464D02*
X21532D01*
X21914Y203082D02*
Y203082D01*
X19933Y202700D02*
X21532D01*
X19552Y202319D02*
Y202319D01*
X19933Y201937D02*
X20695D01*
X21077Y201555D02*
Y201555D01*
X19933Y201174D02*
X20695D01*
X19552Y200792D02*
Y200792D01*
X19933Y200410D02*
X20695D01*
X21077Y200029D02*
Y200029D01*
X20474Y199647D02*
X20695D01*
X20093Y198327D02*
Y199265D01*
X20733Y206102D02*
Y212567D01*
X20093Y190784D02*
Y198327D01*
X18701Y210305D02*
Y211024D01*
X19083Y209924D02*
X19500D01*
X19882Y209542D02*
Y209542D01*
X17901Y209160D02*
X19500D01*
X17520Y208779D02*
Y208779D01*
X17901Y208397D02*
X18319D01*
X18701Y207840D02*
Y208015D01*
Y211024D02*
Y213583D01*
X10553Y181384D02*
Y211845D01*
X12845Y209307D02*
Y210335D01*
X13227Y208925D02*
X13644D01*
X14026Y208544D02*
Y208544D01*
X12045Y208162D02*
X13644D01*
X11664Y207780D02*
Y207780D01*
X12045Y207399D02*
X13644D01*
X14026Y207017D02*
Y207017D01*
X12045Y206635D02*
X13644D01*
X11664Y206253D02*
Y206253D01*
X12045Y205872D02*
X12463D01*
X12845Y205315D02*
Y205490D01*
Y210335D02*
Y213586D01*
Y194550D02*
Y205315D01*
X8858Y210121D02*
Y211417D01*
X8059Y209739D02*
X8477D01*
X7677Y209357D02*
Y209357D01*
X8059Y208976D02*
X9408D01*
X9790Y208594D02*
Y208594D01*
X8059Y208212D02*
X9408D01*
X7677Y207831D02*
Y207831D01*
X8059Y207449D02*
X9408D01*
X9790Y207067D02*
Y207067D01*
X8059Y206685D02*
X9408D01*
X7677Y206304D02*
Y206304D01*
X8059Y205922D02*
X9408D01*
X9790Y205540D02*
Y205540D01*
X8059Y205159D02*
X9408D01*
X7677Y204777D02*
Y204777D01*
X8059Y204395D02*
X8477D01*
X8858Y203839D02*
Y204014D01*
Y211417D02*
Y213583D01*
Y192137D02*
Y203839D01*
X4345Y190368D02*
Y218166D01*
X34857Y154935D02*
Y162766D01*
X34899Y162808D01*
X34844Y174477D02*
X34899Y174421D01*
Y162808D02*
Y174421D01*
X34844Y174477D02*
Y179355D01*
X32283Y152362D02*
X34857Y154935D01*
X32755Y175486D02*
X34136Y174105D01*
Y168676D02*
Y174105D01*
X24431Y161168D02*
X25341Y160258D01*
X24431Y161168D02*
Y162454D01*
X25341Y160258D02*
X26595D01*
X26445Y164468D02*
Y182440D01*
X24431Y162454D02*
X26445Y164468D01*
X32755Y180915D02*
X34485Y182645D01*
X13391Y168065D02*
X14164Y168837D01*
X13391Y161828D02*
X16535Y158684D01*
X13391Y161828D02*
Y168065D01*
X10553Y211845D02*
X10890Y212182D01*
X9461Y170474D02*
Y191534D01*
X8858Y192137D02*
X9461Y191534D01*
Y170474D02*
X10258Y169676D01*
Y169291D02*
Y169676D01*
X10553Y181384D02*
X11819Y180118D01*
X10890Y212182D02*
Y212567D01*
X73819Y132243D02*
Y146415D01*
X68989Y139685D02*
Y145609D01*
X69020Y145640D02*
Y145642D01*
X68989Y145609D02*
X69020Y145640D01*
X69784Y141831D02*
Y145326D01*
Y141831D02*
X70866Y140748D01*
X69784Y145326D02*
X70866Y146409D01*
X69474Y146097D02*
Y175251D01*
X69020Y145642D02*
X69474Y146097D01*
X68989Y139685D02*
X69962Y138712D01*
X68961Y175765D02*
Y176149D01*
Y175765D02*
X69474Y175251D01*
X40377Y162320D02*
X40377Y162454D01*
X40377Y159316D02*
Y162320D01*
X40377Y162454D02*
X40478Y162967D01*
X40369Y159308D02*
X40377Y159316D01*
X40369Y158015D02*
Y159308D01*
X4320Y155208D02*
Y176181D01*
X2759Y165119D02*
Y188783D01*
Y165119D02*
X2953Y164925D01*
X4320Y155208D02*
X5591Y153937D01*
X2759Y188783D02*
X4345Y190368D01*
X12795Y194500D02*
X12845Y194550D01*
X27581Y177684D02*
X31127Y181230D01*
X27581Y160352D02*
X29134Y158799D01*
X27581Y160352D02*
Y177684D01*
X66929Y173985D02*
Y177165D01*
X66353Y173409D02*
X66929Y173985D01*
X66353Y151552D02*
X66929Y150975D01*
Y150591D02*
Y150975D01*
X66353Y151552D02*
Y173409D01*
X34066Y166195D02*
Y168607D01*
X34136Y168676D01*
X32755Y175486D02*
Y180915D01*
X14164Y168837D02*
Y174597D01*
X17717Y178150D01*
X18124Y180695D02*
X19277Y179542D01*
X18124Y180695D02*
Y195062D01*
X18088Y176314D02*
X19277Y177503D01*
Y179542D01*
X18088Y165967D02*
Y176314D01*
X18124Y195062D02*
X18701Y195639D01*
X79710Y144685D02*
Y192913D01*
X2953Y152559D02*
Y164925D01*
X20093Y190784D02*
X22306Y188571D01*
X64427Y147801D02*
X64673Y148047D01*
Y155970D01*
X10069Y234252D02*
X13899Y230422D01*
X14896D01*
X26375Y218943D01*
Y216539D02*
Y218943D01*
X69962Y138664D02*
Y138712D01*
X70866Y146409D02*
Y177922D01*
X73819Y146415D02*
X77340Y149936D01*
X76772Y180718D02*
X77340Y180149D01*
X76772Y180718D02*
Y181102D01*
X77340Y149936D02*
Y180149D01*
X64673Y155970D02*
X65537Y156834D01*
X19905Y161017D02*
Y161401D01*
X19108Y162197D02*
Y164780D01*
X24956Y167343D02*
Y183158D01*
X26460Y184662D01*
X19108Y164780D02*
X20283Y165955D01*
X19108Y162197D02*
X19905Y161401D01*
X26595Y160258D02*
X27545Y159308D01*
X22306Y166901D02*
Y188571D01*
X20283Y165955D02*
Y169293D01*
X26445Y182440D02*
X28730Y184725D01*
X50990Y163498D02*
Y176975D01*
X54134Y180118D01*
X64673Y173945D02*
Y174213D01*
X65537Y156834D02*
Y173081D01*
X64673Y173945D02*
X65537Y173081D01*
X50990Y163498D02*
X51181Y163307D01*
X22095Y105937D02*
X22304D01*
X21260Y106772D02*
X22095Y105937D01*
X38386Y200787D02*
X41339Y197835D01*
Y181102D02*
Y197835D01*
X16694Y109369D02*
X18096Y110771D01*
X16591Y109266D02*
X16694Y109369D01*
X21330Y106842D02*
Y112064D01*
X21260Y106772D02*
X21330Y106842D01*
X21274Y112120D02*
X21330Y112064D01*
X26375Y216539D02*
X26378Y216535D01*
X18096Y112978D02*
X19685Y114567D01*
X18096Y110771D02*
Y112978D01*
X19685Y117717D02*
X21274Y116128D01*
Y112120D02*
Y116128D01*
X16535Y158639D02*
Y158684D01*
X4921Y218743D02*
Y227362D01*
X4345Y218166D02*
X4921Y218743D01*
X36417Y154528D02*
Y162119D01*
X34315Y179883D02*
X34844Y179355D01*
X34485Y182645D02*
Y192097D01*
X40369Y158015D02*
X41462Y156923D01*
Y155783D02*
X41732Y155512D01*
X29134Y158661D02*
Y158799D01*
X27545Y157073D02*
Y159308D01*
X25984Y155512D02*
X27545Y157073D01*
X12845Y213586D02*
X12895Y213636D01*
X34315Y179883D02*
Y180268D01*
X46457Y153937D02*
Y167122D01*
X41930Y158661D02*
X44846Y161577D01*
Y168060D02*
X45643Y168858D01*
X44846Y161577D02*
Y168060D01*
X45643Y168858D02*
Y169243D01*
X41462Y155783D02*
Y156923D01*
X36417Y154528D02*
X38583Y152362D01*
X49213Y159744D02*
X49592Y159364D01*
X49213Y159744D02*
Y168307D01*
X28730Y184725D02*
Y184733D01*
X49592Y150801D02*
X51181Y149213D01*
X49592Y150801D02*
Y159364D01*
X44882Y152362D02*
X46457Y153937D01*
D81*
X22835Y207677D02*
D03*
X56398Y213386D02*
D03*
X52324Y216497D02*
D03*
X27461Y233268D02*
D03*
X71344Y143491D02*
D03*
X2067Y121063D02*
D03*
X5591Y153937D02*
D03*
X4320Y176181D02*
D03*
X8412Y101585D02*
D03*
X12795Y194500D02*
D03*
X17717Y178150D02*
D03*
X79144Y197431D02*
D03*
X79710Y192913D02*
D03*
Y144685D02*
D03*
X79144Y126565D02*
D03*
X2953Y152559D02*
D03*
X2067Y100394D02*
D03*
X4921Y102567D02*
D03*
X64427Y147801D02*
D03*
X71449Y180118D02*
D03*
X70866Y177922D02*
D03*
X73819Y132243D02*
D03*
X69962Y138664D02*
D03*
X74803Y149606D02*
D03*
X76772Y181102D02*
D03*
X75787Y184055D02*
D03*
X66929Y177165D02*
D03*
X68961Y176149D02*
D03*
X66929Y150591D02*
D03*
X70866Y140748D02*
D03*
X20283Y169293D02*
D03*
X22306Y166901D02*
D03*
X19905Y161017D02*
D03*
X18088Y165967D02*
D03*
X6826Y187961D02*
D03*
X54134Y180118D02*
D03*
X64673Y174213D02*
D03*
X22304Y105937D02*
D03*
X38386Y200787D02*
D03*
X37419Y181390D02*
D03*
X31127Y181230D02*
D03*
X57087Y183071D02*
D03*
X62008Y165354D02*
D03*
X34485Y192097D02*
D03*
X77756Y187008D02*
D03*
X76772Y93504D02*
D03*
X2428Y97691D02*
D03*
X19376Y90514D02*
D03*
X34449Y106299D02*
D03*
X32480Y125000D02*
D03*
X43701Y216535D02*
D03*
X26378D02*
D03*
X30709D02*
D03*
X35039D02*
D03*
X22789Y234252D02*
D03*
X20518D02*
D03*
X10069D02*
D03*
X12341D02*
D03*
X14612D02*
D03*
X6890Y129993D02*
D03*
X7152Y126822D02*
D03*
X10236Y130315D02*
D03*
X16535Y158639D02*
D03*
X7087Y158465D02*
D03*
X5906Y217520D02*
D03*
X4921Y227362D02*
D03*
X41339Y181102D02*
D03*
X22737Y213636D02*
D03*
X20733Y212567D02*
D03*
X36417Y162119D02*
D03*
X38486Y164367D02*
D03*
X36514Y165496D02*
D03*
X18701Y213583D02*
D03*
X29528Y166339D02*
D03*
X25984Y158661D02*
D03*
X32305D02*
D03*
X29134D02*
D03*
X12895Y213636D02*
D03*
X34315Y180268D02*
D03*
X11819Y180118D02*
D03*
X10890Y212567D02*
D03*
X10258Y169291D02*
D03*
X8858Y213583D02*
D03*
X45276Y181102D02*
D03*
X46457Y167122D02*
D03*
X45643Y169243D02*
D03*
X41930Y158661D02*
D03*
X43307Y183071D02*
D03*
X39370Y184055D02*
D03*
X12972Y158661D02*
D03*
X12603Y169484D02*
D03*
X49213Y168307D02*
D03*
X28730Y184733D02*
D03*
X26460Y184662D02*
D03*
X32283Y152362D02*
D03*
X38583D02*
D03*
X41732D02*
D03*
X44882D02*
D03*
X29134Y155512D02*
D03*
X25984D02*
D03*
X41732D02*
D03*
X19685Y117717D02*
D03*
X51181Y149213D02*
D03*
X19685Y114567D02*
D03*
X10236Y127165D02*
D03*
X51181Y155512D02*
D03*
M02*
